<?xml version="1.0" standalone="no"?>
<!DOCTYPE svg PUBLIC "-//W3C//DTD SVG 1.1//EN" "http://www.w3.org/Graphics/SVG/1.1/DTD/svg11.dtd" >
<svg xmlns="http://www.w3.org/2000/svg" xmlns:xlink="http://www.w3.org/1999/xlink" version="1.1">
<metadata>
Created by FontForge 20170731 at Mon Jul  5 19:23:16 2021
 By Aleksey,,,
Copyright (C) 2001, 2011 Hoefler &#38; Co. http://www.typography.com
</metadata>
<defs>
<font id="GothamCondensed-Medium" horiz-adv-x="491" >
  <font-face 
    font-family="Gotham Condensed Medium"
    font-weight="350"
    font-stretch="condensed"
    units-per-em="2048"
    panose-1="0 0 0 0 0 0 0 0 0 0"
    ascent="1638"
    descent="-410"
    x-height="1092"
    cap-height="1434"
    bbox="-283 -446 1599 1905"
    underline-thickness="102"
    underline-position="-409"
    unicode-range="U+0020-FB04"
  />
<missing-glyph horiz-adv-x="1024" 
d="M0 -410v2048h1024v-2048h-1024zM145 1536l367 -799l367 799h-734zM102 -156l353 770l-353 770v-1540zM922 1384l-353 -770l353 -770v1540zM512 492l-367 -799h734z" />
    <glyph glyph-name="f_f" unicode="ff" horiz-adv-x="923" 
d="M111 0v930h-80v162h80v92q0 136 67 200q66 66 191 66q36 0 82 -8v-166q-24 4 -39 4q-105 0 -105 -123v-65h137v-162h-137v-930h-196zM573 0v930h-77v162h77v92q0 135 68 200q66 66 188 66q42 0 82 -8v-166q-20 4 -37 4q-106 0 -106 -123v-65h141v-162h-141v-930h-195z
" />
    <glyph glyph-name="fi" unicode="fi" horiz-adv-x="833" 
d="M111 0v930h-80v162h80v92q0 136 67 200q66 66 191 66q36 0 82 -8v-166q-24 4 -39 4q-105 0 -105 -123v-65h139v-162h-139v-930h-196zM553 0v1092h195v-1092h-195zM551 1233v213h201v-213h-201z" />
    <glyph glyph-name="fl" unicode="fl" horiz-adv-x="833" 
d="M111 0v930h-80v162h80v92q0 136 67 200q66 66 191 66q36 0 82 -8v-166q-24 4 -39 4q-105 0 -105 -123v-65h139v-162h-139v-930h-196zM553 0v1446h195v-1446h-195z" />
    <glyph glyph-name="f_f_i" unicode="ffi" horiz-adv-x="1296" 
d="M111 0v930h-80v162h80v92q0 136 67 200q66 66 191 66q36 0 82 -8v-166q-24 4 -39 4q-105 0 -105 -123v-65h137v-162h-137v-930h-196zM573 0v930h-77v162h77v92q0 135 68 200q66 66 188 66q42 0 82 -8v-166q-20 4 -37 4q-106 0 -106 -123v-65h141v-162h-141v-930h-195z
M1016 0v1092h194v-1092h-194zM1014 1233v213h198v-213h-198z" />
    <glyph glyph-name="f_f_l" unicode="ffl" horiz-adv-x="1296" 
d="M111 0v930h-80v162h80v92q0 136 67 200q66 66 191 66q36 0 82 -8v-166q-24 4 -39 4q-105 0 -105 -123v-65h137v-162h-137v-930h-196zM573 0v930h-77v162h77v92q0 135 68 200q66 66 188 66q42 0 82 -8v-166q-20 4 -37 4q-106 0 -106 -123v-65h141v-162h-141v-930h-195z
M1016 0v1446h194v-1446h-194z" />
    <glyph glyph-name=".notdef" horiz-adv-x="1024" 
d="M0 -410v2048h1024v-2048h-1024zM145 1536l367 -799l367 799h-734zM102 -156l353 770l-353 770v-1540zM922 1384l-353 -770l353 -770v1540zM512 492l-367 -799h734z" />
    <glyph glyph-name=".null" horiz-adv-x="0" 
 />
    <glyph glyph-name="nonmarkingreturn" horiz-adv-x="682" 
 />
    <glyph glyph-name="space" unicode=" " horiz-adv-x="329" 
 />
    <glyph glyph-name="exclam" unicode="!" horiz-adv-x="436" 
d="M168 426l-70 936v72h240v-72l-70 -936h-100zM100 0v250h236v-250h-236z" />
    <glyph glyph-name="quotedbl" unicode="&#x22;" horiz-adv-x="630" 
d="M393 827v607h203v-19l-129 -588h-74zM92 827v607h203v-19l-129 -588h-74z" />
    <glyph glyph-name="numbersign" unicode="#" horiz-adv-x="778" 
d="M709 524v-180h-144l-33 -344h-131l33 344h-162l-30 -344h-133l32 344h-108v180h125l39 394h-127v180h143l33 336h133l-33 -336h160l33 336h131l-33 -336h111v-180h-127l-39 -394h127zM328 918l-37 -394h160l36 394h-159z" />
    <glyph glyph-name="dollar" unicode="$" horiz-adv-x="710" 
d="M612 1391v-207q-63 39 -107.5 55t-94.5 16q-67 0 -111.5 -44.5t-44.5 -118.5v-2q0 -64 32 -115t124 -146l2 -2q147 -147 200.5 -245.5t53.5 -219.5v-2q0 -134 -67.5 -230.5t-178.5 -127.5v-217h-133v207q-116 6 -217 59v209q72 -44 123 -63t108 -19q77 0 120.5 49.5
t43.5 134.5q0 63 -33.5 127t-122.5 148l-2 2q-142 135 -198 227t-56 219t63.5 218t170.5 124v154h133v-137q94 -5 192 -53z" />
    <glyph glyph-name="percent" unicode="%" horiz-adv-x="1124" 
d="M276 705q-100 0 -161.5 95t-61.5 257v37q0 162 61.5 257t161.5 95t162 -95t62 -257v-37q0 -162 -62 -257t-162 -95zM276 1307q-83 0 -83 -215v-33q0 -215 83 -215q84 0 84 215v33q0 215 -84 215zM514 741l317 693h125l-344 -742l-317 -692h-125zM848 -12
q-100 0 -161.5 95t-61.5 257v37q0 162 61.5 257t161.5 95t161.5 -95t61.5 -257v-37q0 -162 -61.5 -257t-161.5 -95zM848 127q84 0 84 215v33q0 215 -84 215t-84 -215v-33q0 -215 84 -215z" />
    <glyph glyph-name="ampersand" unicode="&#x26;" horiz-adv-x="874" 
d="M717 -23l-82 152q-56 -72 -120 -109.5t-155 -37.5q-138 0 -231.5 106.5t-93.5 267.5v13q0 239 223 434q-67 110 -97 187.5t-30 150.5v12q0 125 78.5 212t202.5 87q122 0 196 -83t74 -210v-14q0 -114 -52.5 -205t-156.5 -182l160 -301q16 63 41 231l157 -26
q-24 -215 -92 -377l125 -217zM391 893q117 108 117 248v12q0 59 -27.5 97t-72.5 38q-46 0 -74.5 -37t-28.5 -94v-14q0 -50 19.5 -106t66.5 -144zM383 158q94 0 164 108l-205 391q-55 -58 -84 -130.5t-29 -143.5v-14q0 -93 42.5 -152t111.5 -59z" />
    <glyph glyph-name="quotesingle" unicode="'" horiz-adv-x="329" 
d="M92 827v607h203v-19l-129 -588h-74z" />
    <glyph glyph-name="parenleft" unicode="(" horiz-adv-x="573" 
d="M524 -283q-220 84 -331 314.5t-111 560.5q0 214 46.5 387t147 300.5t248.5 184.5v-147q-127 -83 -190.5 -269.5t-63.5 -455.5q0 -271 63.5 -458t190.5 -269v-148z" />
    <glyph glyph-name="parenright" unicode=")" horiz-adv-x="573" 
d="M47 -283v148q128 82 192 269t64 458q0 269 -64 455.5t-192 269.5v147q149 -57 250 -184.5t148 -300.5t47 -387q0 -216 -47 -390t-148 -301.5t-250 -183.5z" />
    <glyph glyph-name="asterisk" unicode="*" horiz-adv-x="598" 
d="M231 829l31 234l-158 -133l-69 119l188 84l-188 84l69 118l158 -133l-31 234h136l-31 -234l158 133l69 -118l-188 -84l188 -84l-69 -119l-158 133l31 -234h-136z" />
    <glyph glyph-name="plus" unicode="+" horiz-adv-x="753" 
d="M287 375v252h-238v188h238v252h182v-252h236v-188h-236v-252h-182z" />
    <glyph glyph-name="comma" unicode="," horiz-adv-x="405" 
d="M59 -295l-20 84q166 45 151 211h-106v250h235v-207q0 -286 -260 -338z" />
    <glyph glyph-name="hyphen" unicode="-" horiz-adv-x="647" 
d="M80 528v197h485v-197h-485z" />
    <glyph glyph-name="period" unicode="." horiz-adv-x="405" 
d="M84 0v250h235v-250h-235z" />
    <glyph glyph-name="slash" unicode="/" horiz-adv-x="602" 
d="M-16 -201l448 1774h166l-448 -1774h-166z" />
    <glyph glyph-name="zero" unicode="0" horiz-adv-x="792" 
d="M397 -18q-166 0 -252 168.5t-86 533.5v64q0 365 86 534.5t252 169.5q165 0 251.5 -169t86.5 -533v-64q0 -704 -338 -704zM397 166q31 0 54.5 24t43 80t30 161t10.5 255v62q0 150 -10.5 254.5t-30 161t-43 80.5t-54.5 24q-32 0 -56 -24t-43.5 -80t-29.5 -160.5t-10 -255.5
v-62q0 -150 10 -254.5t29.5 -161t43.5 -80.5t56 -24z" />
    <glyph glyph-name="one" unicode="1" horiz-adv-x="489" 
d="M184 0v1217l-149 -60v207l201 78h149v-1442h-201z" />
    <glyph glyph-name="two" unicode="2" horiz-adv-x="677" 
d="M45 0v166l287 598q57 121 79.5 192.5t22.5 135.5q0 72 -40.5 118.5t-114.5 46.5q-99 0 -203 -69v198q124 66 243 66q142 0 228 -88t86 -240v-10q0 -89 -26 -178.5t-87 -216.5l-256 -520h369v-199h-588z" />
    <glyph glyph-name="three" unicode="3" horiz-adv-x="661" 
d="M238 -18q-114 0 -203 36v193q89 -39 182 -39q85 0 142 66.5t57 181.5v14q0 227 -266 246v135l247 420h-350v199h561v-174l-258 -435q266 -80 266 -376v-21q0 -205 -106.5 -325.5t-271.5 -120.5z" />
    <glyph glyph-name="four" unicode="4" horiz-adv-x="763" 
d="M434 0v285h-401v153l393 1002h195v-981h116v-174h-116v-285h-187zM199 459h235v614z" />
    <glyph glyph-name="five" unicode="5" horiz-adv-x="679" 
d="M250 -18q-94 0 -184 36v199q77 -43 165 -43q94 0 149.5 78t55.5 209v14q0 125 -44.5 181.5t-119.5 56.5q-49 0 -110 -23l-103 68l35 676h488v-193h-334l-21 -356q54 14 105 14q61 0 113.5 -23.5t96 -71.5t68.5 -132t25 -195v-16q0 -221 -106.5 -350t-278.5 -129z" />
    <glyph glyph-name="six" unicode="6" horiz-adv-x="745" 
d="M381 -18q-111 0 -182 71q-140 140 -140 582v55q0 171 19 303t53 218t84 140.5t107 77.5t127 23q83 0 161 -31v-192q-84 41 -145 41q-100 0 -155 -109t-58 -317q80 74 178 74q53 0 99.5 -22.5t85.5 -70t62 -132t23 -197.5v-33q0 -215 -90.5 -348t-228.5 -133zM383 162
q61 0 95 76.5t34 216.5v32q0 133 -37.5 197t-97.5 64t-123 -60v-158q0 -368 129 -368z" />
    <glyph glyph-name="seven" unicode="7" horiz-adv-x="663" 
d="M123 0l291 1231h-373v203h567v-148l-286 -1286h-199z" />
    <glyph glyph-name="eight" unicode="8" horiz-adv-x="735" 
d="M367 -18q-142 0 -232 110t-90 295v14q0 129 49 222.5t123 136.5q-72 45 -111.5 126t-39.5 189v12q0 166 87.5 265.5t213.5 99.5q128 0 214.5 -99t86.5 -266v-12q0 -109 -39 -189.5t-111 -125.5q73 -44 122.5 -137.5t49.5 -221.5v-14q0 -185 -90 -295t-233 -110zM367 823
q53 0 83.5 63.5t30.5 172.5v10q0 112 -31 167.5t-83 55.5q-50 0 -81.5 -55.5t-31.5 -167.5v-10q0 -108 31 -172t82 -64zM367 143q60 0 95.5 64t35.5 190v13q0 124 -36.5 190t-94.5 66q-57 0 -93 -66t-36 -190v-13q0 -126 35 -190t94 -64z" />
    <glyph glyph-name="nine" unicode="9" horiz-adv-x="745" 
d="M281 166q99 0 153 103t58 302q-83 -71 -177 -71q-54 0 -100.5 23t-85.5 72t-61.5 136t-22.5 205v25q0 225 89.5 358t230.5 133q109 0 182 -70q139 -142 139 -583v-56q0 -171 -19 -303t-52.5 -217.5t-83.5 -140.5t-107 -77.5t-127 -22.5q-87 0 -182 36v193q88 -45 166 -45
zM369 670q61 0 123 59v174q0 369 -130 369q-62 0 -95.5 -77.5t-33.5 -225.5v-27q0 -272 136 -272z" />
    <glyph glyph-name="colon" unicode=":" horiz-adv-x="425" 
d="M94 842v250h236v-250h-236zM94 0v250h236v-250h-236z" />
    <glyph glyph-name="semicolon" unicode=";" horiz-adv-x="425" 
d="M94 842v250h236v-250h-236zM70 -295l-21 84q61 17 98 51.5t47.5 73.5t6.5 86h-107v250h236v-207q0 -286 -260 -338z" />
    <glyph glyph-name="less" unicode="&#x3c;" horiz-adv-x="753" 
d="M674 264l-608 367v180l608 369v-234l-404 -223l404 -223v-236z" />
    <glyph glyph-name="equal" unicode="=" horiz-adv-x="753" 
d="M55 803v196h643v-196h-643zM55 442v197h643v-197h-643z" />
    <glyph glyph-name="greater" unicode="&#x3e;" horiz-adv-x="753" 
d="M80 264v232l401 223l-401 223v238l608 -369v-180z" />
    <glyph glyph-name="question" unicode="?" horiz-adv-x="645" 
d="M205 426l-21 356l11 13q215 73 215 266v4q0 86 -53.5 139t-133.5 53q-90 0 -180 -51v185q104 53 217 53q153 0 250.5 -101.5t97.5 -257.5v-16q0 -262 -248 -379l-24 -264h-131zM160 0v250h233v-250h-233z" />
    <glyph glyph-name="at" unicode="@" horiz-adv-x="1300" 
d="M610 -279q-117 0 -217 45.5t-175 132.5t-117.5 225.5t-41.5 313.5q1 157 30.5 306t87.5 277.5t138 225t188.5 152t231.5 55.5q150 0 266.5 -86t177 -228.5t60.5 -316.5q0 -175 -38 -327.5t-116.5 -252.5t-181.5 -100q-88 0 -134.5 51t-49.5 132q-96 -181 -215 -181
q-75 0 -124.5 66.5t-49.5 183.5q0 166 42.5 314.5t114.5 238.5t154 90q63 0 101 -42.5t51 -108.5l24 131l162 -29l-94 -522q-13 -73 -13 -137q0 -99 66 -99q59 0 110.5 87.5t80 225t28.5 285.5q0 151 -48.5 274t-147.5 199t-232 76q-107 0 -202 -53.5t-165 -145t-121 -212
t-76.5 -257t-25.5 -276.5q-1 -306 130 -471.5t349 -165.5q164 0 302 82l38 -63q-85 -51 -164 -73t-184 -22zM571 291q29 0 60 31q52 52 88.5 186.5t36.5 241.5q0 64 -22 98.5t-58 34.5q-29 0 -58 -29q-55 -55 -87.5 -193t-32.5 -251q0 -119 73 -119z" />
    <glyph glyph-name="A" unicode="A" horiz-adv-x="823" 
d="M18 0l285 1438h217l285 -1438h-205l-57 319h-271l-57 -319h-197zM303 502h209l-104 575z" />
    <glyph glyph-name="B" unicode="B" horiz-adv-x="790" 
d="M86 0v1434h205q229 0 346 -117q96 -96 96 -246v-8q0 -242 -225 -330q244 -87 244 -330v-14q0 -183 -127.5 -286t-337.5 -103h-201zM532 1034v4q0 102 -58 155.5t-159 53.5h-30v-436h22q106 0 165.5 58t59.5 165zM549 414q0 104 -64.5 162.5t-173.5 58.5h-26v-449h22
q109 0 175.5 57.5t66.5 159.5v11z" />
    <glyph glyph-name="C" unicode="C" horiz-adv-x="684" 
d="M453 -10q-86 0 -156.5 41.5t-125 124.5t-84.5 220.5t-30 317.5v45q0 145 21 263.5t58.5 199.5t89.5 136t112 80.5t129 25.5q89 0 156 -33v-209q-74 45 -140 45q-49 0 -87.5 -27.5t-69.5 -85t-47.5 -157.5t-16.5 -236v-49q0 -506 223 -506q68 0 142 45v-200
q-72 -41 -174 -41z" />
    <glyph glyph-name="D" unicode="D" horiz-adv-x="845" 
d="M86 0v1434h215q231 0 359 -177t128 -518v-45q0 -340 -128 -517t-359 -177h-215zM319 1249h-30v-1065h30q57 0 103.5 28t83.5 86.5t57.5 159t20.5 236.5v45q0 136 -20.5 236.5t-58 159t-84 86.5t-102.5 28z" />
    <glyph glyph-name="E" unicode="E" horiz-adv-x="673" 
d="M86 0v1434h530v-191h-327v-426h293v-190h-293v-437h334v-190h-537z" />
    <glyph glyph-name="F" unicode="F" horiz-adv-x="632" 
d="M86 0v1434h506v-191h-303v-434h268v-193h-268v-616h-203z" />
    <glyph glyph-name="G" unicode="G" horiz-adv-x="821" 
d="M506 -18q-95 0 -174.5 42t-142 126t-97.5 223.5t-35 320.5v45q0 342 129 527.5t336 185.5q106 0 187 -43v-211q-97 59 -181 59q-121 0 -193.5 -129.5t-72.5 -379.5v-62q0 -114 14 -204.5t37.5 -148t56.5 -95.5t68.5 -54t75.5 -16q17 0 47 6v434h-151v180h335v-749
q-126 -57 -239 -57z" />
    <glyph glyph-name="H" unicode="H" horiz-adv-x="860" 
d="M86 0v1434h203v-617h284v617h201v-1434h-201v625h-284v-625h-203z" />
    <glyph glyph-name="I" unicode="I" horiz-adv-x="389" 
d="M94 0v1434h201v-1434h-201z" />
    <glyph glyph-name="J" unicode="J" horiz-adv-x="567" 
d="M176 -12q-59 0 -141 20v199q61 -23 115 -23q135 0 135 154v1096h202v-1108q0 -167 -88 -258q-80 -80 -223 -80z" />
    <glyph glyph-name="K" unicode="K" horiz-adv-x="804" 
d="M86 0v1434h203v-674l264 674h221l-266 -619l283 -815h-220l-206 590l-76 -180v-410h-203z" />
    <glyph glyph-name="L" unicode="L" horiz-adv-x="604" 
d="M86 0v1434h203v-1244h293v-190h-496z" />
    <glyph glyph-name="M" unicode="M" horiz-adv-x="991" 
d="M86 0v1434h209l201 -621l200 621h209v-1434h-194v979l-213 -633h-4l-213 633v-979h-195z" />
    <glyph glyph-name="N" unicode="N" horiz-adv-x="872" 
d="M86 0v1434h193l313 -881v881h194v-1434h-180l-325 913v-913h-195z" />
    <glyph glyph-name="O" unicode="O" horiz-adv-x="851" 
d="M426 -18q-169 0 -269 180t-100 524v62q0 344 100 524t269 180t269 -180t100 -524v-62q0 -344 -100 -524t-269 -180zM426 166q164 0 164 520v62q0 520 -164 520t-164 -520v-62q0 -520 164 -520z" />
    <glyph glyph-name="P" unicode="P" horiz-adv-x="776" 
d="M86 0v1434h209q207 0 327.5 -120.5t120.5 -352.5v-5q0 -225 -115.5 -348.5t-314.5 -134.5h-24v-473h-203zM289 659h26q104 3 165 77.5t61 213.5v4q0 146 -59 219.5t-163 73.5h-30v-588z" />
    <glyph glyph-name="Q" unicode="Q" horiz-adv-x="862" 
d="M836 74l-107 -109l-102 111q-85 -94 -197 -94q-172 0 -272.5 179.5t-100.5 524.5v62q0 344 100 524t269 180t269 -180t100 -524v-62q0 -297 -86 -487zM438 164q48 0 76 35l-131 139l100 106l84 -94q23 128 23 336v62q0 520 -164 520t-164 -520v-62q0 -149 12.5 -252.5
t36.5 -161.5t54.5 -83t72.5 -25z" />
    <glyph glyph-name="R" unicode="R" horiz-adv-x="806" 
d="M86 0v1434h233q205 0 318 -113q117 -120 117 -334v-14q0 -137 -52 -233t-141 -150l217 -590h-217l-192 524q-4 0 -13.5 -1t-13.5 -1h-53v-522h-203zM289 705h35q105 0 166 66.5t61 199.5v12q0 262 -234 262h-28v-540z" />
    <glyph glyph-name="S" unicode="S" horiz-adv-x="669" 
d="M303 -12q-132 0 -252 65v209q137 -84 230 -84q70 0 112.5 42.5t42.5 119.5q0 58 -31 121t-124 174q-97 114 -144.5 181.5t-72.5 134.5t-25 145v2q0 155 95 251.5t239 96.5q118 0 215 -51v-209q-61 37 -106 53t-93 16q-63 0 -105 -41t-42 -110q0 -57 30.5 -112.5
t126.5 -170.5q142 -169 191 -266t49 -213v-2q0 -157 -96 -254.5t-240 -97.5z" />
    <glyph glyph-name="T" unicode="T" horiz-adv-x="647" 
d="M223 0v1243h-194v191h589v-191h-194v-1243h-201z" />
    <glyph glyph-name="U" unicode="U" horiz-adv-x="845" 
d="M424 -18q-156 0 -250 107.5t-94 313.5v1031h203v-1049q0 -107 38 -161t103 -54q64 0 101.5 54t37.5 161v1049h203v-1031q0 -206 -93.5 -313.5t-248.5 -107.5z" />
    <glyph glyph-name="V" unicode="V" horiz-adv-x="782" 
d="M287 -6l-269 1440h207l170 -1037l170 1037h199l-268 -1440h-209z" />
    <glyph glyph-name="W" unicode="W" horiz-adv-x="1224" 
d="M250 -6l-227 1440h208l131 -992l158 992h187l155 -992l133 992h203l-225 -1440h-209l-154 971l-151 -971h-209z" />
    <glyph glyph-name="X" unicode="X" horiz-adv-x="782" 
d="M532 1434h209l-229 -691l246 -743h-215l-154 514l-156 -514h-208l243 739l-231 695h215l139 -476z" />
    <glyph glyph-name="Y" unicode="Y" horiz-adv-x="763" 
d="M281 0v582l-277 852h211l170 -586l170 586h205l-277 -852v-582h-202z" />
    <glyph glyph-name="Z" unicode="Z" horiz-adv-x="694" 
d="M51 0v156l373 1089h-356v189h577v-156l-373 -1090h373v-188h-594z" />
    <glyph glyph-name="bracketleft" unicode="[" horiz-adv-x="565" 
d="M137 -266v1700h367v-142h-193v-1417h193v-141h-367z" />
    <glyph glyph-name="backslash" unicode="\" horiz-adv-x="602" 
d="M451 -201l-447 1774h164l448 -1774h-165z" />
    <glyph glyph-name="bracketright" unicode="]" horiz-adv-x="565" 
d="M61 -266v141h195v1417h-195v142h367v-1700h-367z" />
    <glyph glyph-name="asciicircum" unicode="^" horiz-adv-x="901" 
d="M223 1047l148 368h159l150 -368h-135l-96 249l-97 -249h-129z" />
    <glyph glyph-name="underscore" unicode="_" horiz-adv-x="925" 
d="M-4 -313v153h934v-153h-934z" />
    <glyph glyph-name="grave" unicode="`" horiz-adv-x="1024" 
d="M532 1178l-192 202l162 86l164 -288h-134z" />
    <glyph glyph-name="a" unicode="a" horiz-adv-x="714" 
d="M256 -18q-97 0 -158 89t-61 236v31q0 170 68 258t188 88q79 0 156 -41v86q0 94 -42.5 143.5t-125.5 49.5q-87 0 -189 -52v187q106 47 215 47q155 0 244 -86q92 -92 92 -275v-743h-197v129q-66 -147 -190 -147zM330 145q51 0 85 44.5t34 113.5v197q-62 28 -107 28
q-56 0 -86.5 -46t-30.5 -134v-24q0 -88 28 -133.5t77 -45.5z" />
    <glyph glyph-name="b" unicode="b" horiz-adv-x="782" 
d="M477 -18q-50 0 -91.5 28t-65 62.5t-46.5 83.5v-156h-194v1446h194v-512q79 176 203 176q52 0 96 -29t78.5 -89.5t54 -164t19.5 -241.5v-80q0 -267 -69 -395.5t-179 -128.5zM406 166q58 0 91 91t33 257v64q0 167 -33 257.5t-91 90.5q-59 0 -96.5 -91.5t-37.5 -254.5v-68
q0 -163 37.5 -254.5t96.5 -91.5z" />
    <glyph glyph-name="c" unicode="c" horiz-adv-x="583" 
d="M389 -18q-152 0 -244 137.5t-92 398.5v51q0 258 96 397.5t244 139.5q85 0 146 -31v-201q-72 44 -125 44q-71 0 -117.5 -85t-46.5 -260v-59q0 -175 47.5 -259.5t122.5 -84.5q53 0 119 49v-194q-73 -43 -150 -43z" />
    <glyph glyph-name="d" unicode="d" horiz-adv-x="782" 
d="M305 -18q-53 0 -97 29t-78.5 89.5t-53.5 163.5t-19 242v80q0 268 68.5 396t179.5 128q38 0 70.5 -15t56.5 -42t41 -54.5t33 -62.5v510h196v-1446h-196v158q-79 -176 -201 -176zM377 166q59 0 96 91.5t37 254.5v68q0 163 -37 254.5t-96 91.5q-58 0 -91.5 -91.5
t-33.5 -256.5v-64q0 -166 33.5 -257t91.5 -91z" />
    <glyph glyph-name="e" unicode="e" horiz-adv-x="714" 
d="M416 -18q-157 0 -262 141t-105 397v43q0 258 92.5 401.5t229.5 143.5q138 0 219.5 -142.5t81.5 -402.5v-106h-428q7 -148 61 -220.5t135 -72.5q50 0 90 17.5t101 58.5l16 -183q-64 -40 -115.5 -57.5t-115.5 -17.5zM242 612h245q0 153 -30.5 237.5t-85.5 84.5
q-56 0 -90.5 -80.5t-38.5 -241.5z" />
    <glyph glyph-name="f" unicode="f" horiz-adv-x="460" 
d="M111 0v930h-80v162h80v92q0 136 67 200q66 66 191 66q36 0 82 -8v-166q-24 4 -39 4q-105 0 -105 -123v-65h139v-162h-139v-930h-196z" />
    <glyph glyph-name="g" unicode="g" horiz-adv-x="782" 
d="M338 -270q-114 0 -236 37v182q122 -47 215 -47q189 0 189 186v152q-78 -177 -203 -177q-52 0 -95.5 29.5t-78 89.5t-53.5 161.5t-19 236.5v14q0 135 19 236.5t53.5 161.5t78 89t95.5 29q126 0 203 -174v156h196v-1016q0 -166 -90 -256t-274 -90zM377 248q57 0 95 88
t38 246v10q0 157 -38 245.5t-95 88.5q-56 0 -90.5 -87.5t-34.5 -248.5v-6q0 -162 34.5 -249t90.5 -87z" />
    <glyph glyph-name="h" unicode="h" horiz-adv-x="772" 
d="M80 0v1446h194v-494q75 158 203 158q105 0 163 -81.5t58 -221.5v-807h-194v766q0 82 -28.5 126t-80.5 44q-54 0 -87.5 -47t-33.5 -127v-762h-194z" />
    <glyph glyph-name="i" unicode="i" horiz-adv-x="364" 
d="M82 1233v213h201v-213h-201zM86 0v1092h195v-1092h-195z" />
    <glyph glyph-name="j" unicode="j" horiz-adv-x="364" 
d="M82 1233v213h201v-213h-201zM39 -272q-41 0 -86 10v156q15 -3 31 -3q102 0 102 119v1082h195v-1104q0 -127 -61.5 -193.5t-180.5 -66.5z" />
    <glyph glyph-name="k" unicode="k" horiz-adv-x="710" 
d="M80 0v1446h194v-836l203 482h211l-205 -441l205 -651h-213l-135 461l-66 -146v-315h-194z" />
    <glyph glyph-name="l" unicode="l" horiz-adv-x="364" 
d="M86 0v1446h195v-1446h-195z" />
    <glyph glyph-name="m" unicode="m" horiz-adv-x="1183" 
d="M80 0v1092h194v-138q78 156 201 156q127 0 193 -143q90 143 209 143q100 0 166.5 -80t66.5 -223v-807h-195v766q0 83 -27.5 126.5t-78.5 43.5q-52 0 -84.5 -47t-32.5 -127v-762h-194v766q0 83 -28 126.5t-79 43.5q-52 0 -84.5 -47t-32.5 -127v-762h-194z" />
    <glyph glyph-name="n" unicode="n" horiz-adv-x="772" 
d="M80 0v1092h194v-140q75 158 203 158q105 0 163 -81.5t58 -221.5v-807h-194v766q0 82 -28.5 126t-80.5 44q-54 0 -87.5 -47t-33.5 -127v-762h-194z" />
    <glyph glyph-name="o" unicode="o" horiz-adv-x="763" 
d="M383 -18q-145 0 -237.5 141.5t-92.5 394.5v51q0 253 93 396t237 143t237 -143t93 -396v-51q0 -253 -92.5 -394.5t-237.5 -141.5zM383 156q60 0 96.5 94.5t36.5 265.5v57q0 173 -36.5 267t-96.5 94q-62 0 -98.5 -94t-36.5 -267v-57q0 -171 37 -265.5t98 -94.5z" />
    <glyph glyph-name="p" unicode="p" horiz-adv-x="782" 
d="M80 -266v1358h194v-158q79 176 203 176q52 0 96 -29t78.5 -89.5t54 -164t19.5 -241.5v-80q0 -267 -69 -395.5t-179 -128.5q-50 0 -91.5 28t-65 62.5t-46.5 83.5v-422h-194zM406 166q58 0 91 91t33 257v64q0 167 -33 257.5t-91 90.5q-59 0 -96.5 -91.5t-37.5 -254.5v-68
q0 -163 37.5 -254.5t96.5 -91.5z" />
    <glyph glyph-name="q" unicode="q" horiz-adv-x="782" 
d="M506 -266v424q-79 -176 -201 -176q-53 0 -97 29t-78.5 89.5t-53.5 163.5t-19 242v80q0 268 68.5 396t179.5 128q38 0 70.5 -15t56.5 -42t41 -54.5t33 -62.5v156h196v-1358h-196zM377 166q59 0 96 91.5t37 254.5v68q0 163 -37 254.5t-96 91.5q-58 0 -91.5 -91.5
t-33.5 -256.5v-64q0 -166 33.5 -257t91.5 -91z" />
    <glyph glyph-name="r" unicode="r" horiz-adv-x="501" 
d="M80 0v1092h194v-144q61 164 199 156v-232h-4q-93 0 -144 -61.5t-51 -183.5v-627h-194z" />
    <glyph glyph-name="s" unicode="s" horiz-adv-x="579" 
d="M260 -18q-106 0 -221 51v194q128 -69 211 -69q52 0 82 29t30 81q0 43 -28.5 87.5t-108.5 121.5q-101 99 -146.5 176.5t-45.5 169.5v4q0 127 81 203t210 76q98 0 178 -31v-192q-92 47 -170 47q-51 0 -81 -27t-30 -72q0 -41 27.5 -80.5t116.5 -125.5q104 -103 145 -180
t41 -169v-4q0 -131 -83.5 -210.5t-207.5 -79.5z" />
    <glyph glyph-name="t" unicode="t" horiz-adv-x="487" 
d="M326 -12q-99 0 -157 44t-58 154v744h-78v162h78v286h194v-286h141v-162h-141v-682q0 -84 80 -84q34 0 61 12v-160q-54 -28 -120 -28z" />
    <glyph glyph-name="u" unicode="u" horiz-adv-x="772" 
d="M295 -18q-104 0 -162.5 81.5t-58.5 219.5v809h194v-766q0 -82 28.5 -126t80.5 -44q54 0 87.5 47t33.5 127v762h194v-1092h-194v139q-75 -157 -203 -157z" />
    <glyph glyph-name="v" unicode="v" horiz-adv-x="733" 
d="M270 -4l-239 1096h194l144 -779l143 779h190l-237 -1096h-195z" />
    <glyph glyph-name="w" unicode="w" horiz-adv-x="1081" 
d="M233 -4l-198 1096h198l111 -723l121 723h156l120 -723l113 723h193l-199 -1096h-182l-125 702l-123 -702h-185z" />
    <glyph glyph-name="x" unicode="x" horiz-adv-x="700" 
d="M229 1092l123 -371l121 371h199l-203 -531l213 -561h-207l-127 399l-127 -399h-203l211 561l-202 531h202z" />
    <glyph glyph-name="y" unicode="y" horiz-adv-x="731" 
d="M362 362l146 730h190l-309 -1358h-188l67 297l-235 1061h192z" />
    <glyph glyph-name="z" unicode="z" horiz-adv-x="593" 
d="M33 0v135l319 791h-305v166h514v-138l-319 -788h317v-166h-526z" />
    <glyph glyph-name="braceleft" unicode="{" horiz-adv-x="610" 
d="M553 -287q-177 6 -265.5 90.5t-88.5 223.5q0 55 31.5 151.5t31.5 161.5q0 76 -47.5 124t-134.5 48h-33v156h33q85 0 133.5 48t48.5 122q0 66 -31.5 164t-31.5 157q0 132 89 216.5t265 88.5v-133q-77 -2 -128.5 -48t-51.5 -122q0 -65 33.5 -162.5t33.5 -158.5
q0 -100 -61 -167.5t-168 -82.5q108 -19 168.5 -85t60.5 -167q0 -59 -33.5 -157t-33.5 -165q0 -76 51 -121t129 -47v-135z" />
    <glyph glyph-name="bar" unicode="|" horiz-adv-x="489" 
d="M168 -201v1774h156v-1774h-156z" />
    <glyph glyph-name="braceright" unicode="}" horiz-adv-x="610" 
d="M57 -287v135q77 2 129 47.5t52 122.5q0 66 -35 163t-35 157q0 101 61.5 169t167.5 83q-106 17 -167.5 84t-61.5 168q0 60 35 157t35 162q0 76 -52.5 122t-128.5 48v133q176 -4 265.5 -88.5t89.5 -222.5q0 -55 -32 -151.5t-32 -161.5q0 -77 47 -124.5t135 -47.5h33v-156
h-33q-85 0 -133.5 -48t-48.5 -124q0 -64 32 -162t32 -158q0 -132 -90 -216.5t-265 -90.5z" />
    <glyph glyph-name="asciitilde" unicode="~" horiz-adv-x="710" 
d="M471 518q-61 0 -127 51q-31 24 -49 33.5t-39 9.5q-46 0 -72 -98l-100 31q13 101 58 153t98 52q62 0 127 -54q20 -15 31 -22.5t25.5 -13t29.5 -5.5q47 0 71 97l103 -31q-13 -100 -58 -151.5t-98 -51.5z" />
    <glyph glyph-name="uni00A0" unicode="&#xa0;" horiz-adv-x="329" 
 />
    <glyph glyph-name="exclamdown" unicode="&#xa1;" horiz-adv-x="436" 
d="M100 1184v250h236v-250h-236zM98 0v72l70 938h100l70 -938v-72h-240z" />
    <glyph glyph-name="cent" unicode="&#xa2;" horiz-adv-x="608" 
d="M422 1442v-162q63 -3 121 -31v-200q-74 45 -131 45q-156 0 -156 -344v-62q0 -342 158 -342q58 0 131 49v-192q-68 -38 -123 -43v-172h-135v186q-109 39 -169.5 170t-60.5 348v53q0 213 61.5 344.5t168.5 172.5v180h135z" />
    <glyph glyph-name="sterling" unicode="&#xa3;" horiz-adv-x="700" 
d="M51 0v129l101 45v428h-99v182h99v265q0 213 102 315q89 86 227 86q72 0 146 -20v-197q-58 20 -113 20q-70 0 -111 -41q-49 -49 -49 -161v-267h215v-182h-215v-420h318v-182h-621z" />
    <glyph glyph-name="yen" unicode="&#xa5;" horiz-adv-x="786" 
d="M111 526v154h147l-240 754h203l174 -627l174 627h201l-242 -754h148v-154h-184v-147h184v-154h-184v-225h-197v225h-184v154h184v147h-184z" />
    <glyph glyph-name="section" unicode="&#xa7;" horiz-adv-x="806" 
d="M582 446q82 -79 82 -188v-4q0 -121 -84 -196.5t-215 -75.5q-103 0 -187 34v189q100 -47 178 -47q54 0 85.5 27.5t31.5 68.5v4q0 46 -37.5 81t-148.5 99q-130 74 -189 137t-59 160v4q0 75 48.5 141.5t141.5 106.5q-84 78 -84 189v4q0 121 84 196.5t217 75.5q98 0 185 -35
v-186q-96 45 -176 45q-55 0 -87 -27.5t-32 -68.5v-4q0 -46 38 -81.5t148 -99.5q65 -37 104 -64t76 -63t53.5 -77.5t16.5 -92.5v-4q0 -75 -49 -141.5t-141 -106.5zM479 532q103 58 103 140v4q0 45 -42 88t-171 115l-39 22q-103 -58 -103 -139v-4q0 -45 42 -88t171 -115z" />
    <glyph glyph-name="dieresis" unicode="&#xa8;" horiz-adv-x="1024" 
d="M555 1188v196h180v-196h-180zM289 1188v196h180v-196h-180z" />
    <glyph glyph-name="copyright" unicode="&#xa9;" horiz-adv-x="1069" 
d="M535 -20q-217 0 -351.5 194.5t-134.5 507.5v70q0 315 134.5 508.5t351.5 193.5q218 0 351.5 -193.5t133.5 -508.5v-70q0 -314 -133.5 -508t-351.5 -194zM535 47q192 0 303.5 175t111.5 458v74q0 186 -49 329t-143.5 224.5t-222.5 81.5t-223 -81.5t-144 -224.5t-49 -329
v-74q0 -283 112 -458t304 -175zM555 309q-98 0 -158.5 98.5t-60.5 294.5v33q0 196 63 293.5t164 97.5q53 0 90 -18v-127q-52 27 -78 27q-118 0 -118 -271v-39q0 -270 118 -270q35 0 80 29v-121q-47 -27 -100 -27z" />
    <glyph glyph-name="ordfeminine" unicode="&#xaa;" horiz-adv-x="512" 
d="M201 823q-53 0 -87 49.5t-34 131.5v16q0 94 37 142t102 48q38 0 84 -22v43q0 49 -23.5 75.5t-66.5 26.5t-104 -28v108q59 27 124 27q97 0 144 -62q39 -51 39 -139v-405h-115v67q-40 -78 -100 -78zM72 631v86h368v-86h-368zM242 922q25 0 43 23.5t18 60.5v100
q-33 14 -55 14q-28 0 -44 -24.5t-16 -69.5v-12q0 -92 54 -92z" />
    <glyph glyph-name="guillemotleft" unicode="&#xab;" horiz-adv-x="860" 
d="M672 88l-283 444v17l283 444l135 -78l-205 -372l209 -373zM334 88l-281 444v17l281 444l135 -78l-205 -372l209 -373z" />
    <glyph glyph-name="registered" unicode="&#xae;" horiz-adv-x="638" 
d="M319 727q-116 0 -188 98t-72 256v33q0 158 72 256t188 98t188.5 -98t72.5 -256v-33q0 -158 -72.5 -256t-188.5 -98zM319 772q98 0 155.5 86t57.5 223v33q0 138 -57.5 224.5t-155.5 86.5t-155.5 -86.5t-57.5 -224.5v-33q0 -137 57.5 -223t155.5 -86zM225 907v393h80
q59 0 92 -32t33 -90v-4q0 -75 -55 -107l63 -160h-67l-56 140h-28v-140h-62zM287 1104h18q27 0 44.5 18t17.5 52v2q0 65 -62 65h-18v-137z" />
    <glyph glyph-name="macron" unicode="&#xaf;" horiz-adv-x="1024" 
d="M291 1190v135h442v-135h-442z" />
    <glyph glyph-name="degree" unicode="&#xb0;" horiz-adv-x="544" 
d="M272 766q-99 0 -160 90t-61 240v22q0 149 61 239.5t160 90.5t160.5 -91t61.5 -239v-22q0 -150 -61.5 -240t-160.5 -90zM272 897q90 0 90 199v22q0 100 -24 149.5t-66 49.5q-40 0 -64 -49.5t-24 -149.5v-22q0 -101 24 -150t64 -49z" />
    <glyph glyph-name="plusminus" unicode="&#xb1;" horiz-adv-x="753" 
d="M705 627h-236v-252h-182v252h-238v188h238v252h182v-252h236v-188zM702 59h-649v179h649v-179z" />
    <glyph glyph-name="two.sup" unicode="&#xb2;" 
d="M55 946v105l178 264q38 60 53 91t15 60q0 37 -23 58.5t-59 21.5q-69 0 -147 -84v137q76 72 170 72q86 0 140 -50t54 -138q0 -87 -78 -201l-141 -211h217v-125h-379z" />
    <glyph glyph-name="three.sup" unicode="&#xb3;" 
d="M215 936q-90 0 -154 51v127q24 -24 63 -40.5t77 -16.5q50 0 80 26t30 76q0 100 -172 103h-4v90l144 188h-216v121h375v-96l-166 -205q77 -16 123.5 -65t46.5 -134q0 -103 -63.5 -164t-163.5 -61z" />
    <glyph glyph-name="acute" unicode="&#xb4;" horiz-adv-x="1024" 
d="M342 1178l162 288l162 -86l-191 -202h-133z" />
    <glyph glyph-name="mu" unicode="&#xb5;" horiz-adv-x="827" 
d="M817 168v-156q-55 -22 -119 -22q-109 0 -143 106q-45 -108 -139 -108q-106 0 -158 137h-4q18 -106 18 -250v-141h-192v1358h194v-756q0 -82 32 -127t87 -45q53 0 85 45.5t32 126.5v756h195v-859q1 -40 16.5 -55.5t50.5 -15.5q24 0 45 6z" />
    <glyph glyph-name="paragraph" unicode="&#xb6;" horiz-adv-x="716" 
d="M420 0v479q-167 11 -277 134.5t-110 342.5v5q0 121 34.5 213t96.5 148t143 84t180 28h136v-1434h-203z" />
    <glyph glyph-name="periodcentered" unicode="&#xb7;" horiz-adv-x="405" 
d="M84 502v250h238v-250h-238z" />
    <glyph glyph-name="cedilla" unicode="&#xb8;" horiz-adv-x="1024" 
d="M504 -250l-172 66l141 219h127z" />
    <glyph glyph-name="one.sup" unicode="&#xb9;" horiz-adv-x="399" 
d="M291 946h-135v576l-117 -58v129l151 72h101v-719z" />
    <glyph glyph-name="ordmasculine" unicode="&#xba;" horiz-adv-x="512" 
d="M256 823q-83 0 -132.5 77.5t-49.5 215.5v33q0 138 49.5 215.5t132.5 77.5t132.5 -77.5t49.5 -215.5v-33q0 -138 -49.5 -215.5t-132.5 -77.5zM80 631v86h354v-86h-354zM256 924q68 0 68 192v35q0 190 -68 190t-68 -190v-35q0 -192 68 -192z" />
    <glyph glyph-name="guillemotright" unicode="&#xbb;" horiz-adv-x="860" 
d="M526 88l-137 78l207 373l-211 372l141 82l281 -444v-17zM188 88l-135 78l205 373l-209 372l139 82l281 -444v-17z" />
    <glyph glyph-name="onequarter" unicode="&#xbc;" horiz-adv-x="1013" 
d="M297 719h-135v575l-117 -57v131l152 70h100v-719zM143 0l303 741l275 693h110l-303 -742l-274 -692h-111zM901 135v-135h-117v135h-252v111l199 473h170v-471h60v-113h-60zM788 248v317h-12l-133 -317h145z" />
    <glyph glyph-name="onehalf" unicode="&#xbd;" horiz-adv-x="1013" 
d="M563 0v104l178 265q38 60 53 91t15 60q0 37 -23 58.5t-59 21.5q-69 0 -147 -84v137q76 72 170 72q86 0 140 -50t54 -138q0 -87 -78 -201l-141 -211h217v-125h-379zM297 719h-135v575l-117 -57v131l152 70h100v-719zM104 0l304 741l274 693h111l-304 -742l-274 -692h-111z
" />
    <glyph glyph-name="threequarters" unicode="&#xbe;" horiz-adv-x="1105" 
d="M217 711q-92 0 -154 49v127q24 -24 63 -41t77 -17q49 0 79.5 27t30.5 76q0 99 -172 102h-4v90l144 189h-215v121h374v-97l-166 -204q170 -36 170 -197q0 -104 -63.5 -164.5t-163.5 -60.5zM238 0l303 741l274 693h111l-303 -742l-275 -692h-110zM1006 135v-135h-117v135
h-252v111l199 473h170v-471h59v-113h-59zM893 248v317h-12l-133 -317h145z" />
    <glyph glyph-name="questiondown" unicode="&#xbf;" horiz-adv-x="645" 
d="M252 1184v250h233v-250h-233zM385 -10q-153 0 -250.5 101.5t-97.5 256.5v17q0 264 248 378l24 267h131l21 -359l-10 -10q-215 -76 -215 -268v-4q0 -85 53.5 -139t132.5 -54q90 0 180 51v-184q-104 -53 -217 -53z" />
    <glyph glyph-name="Agrave" unicode="&#xc0;" horiz-adv-x="823" 
d="M18 0l285 1438h217l285 -1438h-205l-57 319h-271l-57 -319h-197zM303 502h209l-104 575zM498 1520h-146l-190 159l174 86z" />
    <glyph glyph-name="Aacute" unicode="&#xc1;" horiz-adv-x="823" 
d="M18 0l285 1438h217l285 -1438h-205l-57 319h-271l-57 -319h-197zM303 502h209l-104 575zM328 1520l161 245l175 -86l-191 -159h-145z" />
    <glyph glyph-name="Acircumflex" unicode="&#xc2;" horiz-adv-x="823" 
d="M18 0l285 1438h217l285 -1438h-205l-57 319h-271l-57 -319h-197zM303 502h209l-104 575zM180 1518l150 229h164l149 -229h-143l-90 104l-91 -104h-139z" />
    <glyph glyph-name="Atilde" unicode="&#xc3;" horiz-adv-x="823" 
d="M18 0l285 1438h217l285 -1438h-205l-57 319h-271l-57 -319h-197zM303 502h209l-104 575zM532 1518q-40 0 -120 41q-63 34 -84 34q-20 0 -32 -17t-24 -60l-118 28q20 105 53 151t88 46q50 0 127 -43q60 -31 78 -31q20 0 31.5 17t23.5 61l119 -31q-20 -103 -53.5 -149.5
t-88.5 -46.5z" />
    <glyph glyph-name="Adieresis" unicode="&#xc4;" horiz-adv-x="823" 
d="M18 0l285 1438h217l285 -1438h-205l-57 319h-271l-57 -319h-197zM303 502h209l-104 575zM459 1530v192h184v-192h-184zM180 1530v192h185v-192h-185z" />
    <glyph glyph-name="Aring" unicode="&#xc5;" horiz-adv-x="823" 
d="M18 0l273 1378q-51 48 -51 121q0 70 51 118t123 48q71 0 121.5 -48t50.5 -118q0 -73 -56 -123l275 -1376h-205l-57 319h-271l-57 -319h-197zM303 502h209l-104 575zM412 1411q37 0 61.5 25t24.5 63q0 37 -24.5 61.5t-61.5 24.5t-60.5 -24.5t-23.5 -61.5q0 -38 23.5 -63
t60.5 -25z" />
    <glyph glyph-name="AE" unicode="&#xc6;" horiz-adv-x="1103" 
d="M-6 0l385 1434h668v-191h-328v-426h293v-190h-293v-437h334v-190h-537v319h-246l-80 -319h-196zM313 502h203v727h-18z" />
    <glyph glyph-name="Ccedilla" unicode="&#xc7;" horiz-adv-x="684" 
d="M401 -250l-172 66l123 188q-136 45 -215.5 217t-79.5 473v45q0 145 21 263.5t58.5 199.5t89.5 136t112 80.5t129 25.5q89 0 156 -33v-209q-74 45 -140 45q-49 0 -87.5 -27.5t-69.5 -85t-47.5 -157.5t-16.5 -236v-49q0 -506 223 -506q68 0 142 45v-200q-63 -35 -146 -41z
" />
    <glyph glyph-name="Egrave" unicode="&#xc8;" horiz-adv-x="673" 
d="M440 1509h-145l-191 160l175 86zM86 0v1434h530v-191h-327v-426h293v-190h-293v-437h334v-190h-537z" />
    <glyph glyph-name="Eacute" unicode="&#xc9;" horiz-adv-x="673" 
d="M270 1509l162 246l174 -86l-190 -160h-146zM86 0v1434h530v-191h-327v-426h293v-190h-293v-437h334v-190h-537z" />
    <glyph glyph-name="Ecircumflex" unicode="&#xca;" horiz-adv-x="673" 
d="M86 0v1434h530v-191h-327v-426h293v-190h-293v-437h334v-190h-537zM123 1511l149 230h164l150 -230h-144l-90 105l-90 -105h-139z" />
    <glyph glyph-name="Edieresis" unicode="&#xcb;" horiz-adv-x="673" 
d="M401 1520v192h185v-192h-185zM123 1520v192h184v-192h-184zM86 0v1434h530v-191h-327v-426h293v-190h-293v-437h334v-190h-537z" />
    <glyph glyph-name="Igrave" unicode="&#xcc;" horiz-adv-x="389" 
d="M94 0v1434h201v-1434h-201zM281 1509h-146l-190 160l174 86z" />
    <glyph glyph-name="Iacute" unicode="&#xcd;" horiz-adv-x="389" 
d="M94 0v1434h201v-1434h-201zM111 1509l161 246l174 -86l-190 -160h-145z" />
    <glyph glyph-name="Icircumflex" unicode="&#xce;" horiz-adv-x="389" 
d="M94 0v1434h201v-1434h-201zM-37 1511l150 230h163l150 -230h-143l-90 105l-91 -105h-139z" />
    <glyph glyph-name="Idieresis" unicode="&#xcf;" horiz-adv-x="389" 
d="M94 0v1434h201v-1434h-201zM242 1520v192h184v-192h-184zM-37 1520v192h184v-192h-184z" />
    <glyph glyph-name="Eth" unicode="&#xd0;" horiz-adv-x="862" 
d="M16 647v148h84v639h215q231 0 360.5 -177.5t129.5 -517.5v-45q0 -340 -129.5 -517t-360.5 -177h-215v647h-84zM600 694v45q0 264 -73 387t-193 123h-31v-454h131v-148h-131v-463h33q57 0 103.5 28t83.5 86.5t57 159t20 236.5z" />
    <glyph glyph-name="Ntilde" unicode="&#xd1;" horiz-adv-x="872" 
d="M557 1497q-41 0 -121 41q-65 35 -84 35t-30.5 -17.5t-24.5 -60.5l-119 29q20 105 53 150.5t88 45.5q50 0 127 -43q58 -30 78 -30t32 17t24 60l118 -30q-20 -104 -53 -150.5t-88 -46.5zM86 0v1434h193l313 -881v881h194v-1434h-180l-325 913v-913h-195z" />
    <glyph glyph-name="Ograve" unicode="&#xd2;" horiz-adv-x="851" 
d="M512 1520h-145l-191 159l174 86zM426 -18q-169 0 -269 180t-100 524v62q0 344 100 524t269 180t269 -180t100 -524v-62q0 -344 -100 -524t-269 -180zM426 166q164 0 164 520v62q0 520 -164 520t-164 -520v-62q0 -520 164 -520z" />
    <glyph glyph-name="Oacute" unicode="&#xd3;" horiz-adv-x="851" 
d="M340 1520l162 245l174 -86l-191 -159h-145zM426 -18q-169 0 -269 180t-100 524v62q0 344 100 524t269 180t269 -180t100 -524v-62q0 -344 -100 -524t-269 -180zM426 166q164 0 164 520v62q0 520 -164 520t-164 -520v-62q0 -520 164 -520z" />
    <glyph glyph-name="Ocircumflex" unicode="&#xd4;" horiz-adv-x="851" 
d="M426 -18q-169 0 -269 180t-100 524v62q0 344 100 524t269 180t269 -180t100 -524v-62q0 -344 -100 -524t-269 -180zM426 166q164 0 164 520v62q0 520 -164 520t-164 -520v-62q0 -520 164 -520zM195 1522l149 229h164l149 -229h-143l-90 104l-90 -104h-139z" />
    <glyph glyph-name="Otilde" unicode="&#xd5;" horiz-adv-x="851" 
d="M547 1518q-41 0 -121 41q-63 34 -84 34q-20 0 -31 -17t-24 -60l-119 28q20 105 53 151t88 46q50 0 127 -43q60 -31 78 -31q20 0 31.5 17t23.5 61l119 -31q-20 -104 -53 -150t-88 -46zM426 -18q-169 0 -269 180t-100 524v62q0 344 100 524t269 180t269 -180t100 -524v-62
q0 -344 -100 -524t-269 -180zM426 166q164 0 164 520v62q0 520 -164 520t-164 -520v-62q0 -520 164 -520z" />
    <glyph glyph-name="Odieresis" unicode="&#xd6;" horiz-adv-x="851" 
d="M473 1530v192h184v-192h-184zM195 1530v192h184v-192h-184zM426 -18q-169 0 -269 180t-100 524v62q0 344 100 524t269 180t269 -180t100 -524v-62q0 -344 -100 -524t-269 -180zM426 166q164 0 164 520v62q0 520 -164 520t-164 -520v-62q0 -520 164 -520z" />
    <glyph glyph-name="multiply" unicode="&#xd7;" horiz-adv-x="753" 
d="M557 379l-180 209l-182 -209l-142 115l205 227l-205 227l144 115l180 -209l182 209l141 -115l-204 -227l204 -227z" />
    <glyph glyph-name="Oslash" unicode="&#xd8;" horiz-adv-x="851" 
d="M662 1446h124l-81 -195q90 -185 90 -503v-62q0 -344 -100 -524t-269 -180q-117 0 -203 86l-33 -80h-124l79 194q-88 187 -88 504v62q0 344 100 524t269 180q119 0 201 -88zM258 686q0 -134 8 -213l281 678q-42 121 -121 121q-37 0 -67 -28.5t-53 -89t-35.5 -163.5
t-12.5 -243v-62zM426 162q37 0 67 28.5t53 89t35.5 163.5t12.5 243v62q0 112 -10 210l-281 -675q45 -121 123 -121z" />
    <glyph glyph-name="Ugrave" unicode="&#xd9;" horiz-adv-x="845" 
d="M508 1499h-146l-190 160l174 86zM424 -18q-156 0 -250 107.5t-94 313.5v1031h203v-1049q0 -107 38 -161t103 -54q64 0 101.5 54t37.5 161v1049h203v-1031q0 -206 -93.5 -313.5t-248.5 -107.5z" />
    <glyph glyph-name="Uacute" unicode="&#xda;" horiz-adv-x="845" 
d="M340 1499l162 246l174 -86l-191 -160h-145zM424 -18q-156 0 -250 107.5t-94 313.5v1031h203v-1049q0 -107 38 -161t103 -54q64 0 101.5 54t37.5 161v1049h203v-1031q0 -206 -93.5 -313.5t-248.5 -107.5z" />
    <glyph glyph-name="Ucircumflex" unicode="&#xdb;" horiz-adv-x="845" 
d="M424 -18q-156 0 -250 107.5t-94 313.5v1031h203v-1049q0 -107 38 -161t103 -54q64 0 101.5 54t37.5 161v1049h203v-1031q0 -206 -93.5 -313.5t-248.5 -107.5zM193 1501l149 230h164l149 -230h-143l-90 105l-90 -105h-139z" />
    <glyph glyph-name="Udieresis" unicode="&#xdc;" horiz-adv-x="845" 
d="M471 1509v193h184v-193h-184zM193 1509v193h184v-193h-184zM424 -18q-156 0 -250 107.5t-94 313.5v1031h203v-1049q0 -107 38 -161t103 -54q64 0 101.5 54t37.5 161v1049h203v-1031q0 -206 -93.5 -313.5t-248.5 -107.5z" />
    <glyph glyph-name="Yacute" unicode="&#xdd;" horiz-adv-x="763" 
d="M281 0v582l-277 852h211l170 -586l170 586h205l-277 -852v-582h-202zM299 1499l162 246l174 -86l-191 -160h-145z" />
    <glyph glyph-name="Thorn" unicode="&#xde;" horiz-adv-x="776" 
d="M86 0v1434h203v-213h26q85 0 160.5 -28t136 -83t96 -148t35.5 -212v-5q0 -226 -115.5 -350t-314.5 -133h-24v-262h-203zM289 446h26q105 5 165.5 79t60.5 214v4q0 144 -59 217.5t-163 73.5h-30v-588z" />
    <glyph glyph-name="germandbls" unicode="&#xdf;" horiz-adv-x="800" 
d="M381 -4v168q178 17 178 242v6q0 214 -178 256v145q145 73 145 270v11q0 88 -32.5 136t-90.5 48q-62 0 -95.5 -61t-33.5 -173v-1044h-194v1036q0 190 87 302t243 112q141 0 223 -94.5t82 -237.5v-14q0 -236 -178 -342q217 -93 217 -346v-15q0 -185 -96 -292t-277 -113z
" />
    <glyph glyph-name="agrave" unicode="&#xe0;" horiz-adv-x="714" 
d="M256 -18q-97 0 -158 89t-61 236v31q0 170 68 258t188 88q79 0 156 -41v86q0 94 -42.5 143.5t-125.5 49.5q-87 0 -189 -52v187q106 47 215 47q155 0 244 -86q92 -92 92 -275v-743h-197v129q-66 -147 -190 -147zM330 145q51 0 85 44.5t34 113.5v197q-62 28 -107 28
q-56 0 -86.5 -46t-30.5 -134v-24q0 -88 28 -133.5t77 -45.5zM299 1184l-193 202l162 87l164 -289h-133z" />
    <glyph glyph-name="aacute" unicode="&#xe1;" horiz-adv-x="714" 
d="M256 -18q-97 0 -158 89t-61 236v31q0 170 68 258t188 88q79 0 156 -41v86q0 94 -42.5 143.5t-125.5 49.5q-87 0 -189 -52v187q106 47 215 47q155 0 244 -86q92 -92 92 -275v-743h-197v129q-66 -147 -190 -147zM330 145q51 0 85 44.5t34 113.5v197q-62 28 -107 28
q-56 0 -86.5 -46t-30.5 -134v-24q0 -88 28 -133.5t77 -45.5zM274 1184l162 289l162 -87l-190 -202h-134z" />
    <glyph glyph-name="acircumflex" unicode="&#xe2;" horiz-adv-x="714" 
d="M256 -18q-97 0 -158 89t-61 236v31q0 170 68 258t188 88q79 0 156 -41v86q0 94 -42.5 143.5t-125.5 49.5q-87 0 -189 -52v187q106 47 215 47q155 0 244 -86q92 -92 92 -275v-743h-197v129q-66 -147 -190 -147zM330 145q51 0 85 44.5t34 113.5v197q-62 28 -107 28
q-56 0 -86.5 -46t-30.5 -134v-24q0 -88 28 -133.5t77 -45.5zM125 1188l154 274h147l154 -274h-134l-96 135l-96 -135h-129z" />
    <glyph glyph-name="atilde" unicode="&#xe3;" horiz-adv-x="714" 
d="M256 -18q-97 0 -158 89t-61 236v31q0 170 68 258t188 88q79 0 156 -41v86q0 94 -42.5 143.5t-125.5 49.5q-87 0 -189 -52v187q106 47 215 47q155 0 244 -86q92 -92 92 -275v-743h-197v129q-66 -147 -190 -147zM330 145q51 0 85 44.5t34 113.5v197q-62 28 -107 28
q-56 0 -86.5 -46t-30.5 -134v-24q0 -88 28 -133.5t77 -45.5zM473 1184q-41 0 -121 45q-53 35 -80 35q-21 0 -32.5 -18t-24.5 -64l-113 26q20 107 52 153t86 46q46 0 120 -45q53 -35 80 -35q22 0 33.5 18t24.5 66l112 -29q-20 -106 -51.5 -152t-85.5 -46z" />
    <glyph glyph-name="adieresis" unicode="&#xe4;" horiz-adv-x="714" 
d="M256 -18q-97 0 -158 89t-61 236v31q0 170 68 258t188 88q79 0 156 -41v86q0 94 -42.5 143.5t-125.5 49.5q-87 0 -189 -52v187q106 47 215 47q155 0 244 -86q92 -92 92 -275v-743h-197v129q-66 -147 -190 -147zM330 145q51 0 85 44.5t34 113.5v197q-62 28 -107 28
q-56 0 -86.5 -46t-30.5 -134v-24q0 -88 28 -133.5t77 -45.5zM395 1194v197h180v-197h-180zM129 1194v197h180v-197h-180z" />
    <glyph glyph-name="aring" unicode="&#xe5;" horiz-adv-x="714" 
d="M256 -18q-97 0 -158 89t-61 236v31q0 170 68 258t188 88q79 0 156 -41v86q0 94 -42.5 143.5t-125.5 49.5q-87 0 -189 -52v187q106 47 215 47q155 0 244 -86q92 -92 92 -275v-743h-197v129q-66 -147 -190 -147zM330 145q51 0 85 44.5t34 113.5v197q-62 28 -107 28
q-56 0 -86.5 -46t-30.5 -134v-24q0 -88 28 -133.5t77 -45.5zM352 1176q-73 0 -123.5 51t-50.5 127t50.5 127t123.5 51t123.5 -51t50.5 -127q0 -75 -51 -126.5t-123 -51.5zM352 1257q37 0 61.5 28t24.5 69t-24.5 69.5t-61.5 28.5t-61.5 -28.5t-24.5 -69.5t24.5 -69t61.5 -28z
" />
    <glyph glyph-name="ae" unicode="&#xe6;" horiz-adv-x="1107" 
d="M279 -18q-112 0 -177 88t-65 237v31q0 170 68 258t188 88q79 0 156 -41v86q0 94 -43 143.5t-125 49.5q-80 0 -189 -52v187q106 47 221 47q175 0 246 -139q35 69 87.5 106t115.5 37q139 0 221 -142t82 -403v-106h-430q9 -148 63 -220.5t133 -72.5q51 0 92 17.5t99 58.5
l16 -183q-65 -40 -115.5 -57.5t-115.5 -17.5q-95 0 -170 55.5t-119 161.5q-29 -96 -91.5 -156.5t-147.5 -60.5zM635 612h246q0 153 -31 237.5t-88 84.5q-56 0 -90 -81t-37 -241zM338 145q46 0 85.5 49.5t59.5 131.5q-16 85 -16 170q-66 32 -125 32q-56 0 -86.5 -46
t-30.5 -134v-24q0 -87 29.5 -133t83.5 -46z" />
    <glyph glyph-name="ccedilla" unicode="&#xe7;" horiz-adv-x="583" 
d="M336 -250l-172 66l119 184q-107 43 -168.5 174t-61.5 344v51q0 258 96 397.5t244 139.5q85 0 146 -31v-201q-72 44 -125 44q-71 0 -117.5 -85t-46.5 -260v-59q0 -175 47.5 -259.5t122.5 -84.5q53 0 119 49v-194q-61 -36 -125 -41z" />
    <glyph glyph-name="egrave" unicode="&#xe8;" horiz-adv-x="714" 
d="M416 -18q-157 0 -262 141t-105 397v43q0 258 92.5 401.5t229.5 143.5q138 0 219.5 -142.5t81.5 -402.5v-106h-428q7 -148 61 -220.5t135 -72.5q50 0 90 17.5t101 58.5l16 -183q-64 -40 -115.5 -57.5t-115.5 -17.5zM242 612h245q0 153 -30.5 237.5t-85.5 84.5
q-56 0 -90.5 -80.5t-38.5 -241.5zM313 1184l-192 202l162 87l163 -289h-133z" />
    <glyph glyph-name="eacute" unicode="&#xe9;" horiz-adv-x="714" 
d="M291 1184l162 289l161 -87l-190 -202h-133zM416 -18q-157 0 -262 141t-105 397v43q0 258 92.5 401.5t229.5 143.5q138 0 219.5 -142.5t81.5 -402.5v-106h-428q7 -148 61 -220.5t135 -72.5q50 0 90 17.5t101 58.5l16 -183q-64 -40 -115.5 -57.5t-115.5 -17.5zM242 612h245
q0 153 -30.5 237.5t-85.5 84.5q-56 0 -90.5 -80.5t-38.5 -241.5z" />
    <glyph glyph-name="ecircumflex" unicode="&#xea;" horiz-adv-x="714" 
d="M141 1188l154 274h147l154 -274h-133l-96 135l-97 -135h-129zM416 -18q-157 0 -262 141t-105 397v43q0 258 92.5 401.5t229.5 143.5q138 0 219.5 -142.5t81.5 -402.5v-106h-428q7 -148 61 -220.5t135 -72.5q50 0 90 17.5t101 58.5l16 -183q-64 -40 -115.5 -57.5
t-115.5 -17.5zM242 612h245q0 153 -30.5 237.5t-85.5 84.5q-56 0 -90.5 -80.5t-38.5 -241.5z" />
    <glyph glyph-name="edieresis" unicode="&#xeb;" horiz-adv-x="714" 
d="M412 1194v197h180v-197h-180zM145 1194v197h181v-197h-181zM416 -18q-157 0 -262 141t-105 397v43q0 258 92.5 401.5t229.5 143.5q138 0 219.5 -142.5t81.5 -402.5v-106h-428q7 -148 61 -220.5t135 -72.5q50 0 90 17.5t101 58.5l16 -183q-64 -40 -115.5 -57.5
t-115.5 -17.5zM242 612h245q0 153 -30.5 237.5t-85.5 84.5q-56 0 -90.5 -80.5t-38.5 -241.5z" />
    <glyph glyph-name="igrave" unicode="&#xec;" horiz-adv-x="364" 
d="M86 0v1092h195v-1092h-195zM129 1178l-192 202l161 86l164 -288h-133z" />
    <glyph glyph-name="iacute" unicode="&#xed;" horiz-adv-x="364" 
d="M104 1178l162 288l162 -86l-190 -202h-134zM86 0v1092h195v-1092h-195z" />
    <glyph glyph-name="icircumflex" unicode="&#xee;" horiz-adv-x="364" 
d="M-43 1182l154 274h147l154 -274h-133l-97 135l-96 -135h-129zM86 0v1092h195v-1092h-195z" />
    <glyph glyph-name="idieresis" unicode="&#xef;" horiz-adv-x="364" 
d="M227 1188v196h181v-196h-181zM-39 1188v196h180v-196h-180zM86 0v1092h195v-1092h-195z" />
    <glyph glyph-name="eth" unicode="&#xf0;" horiz-adv-x="763" 
d="M645 1327l-110 -47q174 -303 174 -672v-49q0 -286 -93 -431.5t-241 -145.5q-140 0 -231 143.5t-91 390.5v59q0 237 82.5 379t188.5 142q39 0 71.5 -18.5t69.5 -59.5q-33 95 -90 192l-144 -61l-51 121l121 53q-43 61 -96 123h217l39 -53l131 57zM379 154q61 0 97 95
t36 269v55q0 176 -37.5 270.5t-97.5 94.5q-56 0 -92.5 -97t-36.5 -268v-55q0 -172 35.5 -268t95.5 -96z" />
    <glyph glyph-name="ntilde" unicode="&#xf1;" horiz-adv-x="772" 
d="M80 0v1092h194v-140q75 158 203 158q105 0 163 -81.5t58 -221.5v-807h-194v766q0 82 -28.5 126t-80.5 44q-54 0 -87.5 -47t-33.5 -127v-762h-194zM510 1184q-41 0 -121 45q-53 35 -80 35q-21 0 -32.5 -18t-24.5 -64l-113 26q20 107 51.5 153t85.5 46q47 0 121 -45
q53 -35 80 -35q22 0 33.5 18t24.5 66l112 -29q-20 -106 -51.5 -152t-85.5 -46z" />
    <glyph glyph-name="ograve" unicode="&#xf2;" horiz-adv-x="763" 
d="M383 -18q-145 0 -237.5 141.5t-92.5 394.5v51q0 253 93 396t237 143t237 -143t93 -396v-51q0 -253 -92.5 -394.5t-237.5 -141.5zM383 156q60 0 96.5 94.5t36.5 265.5v57q0 173 -36.5 267t-96.5 94q-62 0 -98.5 -94t-36.5 -267v-57q0 -171 37 -265.5t98 -94.5zM330 1184
l-193 202l162 87l164 -289h-133z" />
    <glyph glyph-name="oacute" unicode="&#xf3;" horiz-adv-x="763" 
d="M305 1184l162 289l162 -87l-191 -202h-133zM383 -18q-145 0 -237.5 141.5t-92.5 394.5v51q0 253 93 396t237 143t237 -143t93 -396v-51q0 -253 -92.5 -394.5t-237.5 -141.5zM383 156q60 0 96.5 94.5t36.5 265.5v57q0 173 -36.5 267t-96.5 94q-62 0 -98.5 -94t-36.5 -267
v-57q0 -171 37 -265.5t98 -94.5z" />
    <glyph glyph-name="ocircumflex" unicode="&#xf4;" horiz-adv-x="763" 
d="M156 1188l153 274h148l153 -274h-133l-96 135l-96 -135h-129zM383 -18q-145 0 -237.5 141.5t-92.5 394.5v51q0 253 93 396t237 143t237 -143t93 -396v-51q0 -253 -92.5 -394.5t-237.5 -141.5zM383 156q60 0 96.5 94.5t36.5 265.5v57q0 173 -36.5 267t-96.5 94
q-62 0 -98.5 -94t-36.5 -267v-57q0 -171 37 -265.5t98 -94.5z" />
    <glyph glyph-name="otilde" unicode="&#xf5;" horiz-adv-x="763" 
d="M383 -18q-145 0 -237.5 141.5t-92.5 394.5v51q0 253 93 396t237 143t237 -143t93 -396v-51q0 -253 -92.5 -394.5t-237.5 -141.5zM383 156q60 0 96.5 94.5t36.5 265.5v57q0 173 -36.5 267t-96.5 94q-62 0 -98.5 -94t-36.5 -267v-57q0 -171 37 -265.5t98 -94.5zM504 1184
q-41 0 -121 45q-53 35 -80 35q-21 0 -32.5 -18t-24.5 -64l-113 26q20 107 51.5 153t85.5 46q47 0 121 -45q53 -35 80 -35q22 0 33 17.5t24 66.5l113 -29q-20 -106 -51.5 -152t-85.5 -46z" />
    <glyph glyph-name="odieresis" unicode="&#xf6;" horiz-adv-x="763" 
d="M426 1194v197h180v-197h-180zM160 1194v197h180v-197h-180zM383 -18q-145 0 -237.5 141.5t-92.5 394.5v51q0 253 93 396t237 143t237 -143t93 -396v-51q0 -253 -92.5 -394.5t-237.5 -141.5zM383 156q60 0 96.5 94.5t36.5 265.5v57q0 173 -36.5 267t-96.5 94
q-62 0 -98.5 -94t-36.5 -267v-57q0 -171 37 -265.5t98 -94.5z" />
    <glyph glyph-name="divide" unicode="&#xf7;" horiz-adv-x="753" 
d="M279 930v209h196v-209h-196zM702 629h-649v184h649v-184zM279 303v209h196v-209h-196z" />
    <glyph glyph-name="oslash" unicode="&#xf8;" horiz-adv-x="763" 
d="M598 1102h125l-86 -166q76 -142 76 -367v-51q0 -253 -92.5 -394.5t-237.5 -141.5q-106 0 -182 73l-35 -69h-123l84 166q-74 142 -74 366v51q0 253 93 396t237 143q103 0 180 -74zM383 152q63 0 104 97t41 267v57q0 81 -8 136l-237 -473q38 -84 100 -84zM238 516
q0 -75 6 -133l237 471q-37 82 -98 82q-65 0 -105 -95.5t-40 -267.5v-57z" />
    <glyph glyph-name="ugrave" unicode="&#xf9;" horiz-adv-x="772" 
d="M295 -18q-104 0 -162.5 81.5t-58.5 219.5v809h194v-766q0 -82 28.5 -126t80.5 -44q54 0 87.5 47t33.5 127v762h194v-1092h-194v139q-75 -157 -203 -157zM330 1167l-193 203l162 86l164 -289h-133z" />
    <glyph glyph-name="uacute" unicode="&#xfa;" horiz-adv-x="772" 
d="M305 1167l162 289l162 -86l-191 -203h-133zM295 -18q-104 0 -162.5 81.5t-58.5 219.5v809h194v-766q0 -82 28.5 -126t80.5 -44q54 0 87.5 47t33.5 127v762h194v-1092h-194v139q-75 -157 -203 -157z" />
    <glyph glyph-name="ucircumflex" unicode="&#xfb;" horiz-adv-x="772" 
d="M156 1171l153 275h148l153 -275h-133l-96 136l-96 -136h-129zM295 -18q-104 0 -162.5 81.5t-58.5 219.5v809h194v-766q0 -82 28.5 -126t80.5 -44q54 0 87.5 47t33.5 127v762h194v-1092h-194v139q-75 -157 -203 -157z" />
    <glyph glyph-name="udieresis" unicode="&#xfc;" horiz-adv-x="772" 
d="M426 1178v196h180v-196h-180zM160 1178v196h180v-196h-180zM295 -18q-104 0 -162.5 81.5t-58.5 219.5v809h194v-766q0 -82 28.5 -126t80.5 -44q54 0 87.5 47t33.5 127v762h194v-1092h-194v139q-75 -157 -203 -157z" />
    <glyph glyph-name="yacute" unicode="&#xfd;" horiz-adv-x="731" 
d="M362 362l146 730h190l-309 -1358h-188l67 297l-235 1061h192zM289 1167l162 289l161 -86l-190 -203h-133z" />
    <glyph glyph-name="thorn" unicode="&#xfe;" horiz-adv-x="782" 
d="M80 -266v1712h194v-512q79 176 203 176q52 0 96 -29t78.5 -89.5t54 -164t19.5 -241.5v-80q0 -267 -69 -395.5t-179 -128.5q-50 0 -91.5 28t-65 62.5t-46.5 83.5v-422h-194zM406 166q58 0 91 91t33 257v64q0 167 -33 257.5t-91 90.5q-59 0 -96.5 -91.5t-37.5 -254.5v-68
q0 -163 37.5 -254.5t96.5 -91.5z" />
    <glyph glyph-name="ydieresis" unicode="&#xff;" horiz-adv-x="731" 
d="M362 362l146 730h190l-309 -1358h-188l67 297l-235 1061h192zM143 1178v196h181v-196h-181zM410 1178v196h180v-196h-180z" />
    <glyph glyph-name="Amacron" unicode="&#x100;" horiz-adv-x="823" 
d="M18 0l285 1438h217l285 -1438h-205l-57 319h-271l-57 -319h-197zM303 502h209l-104 575zM180 1530v139h465v-139h-465z" />
    <glyph glyph-name="amacron" unicode="&#x101;" horiz-adv-x="714" 
d="M256 -18q-97 0 -158 89t-61 236v31q0 170 68 258t188 88q79 0 156 -41v86q0 94 -42.5 143.5t-125.5 49.5q-87 0 -189 -52v187q106 47 215 47q155 0 244 -86q92 -92 92 -275v-743h-197v129q-66 -147 -190 -147zM330 145q51 0 85 44.5t34 113.5v197q-62 28 -107 28
q-56 0 -86.5 -46t-30.5 -134v-24q0 -88 28 -133.5t77 -45.5zM131 1196v135h442v-135h-442z" />
    <glyph glyph-name="Abreve" unicode="&#x102;" horiz-adv-x="823" 
d="M18 0l285 1438h217l285 -1438h-205l-57 319h-271l-57 -319h-197zM303 502h209l-104 575zM412 1511q-96 0 -158 53.5t-66 155.5h123q17 -80 101 -80q83 0 100 80h123q-6 -102 -66.5 -155.5t-156.5 -53.5z" />
    <glyph glyph-name="abreve" unicode="&#x103;" horiz-adv-x="714" 
d="M256 -18q-97 0 -158 89t-61 236v31q0 170 68 258t188 88q79 0 156 -41v86q0 94 -42.5 143.5t-125.5 49.5q-87 0 -189 -52v187q106 47 215 47q155 0 244 -86q92 -92 92 -275v-743h-197v129q-66 -147 -190 -147zM330 145q51 0 85 44.5t34 113.5v197q-62 28 -107 28
q-56 0 -86.5 -46t-30.5 -134v-24q0 -88 28 -133.5t77 -45.5zM352 1178q-94 0 -156 57.5t-69 171.5h121q16 -102 104 -102q89 0 105 102h123q-9 -114 -71.5 -171.5t-156.5 -57.5z" />
    <glyph glyph-name="Aogonek" unicode="&#x104;" horiz-adv-x="823" 
d="M815 -166v-119q-44 -6 -70 -6q-87 0 -132.5 34t-45.5 97q0 78 76 160h-43l-57 319h-271l-57 -319h-197l285 1438h217l285 -1438h-25q-49 -66 -49 -111q0 -33 20.5 -45.5t63.5 -9.5zM303 502h209l-104 575z" />
    <glyph glyph-name="aogonek" unicode="&#x105;" horiz-adv-x="714" 
d="M651 -166v-119q-43 -6 -69 -6q-87 0 -133 34t-46 97q0 78 76 160h-33v129q-66 -147 -190 -147q-97 0 -158 89t-61 236v31q0 170 68 258t188 88q79 0 156 -41v86q0 94 -42.5 143.5t-125.5 49.5q-87 0 -189 -52v187q106 47 215 47q155 0 244 -86q92 -92 92 -275v-743h-27
q-49 -66 -49 -111q0 -33 20.5 -45.5t63.5 -9.5zM330 145q51 0 85 44.5t34 113.5v197q-62 28 -107 28q-56 0 -86.5 -46t-30.5 -134v-24q0 -88 28 -133.5t77 -45.5z" />
    <glyph glyph-name="Cacute" unicode="&#x106;" horiz-adv-x="684" 
d="M453 -10q-86 0 -156.5 41.5t-125 124.5t-84.5 220.5t-30 317.5v45q0 145 21 263.5t58.5 199.5t89.5 136t112 80.5t129 25.5q89 0 156 -33v-209q-74 45 -140 45q-49 0 -87.5 -27.5t-69.5 -85t-47.5 -157.5t-16.5 -236v-49q0 -506 223 -506q68 0 142 45v-200
q-72 -41 -174 -41zM334 1520l162 245l174 -86l-191 -159h-145z" />
    <glyph glyph-name="cacute" unicode="&#x107;" horiz-adv-x="583" 
d="M281 1184l161 289l162 -87l-190 -202h-133zM389 -18q-152 0 -244 137.5t-92 398.5v51q0 258 96 397.5t244 139.5q85 0 146 -31v-201q-72 44 -125 44q-71 0 -117.5 -85t-46.5 -260v-59q0 -175 47.5 -259.5t122.5 -84.5q53 0 119 49v-194q-73 -43 -150 -43z" />
    <glyph glyph-name="Cdotaccent" unicode="&#x10a;" horiz-adv-x="684" 
d="M324 1530v192h188v-192h-188zM453 -10q-86 0 -156.5 41.5t-125 124.5t-84.5 220.5t-30 317.5v45q0 145 21 263.5t58.5 199.5t89.5 136t112 80.5t129 25.5q89 0 156 -33v-209q-74 45 -140 45q-49 0 -87.5 -27.5t-69.5 -85t-47.5 -157.5t-16.5 -236v-49q0 -506 223 -506
q68 0 142 45v-200q-72 -41 -174 -41z" />
    <glyph glyph-name="cdotaccent" unicode="&#x10b;" horiz-adv-x="583" 
d="M389 -18q-152 0 -244 137.5t-92 398.5v51q0 258 96 397.5t244 139.5q85 0 146 -31v-201q-72 44 -125 44q-71 0 -117.5 -85t-46.5 -260v-59q0 -175 47.5 -259.5t122.5 -84.5q53 0 119 49v-194q-73 -43 -150 -43zM266 1194v197h185v-197h-185z" />
    <glyph glyph-name="Ccaron" unicode="&#x10c;" horiz-adv-x="684" 
d="M453 -10q-86 0 -156.5 41.5t-125 124.5t-84.5 220.5t-30 317.5v45q0 145 21 263.5t58.5 199.5t89.5 136t112 80.5t129 25.5q89 0 156 -33v-209q-74 45 -140 45q-49 0 -87.5 -27.5t-69.5 -85t-47.5 -157.5t-16.5 -236v-49q0 -506 223 -506q68 0 142 45v-200
q-72 -41 -174 -41zM649 1751l-149 -229h-164l-150 229h144l90 -104l90 104h139z" />
    <glyph glyph-name="ccaron" unicode="&#x10d;" horiz-adv-x="583" 
d="M586 1462l-154 -274h-147l-154 274h133l96 -135l97 135h129zM389 -18q-152 0 -244 137.5t-92 398.5v51q0 258 96 397.5t244 139.5q85 0 146 -31v-201q-72 44 -125 44q-71 0 -117.5 -85t-46.5 -260v-59q0 -175 47.5 -259.5t122.5 -84.5q53 0 119 49v-194q-73 -43 -150 -43
z" />
    <glyph glyph-name="Dcaron" unicode="&#x10e;" horiz-adv-x="845" 
d="M86 0v1434h215q231 0 359 -177t128 -518v-45q0 -340 -128 -517t-359 -177h-215zM319 1249h-30v-1065h30q57 0 103.5 28t83.5 86.5t57.5 159t20.5 236.5v45q0 136 -20.5 236.5t-58 159t-84 86.5t-102.5 28zM641 1741l-149 -230h-164l-150 230h144l90 -105l90 105h139z" />
    <glyph glyph-name="dcaron" unicode="&#x10f;" horiz-adv-x="782" 
d="M754 1147l18 299h137v-4l-69 -295h-86zM305 -18q-53 0 -97 29t-78.5 89.5t-53.5 163.5t-19 242v80q0 268 68.5 396t179.5 128q38 0 70.5 -15t56.5 -42t41 -54.5t33 -62.5v510h196v-1446h-196v158q-79 -176 -201 -176zM377 166q59 0 96 91.5t37 254.5v68q0 163 -37 254.5
t-96 91.5q-58 0 -91.5 -91.5t-33.5 -256.5v-64q0 -166 33.5 -257t91.5 -91z" />
    <glyph glyph-name="Dcroat" unicode="&#x110;" horiz-adv-x="862" 
d="M16 647v148h84v639h215q231 0 360.5 -177.5t129.5 -517.5v-45q0 -340 -129.5 -517t-360.5 -177h-215v647h-84zM600 694v45q0 264 -73 387t-193 123h-31v-454h131v-148h-131v-463h33q57 0 103.5 28t83.5 86.5t57 159t20 236.5z" />
    <glyph glyph-name="dcroat" unicode="&#x111;" horiz-adv-x="782" 
d="M328 1198v137h178v111h196v-111h76v-139h-76v-1196h-196v158q-79 -176 -201 -176q-53 0 -97 29t-78.5 89.5t-53.5 163.5t-19 242v80q0 268 68.5 396t179.5 128q38 0 70.5 -15t56.5 -42t41 -54.5t33 -62.5v262h-178zM377 166q59 0 96 91.5t37 254.5v68q0 163 -37 254.5
t-96 91.5q-58 0 -91.5 -91.5t-33.5 -256.5v-64q0 -166 33.5 -257t91.5 -91z" />
    <glyph glyph-name="Emacron" unicode="&#x112;" horiz-adv-x="673" 
d="M123 1520v139h465v-139h-465zM86 0v1434h530v-191h-327v-426h293v-190h-293v-437h334v-190h-537z" />
    <glyph glyph-name="emacron" unicode="&#x113;" horiz-adv-x="714" 
d="M416 -18q-157 0 -262 141t-105 397v43q0 258 92.5 401.5t229.5 143.5q138 0 219.5 -142.5t81.5 -402.5v-106h-428q7 -148 61 -220.5t135 -72.5q50 0 90 17.5t101 58.5l16 -183q-64 -40 -115.5 -57.5t-115.5 -17.5zM242 612h245q0 153 -30.5 237.5t-85.5 84.5
q-56 0 -90.5 -80.5t-38.5 -241.5zM147 1196v135h443v-135h-443z" />
    <glyph glyph-name="Ebreve" unicode="&#x114;" horiz-adv-x="673" 
d="M354 1501q-96 0 -157.5 53.5t-65.5 155.5h123q17 -80 100 -80q84 0 101 80h123q-6 -102 -67 -155.5t-157 -53.5zM86 0v1434h530v-191h-327v-426h293v-190h-293v-437h334v-190h-537z" />
    <glyph glyph-name="ebreve" unicode="&#x115;" horiz-adv-x="714" 
d="M416 -18q-157 0 -262 141t-105 397v43q0 258 92.5 401.5t229.5 143.5q138 0 219.5 -142.5t81.5 -402.5v-106h-428q7 -148 61 -220.5t135 -72.5q50 0 90 17.5t101 58.5l16 -183q-64 -40 -115.5 -57.5t-115.5 -17.5zM242 612h245q0 153 -30.5 237.5t-85.5 84.5
q-56 0 -90.5 -80.5t-38.5 -241.5zM369 1178q-94 0 -156.5 58t-69.5 171h121q16 -102 105 -102q88 0 104 102h123q-9 -114 -71 -171.5t-156 -57.5z" />
    <glyph glyph-name="Edotaccent" unicode="&#x116;" horiz-adv-x="673" 
d="M260 1520v192h189v-192h-189zM86 0v1434h530v-191h-327v-426h293v-190h-293v-437h334v-190h-537z" />
    <glyph glyph-name="edotaccent" unicode="&#x117;" horiz-adv-x="714" 
d="M416 -18q-157 0 -262 141t-105 397v43q0 258 92.5 401.5t229.5 143.5q138 0 219.5 -142.5t81.5 -402.5v-106h-428q7 -148 61 -220.5t135 -72.5q50 0 90 17.5t101 58.5l16 -183q-64 -40 -115.5 -57.5t-115.5 -17.5zM242 612h245q0 153 -30.5 237.5t-85.5 84.5
q-56 0 -90.5 -80.5t-38.5 -241.5zM276 1194v197h185v-197h-185z" />
    <glyph glyph-name="Eogonek" unicode="&#x118;" horiz-adv-x="673" 
d="M86 0v1434h530v-191h-327v-426h293v-190h-293v-437h334v-190h-31q-49 -66 -49 -111q0 -33 20.5 -45.5t63.5 -9.5v-119q-43 -6 -70 -6q-87 0 -132.5 34t-45.5 97q0 78 76 160h-369z" />
    <glyph glyph-name="eogonek" unicode="&#x119;" horiz-adv-x="714" 
d="M631 240l14 -174q-100 -113 -100 -177q0 -33 20.5 -45.5t63.5 -9.5v-119q-43 -6 -72 -6q-87 0 -131.5 33.5t-44.5 97.5q0 76 63 148q-16 -4 -28 -4q-76 0 -141.5 34.5t-116.5 99.5t-80 168.5t-29 233.5v43q0 258 92.5 401.5t229.5 143.5q138 0 219.5 -142.5t81.5 -402.5
v-106h-428q7 -148 61 -220.5t135 -72.5q50 0 90 17.5t101 58.5zM242 612h245q0 153 -30.5 237.5t-85.5 84.5q-56 0 -90.5 -80.5t-38.5 -241.5z" />
    <glyph glyph-name="Ecaron" unicode="&#x11a;" horiz-adv-x="673" 
d="M586 1741l-150 -230h-164l-149 230h143l90 -105l90 105h140zM86 0v1434h530v-191h-327v-426h293v-190h-293v-437h334v-190h-537z" />
    <glyph glyph-name="ecaron" unicode="&#x11b;" horiz-adv-x="714" 
d="M596 1462l-154 -274h-147l-154 274h133l97 -135l96 135h129zM416 -18q-157 0 -262 141t-105 397v43q0 258 92.5 401.5t229.5 143.5q138 0 219.5 -142.5t81.5 -402.5v-106h-428q7 -148 61 -220.5t135 -72.5q50 0 90 17.5t101 58.5l16 -183q-64 -40 -115.5 -57.5
t-115.5 -17.5zM242 612h245q0 153 -30.5 237.5t-85.5 84.5q-56 0 -90.5 -80.5t-38.5 -241.5z" />
    <glyph glyph-name="Gbreve" unicode="&#x11e;" horiz-adv-x="821" 
d="M473 1511q-96 0 -157.5 53.5t-65.5 155.5h123q17 -80 100 -80t100 80h123q-6 -102 -66.5 -155.5t-156.5 -53.5zM506 -18q-95 0 -174.5 42t-142 126t-97.5 223.5t-35 320.5v45q0 342 129 527.5t336 185.5q106 0 187 -43v-211q-97 59 -181 59q-121 0 -193.5 -129.5
t-72.5 -379.5v-62q0 -114 14 -204.5t37.5 -148t56.5 -95.5t68.5 -54t75.5 -16q17 0 47 6v434h-151v180h335v-749q-126 -57 -239 -57z" />
    <glyph glyph-name="gbreve" unicode="&#x11f;" horiz-adv-x="782" 
d="M338 -270q-114 0 -236 37v182q122 -47 215 -47q189 0 189 186v152q-78 -177 -203 -177q-52 0 -95.5 29.5t-78 89.5t-53.5 161.5t-19 236.5v14q0 135 19 236.5t53.5 161.5t78 89t95.5 29q126 0 203 -174v156h196v-1016q0 -166 -90 -256t-274 -90zM377 248q57 0 95 88
t38 246v10q0 157 -38 245.5t-95 88.5q-56 0 -90.5 -87.5t-34.5 -248.5v-6q0 -162 34.5 -249t90.5 -87zM406 1178q-94 0 -156.5 58t-69.5 171h121q16 -102 105 -102q88 0 104 102h123q-9 -114 -71 -171.5t-156 -57.5z" />
    <glyph glyph-name="Gdotaccent" unicode="&#x120;" horiz-adv-x="821" 
d="M379 1530v192h188v-192h-188zM506 -18q-95 0 -174.5 42t-142 126t-97.5 223.5t-35 320.5v45q0 342 129 527.5t336 185.5q106 0 187 -43v-211q-97 59 -181 59q-121 0 -193.5 -129.5t-72.5 -379.5v-62q0 -114 14 -204.5t37.5 -148t56.5 -95.5t68.5 -54t75.5 -16q17 0 47 6
v434h-151v180h335v-749q-126 -57 -239 -57z" />
    <glyph glyph-name="gdotaccent" unicode="&#x121;" horiz-adv-x="782" 
d="M338 -270q-114 0 -236 37v182q122 -47 215 -47q189 0 189 186v152q-78 -177 -203 -177q-52 0 -95.5 29.5t-78 89.5t-53.5 161.5t-19 236.5v14q0 135 19 236.5t53.5 161.5t78 89t95.5 29q126 0 203 -174v156h196v-1016q0 -166 -90 -256t-274 -90zM377 248q57 0 95 88
t38 246v10q0 157 -38 245.5t-95 88.5q-56 0 -90.5 -87.5t-34.5 -248.5v-6q0 -162 34.5 -249t90.5 -87zM313 1194v197h185v-197h-185z" />
    <glyph glyph-name="Gcommaaccent" unicode="&#x122;" horiz-adv-x="821" 
d="M381 -446l-14 67q57 12 77 35.5t17 73.5h-82v164h184v-148q0 -91 -44.5 -134.5t-137.5 -57.5zM506 -18q-95 0 -174.5 42t-142 126t-97.5 223.5t-35 320.5v45q0 342 129 527.5t336 185.5q106 0 187 -43v-211q-97 59 -181 59q-121 0 -193.5 -129.5t-72.5 -379.5v-62
q0 -114 14 -204.5t37.5 -148t56.5 -95.5t68.5 -54t75.5 -16q17 0 47 6v434h-151v180h335v-749q-126 -57 -239 -57z" />
    <glyph glyph-name="gcommaaccent" unicode="&#x123;" horiz-adv-x="782" 
d="M496 1536l14 -68q-56 -12 -76.5 -36t-17.5 -72h82v-166h-185v149q0 91 45 135t138 58zM338 -270q-114 0 -236 37v182q122 -47 215 -47q189 0 189 186v152q-78 -177 -203 -177q-52 0 -95.5 29.5t-78 89.5t-53.5 161.5t-19 236.5v14q0 135 19 236.5t53.5 161.5t78 89
t95.5 29q126 0 203 -174v156h196v-1016q0 -166 -90 -256t-274 -90zM377 248q57 0 95 88t38 246v10q0 157 -38 245.5t-95 88.5q-56 0 -90.5 -87.5t-34.5 -248.5v-6q0 -162 34.5 -249t90.5 -87z" />
    <glyph glyph-name="Hbar" unicode="&#x126;" horiz-adv-x="890" 
d="M16 1081v174h84v179h203v-183h285v183h203v-179h83v-174h-83v-1081h-203v625h-285v-625h-203v1081h-84zM303 817h285v268h-285v-268z" />
    <glyph glyph-name="hbar" unicode="&#x127;" horiz-adv-x="772" 
d="M453 1198h-179v-246q75 158 203 158q105 0 163 -81.5t58 -221.5v-807h-194v766q0 82 -28.5 126t-80.5 44q-54 0 -87.5 -47t-33.5 -127v-762h-194v1196h-76v139h76v111h194v-111h179v-137z" />
    <glyph glyph-name="Imacron" unicode="&#x12a;" horiz-adv-x="389" 
d="M94 0v1434h201v-1434h-201zM-37 1520v139h465v-139h-465z" />
    <glyph glyph-name="imacron" unicode="&#x12b;" horiz-adv-x="364" 
d="M86 0v1092h195v-1092h-195zM-37 1190v135h443v-135h-443z" />
    <glyph glyph-name="Ibreve" unicode="&#x12c;" horiz-adv-x="389" 
d="M94 0v1434h201v-1434h-201zM195 1501q-96 0 -158 53.5t-66 155.5h123q17 -80 101 -80q83 0 100 80h123q-6 -102 -66.5 -155.5t-156.5 -53.5z" />
    <glyph glyph-name="ibreve" unicode="&#x12d;" horiz-adv-x="364" 
d="M86 0v1092h195v-1092h-195zM184 1171q-94 0 -156 58t-69 172h121q16 -103 104 -103q89 0 105 103h123q-9 -114 -71.5 -172t-156.5 -58z" />
    <glyph glyph-name="Iogonek" unicode="&#x12e;" horiz-adv-x="389" 
d="M94 0v1434h201v-1434h-25q-49 -66 -49 -111q0 -33 20.5 -45.5t63.5 -9.5v-119q-43 -6 -69 -6q-87 0 -133 34t-46 97q0 78 76 160h-39z" />
    <glyph glyph-name="iogonek" unicode="&#x12f;" horiz-adv-x="364" 
d="M86 0v1092h195v-1092h-23q-49 -66 -49 -111q0 -33 20.5 -45.5t63.5 -9.5v-119q-44 -6 -70 -6q-87 0 -132.5 34t-45.5 97q0 78 76 160h-35zM82 1233v213h201v-213h-201z" />
    <glyph glyph-name="Idotaccent" unicode="&#x130;" horiz-adv-x="389" 
d="M94 0v1434h201v-1434h-201zM100 1520v192h189v-192h-189z" />
    <glyph glyph-name="dotlessi" unicode="&#x131;" horiz-adv-x="364" 
d="M86 0v1092h195v-1092h-195z" />
    <glyph glyph-name="Kcommaaccent" unicode="&#x136;" horiz-adv-x="804" 
d="M322 -426l-15 68q57 12 77 35t17 73h-82v164h185v-147q0 -91 -44.5 -135t-137.5 -58zM86 0v1434h203v-674l264 674h221l-266 -619l283 -815h-220l-206 590l-76 -180v-410h-203z" />
    <glyph glyph-name="kcommaaccent" unicode="&#x137;" horiz-adv-x="710" 
d="M276 -426l-14 68q57 12 77 35t17 73h-82v164h185v-147q0 -91 -45 -135t-138 -58zM80 0v1446h194v-836l203 482h211l-205 -441l205 -651h-213l-135 461l-66 -146v-315h-194z" />
    <glyph glyph-name="Lacute" unicode="&#x139;" horiz-adv-x="604" 
d="M133 1507l162 246l174 -86l-190 -160h-146zM86 0v1434h203v-1244h293v-190h-496z" />
    <glyph glyph-name="lacute" unicode="&#x13a;" horiz-adv-x="364" 
d="M115 1509l161 246l175 -86l-191 -160h-145zM86 0v1446h195v-1446h-195z" />
    <glyph glyph-name="Lcommaaccent" unicode="&#x13b;" horiz-adv-x="604" 
d="M242 -436l-15 67q57 12 77.5 35.5t17.5 73.5h-82v164h184v-148q0 -91 -44.5 -134.5t-137.5 -57.5zM86 0v1434h203v-1244h293v-190h-496z" />
    <glyph glyph-name="lcommaaccent" unicode="&#x13c;" horiz-adv-x="364" 
d="M92 -436l-14 67q57 12 77 35.5t17 73.5h-82v164h184v-148q0 -91 -44.5 -134.5t-137.5 -57.5zM86 0v1446h195v-1446h-195z" />
    <glyph glyph-name="Lcaron" unicode="&#x13d;" horiz-adv-x="604" 
d="M346 1137l19 299h137v-4l-70 -295h-86zM86 0v1434h203v-1244h293v-190h-496z" />
    <glyph glyph-name="lcaron" unicode="&#x13e;" horiz-adv-x="364" 
d="M334 1147l18 299h137v-4l-69 -295h-86zM86 0v1446h195v-1446h-195z" />
    <glyph glyph-name="Ldot" unicode="&#x13f;" horiz-adv-x="604" 
d="M401 641v197h172v-197h-172zM86 0v1434h203v-1244h293v-190h-496z" />
    <glyph glyph-name="ldot" unicode="&#x140;" horiz-adv-x="520" 
d="M367 633v201h153v-201h-153zM86 0v1446h195v-1446h-195z" />
    <glyph glyph-name="Lslash" unicode="&#x141;" horiz-adv-x="620" 
d="M457 766l-154 -92v-484h293v-190h-496v549l-84 -51v198l84 49v689h203v-564l154 95v-199z" />
    <glyph glyph-name="lslash" unicode="&#x142;" horiz-adv-x="421" 
d="M412 766l-103 -64v-702h-194v582l-103 -64v193l103 63v672h194v-551l103 66v-195z" />
    <glyph glyph-name="Nacute" unicode="&#x143;" horiz-adv-x="872" 
d="M350 1499l162 246l174 -86l-190 -160h-146zM86 0v1434h193l313 -881v881h194v-1434h-180l-325 913v-913h-195z" />
    <glyph glyph-name="nacute" unicode="&#x144;" horiz-adv-x="772" 
d="M311 1184l162 289l162 -87l-191 -202h-133zM80 0v1092h194v-140q75 158 203 158q105 0 163 -81.5t58 -221.5v-807h-194v766q0 82 -28.5 126t-80.5 44q-54 0 -87.5 -47t-33.5 -127v-762h-194z" />
    <glyph glyph-name="Ncommaaccent" unicode="&#x145;" horiz-adv-x="872" 
d="M346 -426l-14 68q57 12 77 35t17 73h-82v164h184v-147q0 -91 -44.5 -135t-137.5 -58zM86 0v1434h193l313 -881v881h194v-1434h-180l-325 913v-913h-195z" />
    <glyph glyph-name="ncommaaccent" unicode="&#x146;" horiz-adv-x="772" 
d="M299 -426l-14 68q57 12 77 35t17 73h-82v164h184v-147q0 -91 -44.5 -135t-137.5 -58zM80 0v1092h194v-140q75 158 203 158q105 0 163 -81.5t58 -221.5v-807h-194v766q0 82 -28.5 126t-80.5 44q-54 0 -87.5 -47t-33.5 -127v-762h-194z" />
    <glyph glyph-name="Ncaron" unicode="&#x147;" horiz-adv-x="872" 
d="M668 1731l-150 -230h-164l-149 230h143l90 -105l90 105h140zM86 0v1434h193l313 -881v881h194v-1434h-180l-325 913v-913h-195z" />
    <glyph glyph-name="ncaron" unicode="&#x148;" horiz-adv-x="772" 
d="M616 1462l-153 -274h-148l-153 274h133l96 -135l96 135h129zM80 0v1092h194v-140q75 158 203 158q105 0 163 -81.5t58 -221.5v-807h-194v766q0 82 -28.5 126t-80.5 44q-54 0 -87.5 -47t-33.5 -127v-762h-194z" />
    <glyph glyph-name="Omacron" unicode="&#x14c;" horiz-adv-x="851" 
d="M195 1530v139h464v-139h-464zM426 -18q-169 0 -269 180t-100 524v62q0 344 100 524t269 180t269 -180t100 -524v-62q0 -344 -100 -524t-269 -180zM426 166q164 0 164 520v62q0 520 -164 520t-164 -520v-62q0 -520 164 -520z" />
    <glyph glyph-name="omacron" unicode="&#x14d;" horiz-adv-x="763" 
d="M162 1196v135h442v-135h-442zM383 -18q-145 0 -237.5 141.5t-92.5 394.5v51q0 253 93 396t237 143t237 -143t93 -396v-51q0 -253 -92.5 -394.5t-237.5 -141.5zM383 156q60 0 96.5 94.5t36.5 265.5v57q0 173 -36.5 267t-96.5 94q-62 0 -98.5 -94t-36.5 -267v-57
q0 -171 37 -265.5t98 -94.5z" />
    <glyph glyph-name="Obreve" unicode="&#x14e;" horiz-adv-x="851" 
d="M426 1511q-96 0 -157.5 53.5t-65.5 155.5h123q17 -80 100 -80t100 80h123q-6 -102 -66.5 -155.5t-156.5 -53.5zM426 -18q-169 0 -269 180t-100 524v62q0 344 100 524t269 180t269 -180t100 -524v-62q0 -344 -100 -524t-269 -180zM426 166q164 0 164 520v62
q0 520 -164 520t-164 -520v-62q0 -520 164 -520z" />
    <glyph glyph-name="obreve" unicode="&#x14f;" horiz-adv-x="763" 
d="M383 -18q-145 0 -237.5 141.5t-92.5 394.5v51q0 253 93 396t237 143t237 -143t93 -396v-51q0 -253 -92.5 -394.5t-237.5 -141.5zM383 156q60 0 96.5 94.5t36.5 265.5v57q0 173 -36.5 267t-96.5 94q-62 0 -98.5 -94t-36.5 -267v-57q0 -171 37 -265.5t98 -94.5zM383 1178
q-94 0 -156 57.5t-69 171.5h121q16 -102 104 -102t104 102h123q-9 -114 -71 -171.5t-156 -57.5z" />
    <glyph glyph-name="Ohungarumlaut" unicode="&#x150;" horiz-adv-x="851" 
d="M426 -18q-169 0 -269 180t-100 524v62q0 344 100 524t269 180t269 -180t100 -524v-62q0 -344 -100 -524t-269 -180zM426 166q164 0 164 520v62q0 520 -164 520t-164 -520v-62q0 -520 164 -520zM231 1520l162 245l158 -86l-182 -159h-138zM457 1520l161 245l158 -86
l-182 -159h-137z" />
    <glyph glyph-name="ohungarumlaut" unicode="&#x151;" horiz-adv-x="763" 
d="M412 1184l163 289l148 -84l-184 -205h-127zM195 1184l163 289l148 -84l-184 -205h-127zM383 -18q-145 0 -237.5 141.5t-92.5 394.5v51q0 253 93 396t237 143t237 -143t93 -396v-51q0 -253 -92.5 -394.5t-237.5 -141.5zM383 156q60 0 96.5 94.5t36.5 265.5v57
q0 173 -36.5 267t-96.5 94q-62 0 -98.5 -94t-36.5 -267v-57q0 -171 37 -265.5t98 -94.5z" />
    <glyph glyph-name="OE" unicode="&#x152;" horiz-adv-x="1140" 
d="M547 0q-233 0 -361.5 177t-128.5 517v45q0 341 129 518t361 177h536v-191h-327v-426h293v-190h-293v-437h334v-190h-543zM528 184h25v1065h-27q-57 0 -103.5 -28t-83.5 -86.5t-57 -159t-20 -236.5v-45q0 -264 73 -387t193 -123z" />
    <glyph glyph-name="oe" unicode="&#x153;" horiz-adv-x="1196" 
d="M383 -18q-145 0 -237.5 141.5t-92.5 394.5v51q0 253 93 396t237 143q77 0 138.5 -46.5t99.5 -133.5q38 88 97 134t132 46q139 0 221 -142t82 -403v-106h-430q9 -148 63.5 -220.5t133.5 -72.5q50 0 91 17.5t99 58.5l16 -183q-65 -40 -115.5 -57.5t-115.5 -17.5
q-88 0 -157.5 48t-112.5 140q-38 -92 -100 -140t-142 -48zM723 612h246q0 153 -31 237.5t-88 84.5q-56 0 -90 -81t-37 -241zM383 156q60 0 96.5 94.5t36.5 265.5v57q0 173 -36.5 267t-96.5 94q-62 0 -98.5 -94t-36.5 -267v-57q0 -171 37 -265.5t98 -94.5z" />
    <glyph glyph-name="Racute" unicode="&#x154;" horiz-adv-x="806" 
d="M86 0v1434h233q205 0 318 -113q117 -120 117 -334v-14q0 -137 -52 -233t-141 -150l217 -590h-217l-192 524q-4 0 -13.5 -1t-13.5 -1h-53v-522h-203zM289 705h35q105 0 166 66.5t61 199.5v12q0 262 -234 262h-28v-540zM301 1509l162 246l174 -86l-191 -160h-145z" />
    <glyph glyph-name="racute" unicode="&#x155;" horiz-adv-x="501" 
d="M184 1178l162 288l162 -86l-191 -202h-133zM80 0v1092h194v-144q61 164 199 156v-232h-4q-93 0 -144 -61.5t-51 -183.5v-627h-194z" />
    <glyph glyph-name="Rcommaaccent" unicode="&#x156;" horiz-adv-x="806" 
d="M299 -426l-14 68q57 12 77 35t17 73h-82v164h184v-147q0 -91 -44.5 -135t-137.5 -58zM86 0v1434h233q205 0 318 -113q117 -120 117 -334v-14q0 -137 -52 -233t-141 -150l217 -590h-217l-192 524q-4 0 -13.5 -1t-13.5 -1h-53v-522h-203zM289 705h35q105 0 166 66.5
t61 199.5v12q0 262 -234 262h-28v-540z" />
    <glyph glyph-name="rcommaaccent" unicode="&#x157;" horiz-adv-x="501" 
d="M98 -436l-14 67q57 12 77 35.5t17 73.5h-82v164h185v-148q0 -90 -45 -134t-138 -58zM80 0v1092h194v-144q61 164 199 156v-232h-4q-93 0 -144 -61.5t-51 -183.5v-627h-194z" />
    <glyph glyph-name="Rcaron" unicode="&#x158;" horiz-adv-x="806" 
d="M616 1741l-149 -230h-164l-149 230h143l90 -105l90 105h139zM86 0v1434h233q205 0 318 -113q117 -120 117 -334v-14q0 -137 -52 -233t-141 -150l217 -590h-217l-192 524q-4 0 -13.5 -1t-13.5 -1h-53v-522h-203zM289 705h35q105 0 166 66.5t61 199.5v12q0 262 -234 262
h-28v-540z" />
    <glyph glyph-name="rcaron" unicode="&#x159;" horiz-adv-x="501" 
d="M492 1456l-154 -274h-148l-153 274h133l96 -135l96 135h130zM80 0v1092h194v-144q61 164 199 156v-232h-4q-93 0 -144 -61.5t-51 -183.5v-627h-194z" />
    <glyph glyph-name="Sacute" unicode="&#x15a;" horiz-adv-x="669" 
d="M303 -12q-132 0 -252 65v209q137 -84 230 -84q70 0 112.5 42.5t42.5 119.5q0 58 -31 121t-124 174q-97 114 -144.5 181.5t-72.5 134.5t-25 145v2q0 155 95 251.5t239 96.5q118 0 215 -51v-209q-61 37 -106 53t-93 16q-63 0 -105 -41t-42 -110q0 -57 30.5 -112.5
t126.5 -170.5q142 -169 191 -266t49 -213v-2q0 -157 -96 -254.5t-240 -97.5zM264 1520l162 245l174 -86l-190 -159h-146z" />
    <glyph glyph-name="sacute" unicode="&#x15b;" horiz-adv-x="579" 
d="M260 -18q-106 0 -221 51v194q128 -69 211 -69q52 0 82 29t30 81q0 43 -28.5 87.5t-108.5 121.5q-101 99 -146.5 176.5t-45.5 169.5v4q0 127 81 203t210 76q98 0 178 -31v-192q-92 47 -170 47q-51 0 -81 -27t-30 -72q0 -41 27.5 -80.5t116.5 -125.5q104 -103 145 -180
t41 -169v-4q0 -131 -83.5 -210.5t-207.5 -79.5zM217 1184l162 289l162 -87l-191 -202h-133z" />
    <glyph glyph-name="Scedilla" unicode="&#x15e;" horiz-adv-x="669" 
d="M324 -250l-172 66l110 174q-113 9 -211 63v209q137 -84 230 -84q70 0 112.5 42.5t42.5 119.5q0 58 -31 121t-124 174q-97 114 -144.5 181.5t-72.5 134.5t-25 145v2q0 155 95 251.5t239 96.5q118 0 215 -51v-209q-61 37 -106 53t-93 16q-63 0 -105 -41t-42 -110
q0 -57 30.5 -112.5t126.5 -170.5q142 -169 191 -266t49 -213v-2q0 -126 -62.5 -215.5t-166.5 -120.5z" />
    <glyph glyph-name="scedilla" unicode="&#x15f;" horiz-adv-x="579" 
d="M274 -250l-172 66l109 168q-87 9 -172 49v194q128 -69 211 -69q52 0 82 29t30 81q0 43 -28.5 87.5t-108.5 121.5q-101 99 -146.5 176.5t-45.5 169.5v4q0 127 81 203t210 76q98 0 178 -31v-192q-92 47 -170 47q-51 0 -81 -27t-30 -72q0 -41 27.5 -80.5t116.5 -125.5
q104 -103 145 -180t41 -169v-4q0 -103 -53.5 -176t-141.5 -100z" />
    <glyph glyph-name="Scaron" unicode="&#x160;" horiz-adv-x="669" 
d="M303 -12q-132 0 -252 65v209q137 -84 230 -84q70 0 112.5 42.5t42.5 119.5q0 58 -31 121t-124 174q-97 114 -144.5 181.5t-72.5 134.5t-25 145v2q0 155 95 251.5t239 96.5q118 0 215 -51v-209q-61 37 -106 53t-93 16q-63 0 -105 -41t-42 -110q0 -57 30.5 -112.5
t126.5 -170.5q142 -169 191 -266t49 -213v-2q0 -157 -96 -254.5t-240 -97.5zM580 1751l-150 -229h-164l-149 229h143l90 -104l90 104h140z" />
    <glyph glyph-name="scaron" unicode="&#x161;" horiz-adv-x="579" 
d="M260 -18q-106 0 -221 51v194q128 -69 211 -69q52 0 82 29t30 81q0 43 -28.5 87.5t-108.5 121.5q-101 99 -146.5 176.5t-45.5 169.5v4q0 127 81 203t210 76q98 0 178 -31v-192q-92 47 -170 47q-51 0 -81 -27t-30 -72q0 -41 27.5 -80.5t116.5 -125.5q104 -103 145 -180
t41 -169v-4q0 -131 -83.5 -210.5t-207.5 -79.5zM522 1462l-153 -274h-148l-153 274h133l96 -135l96 135h129z" />
    <glyph glyph-name="Tcommaaccent" unicode="&#x162;" horiz-adv-x="647" 
d="M233 -436l-14 67q57 12 77 35.5t17 73.5h-82v164h185v-148q0 -90 -45 -134t-138 -58zM223 0v1243h-194v191h589v-191h-194v-1243h-201z" />
    <glyph glyph-name="Tcommaaccent" unicode="&#x21a;" horiz-adv-x="647" 
d="M233 -436l-14 67q57 12 77 35.5t17 73.5h-82v164h185v-148q0 -90 -45 -134t-138 -58zM223 0v1243h-194v191h589v-191h-194v-1243h-201z" />
    <glyph glyph-name="tcommaaccent" unicode="&#x163;" horiz-adv-x="487" 
d="M182 -442l-14 67q57 12 77 35.5t17 73.5h-82v164h185v-148q0 -90 -45 -134t-138 -58zM326 -12q-99 0 -157 44t-58 154v744h-78v162h78v286h194v-286h141v-162h-141v-682q0 -84 80 -84q34 0 61 12v-160q-54 -28 -120 -28z" />
    <glyph glyph-name="tcommaaccent" unicode="&#x21b;" horiz-adv-x="487" 
d="M182 -442l-14 67q57 12 77 35.5t17 73.5h-82v164h185v-148q0 -90 -45 -134t-138 -58zM326 -12q-99 0 -157 44t-58 154v744h-78v162h78v286h194v-286h141v-162h-141v-682q0 -84 80 -84q34 0 61 12v-160q-54 -28 -120 -28z" />
    <glyph glyph-name="Tcaron" unicode="&#x164;" horiz-adv-x="647" 
d="M555 1741l-149 -230h-164l-150 230h144l90 -105l90 105h139zM223 0v1243h-194v191h589v-191h-194v-1243h-201z" />
    <glyph glyph-name="tcaron" unicode="&#x165;" horiz-adv-x="487" 
d="M365 1147l18 299h137v-4l-69 -295h-86zM326 -12q-99 0 -157 44t-58 154v744h-78v162h78v286h194v-286h141v-162h-141v-682q0 -84 80 -84q34 0 61 12v-160q-54 -28 -120 -28z" />
    <glyph glyph-name="Umacron" unicode="&#x16a;" horiz-adv-x="845" 
d="M193 1509v140h464v-140h-464zM424 -18q-156 0 -250 107.5t-94 313.5v1031h203v-1049q0 -107 38 -161t103 -54q64 0 101.5 54t37.5 161v1049h203v-1031q0 -206 -93.5 -313.5t-248.5 -107.5z" />
    <glyph glyph-name="umacron" unicode="&#x16b;" horiz-adv-x="772" 
d="M295 -18q-104 0 -162.5 81.5t-58.5 219.5v809h194v-766q0 -82 28.5 -126t80.5 -44q54 0 87.5 47t33.5 127v762h194v-1092h-194v139q-75 -157 -203 -157zM162 1180v135h442v-135h-442z" />
    <glyph glyph-name="Ubreve" unicode="&#x16c;" horiz-adv-x="845" 
d="M424 1485q-96 0 -157.5 53.5t-65.5 155.5h123q17 -80 100 -80t100 80h123q-6 -102 -66.5 -155.5t-156.5 -53.5zM424 -18q-156 0 -250 107.5t-94 313.5v1031h203v-1049q0 -107 38 -161t103 -54q64 0 101.5 54t37.5 161v1049h203v-1031q0 -206 -93.5 -313.5t-248.5 -107.5z
" />
    <glyph glyph-name="ubreve" unicode="&#x16d;" horiz-adv-x="772" 
d="M295 -18q-104 0 -162.5 81.5t-58.5 219.5v809h194v-766q0 -82 28.5 -126t80.5 -44q54 0 87.5 47t33.5 127v762h194v-1092h-194v139q-75 -157 -203 -157zM383 1161q-94 0 -156 58t-69 172h121q16 -103 104 -103t104 103h123q-9 -114 -71 -172t-156 -58z" />
    <glyph glyph-name="Uring" unicode="&#x16e;" horiz-adv-x="845" 
d="M424 -18q-156 0 -250 107.5t-94 313.5v1031h203v-1049q0 -107 38 -161t103 -54q64 0 101.5 54t37.5 161v1049h203v-1031q0 -206 -93.5 -313.5t-248.5 -107.5zM424 1470q-73 0 -123.5 47.5t-50.5 118.5q0 70 51.5 118t122.5 48q73 0 123.5 -47.5t50.5 -118.5t-50.5 -118.5
t-123.5 -47.5zM424 1550q37 0 61.5 24t24.5 62q0 37 -24.5 61.5t-61.5 24.5t-61.5 -24.5t-24.5 -61.5q0 -38 24.5 -62t61.5 -24z" />
    <glyph glyph-name="uring" unicode="&#x16f;" horiz-adv-x="772" 
d="M383 1153q-73 0 -123.5 51t-50.5 127t50.5 127t123.5 51t123.5 -51t50.5 -127q0 -75 -51 -126.5t-123 -51.5zM383 1235q37 0 61.5 27.5t24.5 68.5t-24.5 70t-61.5 29t-61.5 -29t-24.5 -70t24.5 -68.5t61.5 -27.5zM295 -18q-104 0 -162.5 81.5t-58.5 219.5v809h194v-766
q0 -82 28.5 -126t80.5 -44q54 0 87.5 47t33.5 127v762h194v-1092h-194v139q-75 -157 -203 -157z" />
    <glyph glyph-name="Uhungarumlaut" unicode="&#x170;" horiz-adv-x="845" 
d="M424 -18q-156 0 -250 107.5t-94 313.5v1031h203v-1049q0 -107 38 -161t103 -54q64 0 101.5 54t37.5 161v1049h203v-1031q0 -206 -93.5 -313.5t-248.5 -107.5zM229 1499l162 246l158 -86l-182 -160h-138zM455 1499l161 246l158 -86l-182 -160h-137z" />
    <glyph glyph-name="uhungarumlaut" unicode="&#x171;" horiz-adv-x="772" 
d="M295 -18q-104 0 -162.5 81.5t-58.5 219.5v809h194v-766q0 -82 28.5 -126t80.5 -44q54 0 87.5 47t33.5 127v762h194v-1092h-194v139q-75 -157 -203 -157zM412 1167l163 289l148 -84l-184 -205h-127zM195 1167l163 289l148 -84l-184 -205h-127z" />
    <glyph glyph-name="Uogonek" unicode="&#x172;" horiz-adv-x="845" 
d="M537 -166v-119q-43 -6 -70 -6q-87 0 -132.5 34t-45.5 97q0 77 65 148q-127 23 -200.5 128t-73.5 287v1031h203v-1049q0 -107 38 -161t103 -54q64 0 101.5 54t37.5 161v1049h203v-1031q0 -182 -74 -288t-200 -127q-39 -55 -39 -99q0 -33 20.5 -45.5t63.5 -9.5z" />
    <glyph glyph-name="uogonek" unicode="&#x173;" horiz-adv-x="772" 
d="M295 -18q-104 0 -162.5 81.5t-58.5 219.5v809h194v-766q0 -82 28.5 -126t80.5 -44q54 0 87.5 47t33.5 127v762h194v-1092h-26q-50 -67 -50 -111q0 -33 20.5 -45.5t63.5 -9.5v-119q-43 -6 -69 -6q-87 0 -132.5 34t-45.5 97q0 79 75 160h-30v139q-75 -157 -203 -157z" />
    <glyph glyph-name="Wcircumflex" unicode="&#x174;" horiz-adv-x="1224" 
d="M250 -6l-227 1440h208l131 -992l158 992h187l155 -992l133 992h203l-225 -1440h-209l-154 971l-151 -971h-209zM379 1511l149 230h164l150 -230h-144l-90 105l-90 -105h-139z" />
    <glyph glyph-name="wcircumflex" unicode="&#x175;" horiz-adv-x="1081" 
d="M311 1180l154 274h147l154 -274h-133l-96 135l-97 -135h-129zM233 -4l-198 1096h198l111 -723l121 723h156l120 -723l113 723h193l-199 -1096h-182l-125 702l-123 -702h-185z" />
    <glyph glyph-name="Ycircumflex" unicode="&#x176;" horiz-adv-x="763" 
d="M281 0v582l-277 852h211l170 -586l170 586h205l-277 -852v-582h-202zM152 1501l149 230h164l149 -230h-143l-90 105l-90 -105h-139z" />
    <glyph glyph-name="ycircumflex" unicode="&#x177;" horiz-adv-x="731" 
d="M362 362l146 730h190l-309 -1358h-188l67 297l-235 1061h192zM139 1171l154 275h147l154 -275h-133l-96 136l-97 -136h-129z" />
    <glyph glyph-name="Ydieresis" unicode="&#x178;" horiz-adv-x="763" 
d="M281 0v582l-277 852h211l170 -586l170 586h205l-277 -852v-582h-202zM430 1509v193h184v-193h-184zM152 1509v193h184v-193h-184z" />
    <glyph glyph-name="Zacute" unicode="&#x179;" horiz-adv-x="694" 
d="M51 0v156l373 1089h-356v189h577v-156l-373 -1090h373v-188h-594zM270 1509l162 246l174 -86l-190 -160h-146z" />
    <glyph glyph-name="zacute" unicode="&#x17a;" horiz-adv-x="593" 
d="M227 1178l162 288l162 -86l-191 -202h-133zM33 0v135l319 791h-305v166h514v-138l-319 -788h317v-166h-526z" />
    <glyph glyph-name="Zdotaccent" unicode="&#x17b;" horiz-adv-x="694" 
d="M260 1520v192h189v-192h-189zM51 0v156l373 1089h-356v189h577v-156l-373 -1090h373v-188h-594z" />
    <glyph glyph-name="zdotaccent" unicode="&#x17c;" horiz-adv-x="593" 
d="M33 0v135l319 791h-305v166h514v-138l-319 -788h317v-166h-526zM213 1188v196h184v-196h-184z" />
    <glyph glyph-name="Zcaron" unicode="&#x17d;" horiz-adv-x="694" 
d="M586 1741l-150 -230h-164l-149 230h143l90 -105l90 105h140zM51 0v156l373 1089h-356v189h577v-156l-373 -1090h373v-188h-594z" />
    <glyph glyph-name="zcaron" unicode="&#x17e;" horiz-adv-x="593" 
d="M532 1456l-153 -274h-148l-153 274h133l96 -135l96 135h129zM33 0v135l319 791h-305v166h514v-138l-319 -788h317v-166h-526z" />
    <glyph glyph-name="uni018F" unicode="&#x18f;" horiz-adv-x="811" 
d="M98 1374q124 78 244 78q191 0 301.5 -180t110.5 -522v-56q0 -350 -98 -531t-261 -181q-332 0 -332 714v125h486q-14 439 -223 439q-91 0 -211 -78zM399 166q69 0 109 118.5t43 362.5h-291q-3 -481 139 -481z" />
    <glyph glyph-name="florin" unicode="&#x192;" horiz-adv-x="675" 
d="M125 -10q-51 0 -105 12v178q36 -8 64 -8q86 0 94 119l39 467h-98v160h110l21 241q10 138 80 211.5t184 73.5q78 0 137 -19v-180q-53 17 -90 17q-107 0 -119 -140l-18 -204h178v-160h-188l-41 -492q-22 -276 -248 -276z" />
    <glyph glyph-name="Aringacute" unicode="&#x1fa;" horiz-adv-x="823" 
d="M18 0l273 1378q-51 48 -51 121q0 70 51 118t123 48q71 0 121.5 -48t50.5 -118q0 -73 -56 -123l275 -1376h-205l-57 319h-271l-57 -319h-197zM303 502h209l-104 575zM338 1700l154 205l172 -84l-172 -121h-154zM412 1411q37 0 61.5 25t24.5 63q0 37 -24.5 61.5t-61.5 24.5
t-60.5 -24.5t-23.5 -61.5q0 -38 23.5 -63t60.5 -25z" />
    <glyph glyph-name="aringacute" unicode="&#x1fb;" horiz-adv-x="714" 
d="M279 1579l149 221l160 -76l-170 -145h-139zM256 -18q-97 0 -158 89t-61 236v31q0 170 68 258t188 88q79 0 156 -41v86q0 94 -42.5 143.5t-125.5 49.5q-87 0 -189 -52v187q106 47 215 47q155 0 244 -86q92 -92 92 -275v-743h-197v129q-66 -147 -190 -147zM330 145
q51 0 85 44.5t34 113.5v197q-62 28 -107 28q-56 0 -86.5 -46t-30.5 -134v-24q0 -88 28 -133.5t77 -45.5zM354 1176q-73 0 -123.5 51t-50.5 127t50.5 127t123.5 51t123.5 -51t50.5 -127q0 -75 -51 -126.5t-123 -51.5zM354 1257q37 0 61.5 28t24.5 69t-24.5 69.5t-61.5 28.5
t-61.5 -28.5t-24.5 -69.5t24.5 -69t61.5 -28z" />
    <glyph glyph-name="AEacute" unicode="&#x1fc;" horiz-adv-x="1103" 
d="M530 1509l162 246l174 -86l-190 -160h-146zM-6 0l385 1434h668v-191h-328v-426h293v-190h-293v-437h334v-190h-537v319h-246l-80 -319h-196zM313 502h203v727h-18z" />
    <glyph glyph-name="aeacute" unicode="&#x1fd;" horiz-adv-x="1107" 
d="M471 1178l162 288l162 -86l-191 -202h-133zM279 -18q-112 0 -177 88t-65 237v31q0 170 68 258t188 88q79 0 156 -41v86q0 94 -43 143.5t-125 49.5q-80 0 -189 -52v187q106 47 221 47q175 0 246 -139q35 69 87.5 106t115.5 37q139 0 221 -142t82 -403v-106h-430
q9 -148 63 -220.5t133 -72.5q51 0 92 17.5t99 58.5l16 -183q-65 -40 -115.5 -57.5t-115.5 -17.5q-95 0 -170 55.5t-119 161.5q-29 -96 -91.5 -156.5t-147.5 -60.5zM635 612h246q0 153 -31 237.5t-88 84.5q-56 0 -90 -81t-37 -241zM338 145q46 0 85.5 49.5t59.5 131.5
q-16 85 -16 170q-66 32 -125 32q-56 0 -86.5 -46t-30.5 -134v-24q0 -87 29.5 -133t83.5 -46z" />
    <glyph glyph-name="Oslashacute" unicode="&#x1fe;" horiz-adv-x="851" 
d="M662 1446h124l-81 -195q90 -185 90 -503v-62q0 -344 -100 -524t-269 -180q-117 0 -203 86l-33 -80h-124l79 194q-88 187 -88 504v62q0 344 100 524t269 180q119 0 201 -88zM258 686q0 -134 8 -213l281 678q-42 121 -121 121q-37 0 -67 -28.5t-53 -89t-35.5 -163.5
t-12.5 -243v-62zM426 162q37 0 67 28.5t53 89t35.5 163.5t12.5 243v62q0 112 -10 210l-281 -675q45 -121 123 -121zM340 1520l162 245l174 -86l-191 -159h-145z" />
    <glyph glyph-name="oslashacute" unicode="&#x1ff;" horiz-adv-x="763" 
d="M598 1102h125l-86 -166q76 -142 76 -367v-51q0 -253 -92.5 -394.5t-237.5 -141.5q-106 0 -182 73l-35 -69h-123l84 166q-74 142 -74 366v51q0 253 93 396t237 143q103 0 180 -74zM383 152q63 0 104 97t41 267v57q0 81 -8 136l-237 -473q38 -84 100 -84zM238 516
q0 -75 6 -133l237 471q-37 82 -98 82q-65 0 -105 -95.5t-40 -267.5v-57zM305 1184l162 289l162 -87l-191 -202h-133z" />
    <glyph glyph-name="Scommaaccent" unicode="&#x218;" horiz-adv-x="669" 
d="M303 -12q-132 0 -252 65v209q137 -84 230 -84q70 0 112.5 42.5t42.5 119.5q0 58 -31 121t-124 174q-97 114 -144.5 181.5t-72.5 134.5t-25 145v2q0 155 95 251.5t239 96.5q118 0 215 -51v-209q-61 37 -106 53t-93 16q-63 0 -105 -41t-42 -110q0 -57 30.5 -112.5
t126.5 -170.5q142 -169 191 -266t49 -213v-2q0 -157 -96 -254.5t-240 -97.5zM233 -442l-14 67q57 12 77 35.5t17 73.5h-82v164h185v-148q0 -90 -45 -134t-138 -58z" />
    <glyph glyph-name="scommaaccent" unicode="&#x219;" horiz-adv-x="579" 
d="M260 -18q-106 0 -221 51v194q128 -69 211 -69q52 0 82 29t30 81q0 43 -28.5 87.5t-108.5 121.5q-101 99 -146.5 176.5t-45.5 169.5v4q0 127 81 203t210 76q98 0 178 -31v-192q-92 47 -170 47q-51 0 -81 -27t-30 -72q0 -41 27.5 -80.5t116.5 -125.5q104 -103 145 -180
t41 -169v-4q0 -131 -83.5 -210.5t-207.5 -79.5zM190 -442l-14 67q57 12 77 35.5t17 73.5h-82v164h185v-148q0 -90 -45 -134t-138 -58z" />
    <glyph glyph-name="schwa" unicode="&#x259;" horiz-adv-x="714" 
d="M301 1106q156 0 261.5 -141.5t105.5 -395.5v-43q0 -258 -92 -401t-230 -143q-139 0 -221 141.5t-82 400.5v109h430q-9 147 -63.5 219t-133.5 72q-51 0 -92 -17t-98 -57l-16 180q64 41 115 58.5t116 17.5zM473 477h-246q0 -154 31 -237.5t88 -83.5q56 0 90 80t37 241z" />
    <glyph glyph-name="circumflex" unicode="&#x2c6;" horiz-adv-x="1024" 
d="M285 1182l153 274h148l153 -274h-133l-96 135l-96 -135h-129z" />
    <glyph glyph-name="caron" unicode="&#x2c7;" horiz-adv-x="1024" 
d="M739 1456l-153 -274h-148l-153 274h133l96 -135l96 135h129z" />
    <glyph glyph-name="breve" unicode="&#x2d8;" horiz-adv-x="1024" 
d="M512 1171q-94 0 -156 58t-69 172h121q16 -103 104 -103t104 103h123q-9 -114 -71 -172t-156 -58z" />
    <glyph glyph-name="dotaccent" unicode="&#x2d9;" horiz-adv-x="1024" 
d="M420 1188v196h184v-196h-184z" />
    <glyph glyph-name="ring" unicode="&#x2da;" horiz-adv-x="1024" 
d="M512 1169q-73 0 -123.5 51.5t-50.5 127.5t50.5 127t123.5 51t123.5 -51t50.5 -127q0 -75 -51 -127t-123 -52zM512 1251q37 0 61.5 28t24.5 69t-24.5 69.5t-61.5 28.5t-61.5 -28.5t-24.5 -69.5t24.5 -69t61.5 -28z" />
    <glyph glyph-name="ogonek" unicode="&#x2db;" horiz-adv-x="1024" 
d="M629 -166v-119q-43 -6 -70 -6q-87 0 -132.5 34t-45.5 97q0 48 22.5 87.5t69.5 88.5h133q-61 -77 -61 -127q0 -33 20.5 -45.5t63.5 -9.5z" />
    <glyph glyph-name="tilde" unicode="&#x2dc;" horiz-adv-x="1024" 
d="M629 1178q-41 0 -121 45q-52 34 -80 34q-21 0 -33 -17.5t-24 -63.5l-113 26q20 107 51.5 153t85.5 46q47 0 121 -45q53 -35 80 -35q22 0 33 17.5t24 66.5l113 -29q-20 -106 -51.5 -152t-85.5 -46z" />
    <glyph glyph-name="hungarumlaut" unicode="&#x2dd;" horiz-adv-x="1024" 
d="M459 1178l164 288l147 -84l-184 -204h-127zM242 1178l164 288l147 -84l-184 -204h-127z" />
    <glyph glyph-name="commaaccent" unicode="&#x326;" horiz-adv-x="1024" 
d="M428 -436l-14 67q57 12 77 35.5t17 73.5h-82v164h184v-148q0 -91 -44.5 -134.5t-137.5 -57.5z" />
    <glyph glyph-name="uni0384" unicode="&#x384;" horiz-adv-x="1024" 
d="M369 1178l104 288l168 -82l-147 -206h-125z" />
    <glyph glyph-name="uni0385" unicode="&#x385;" horiz-adv-x="1024" 
d="M641 1188v190h170v-190h-170zM219 1188v190h168v-190h-168zM424 1188l47 311l168 -37l-104 -274h-111z" />
    <glyph glyph-name="uni0386" unicode="&#x386;" horiz-adv-x="823" 
d="M18 0l285 1438h217l285 -1438h-205l-57 319h-271l-57 -319h-197zM303 502h209l-104 575zM12 1130l19 304h164l-76 -304h-107z" />
    <glyph glyph-name="uni0387" unicode="&#x387;" horiz-adv-x="425" 
d="M94 842v250h236v-250h-236z" />
    <glyph glyph-name="uni0388" unicode="&#x388;" horiz-adv-x="673" 
d="M-150 1130l19 304h164l-76 -304h-107zM86 0v1434h530v-191h-327v-426h293v-190h-293v-437h334v-190h-537z" />
    <glyph glyph-name="uni0389" unicode="&#x389;" horiz-adv-x="860" 
d="M86 0v1434h203v-617h284v617h201v-1434h-201v625h-284v-625h-203zM-150 1130l19 304h164l-76 -304h-107z" />
    <glyph glyph-name="uni038A" unicode="&#x38a;" horiz-adv-x="389" 
d="M94 0v1434h201v-1434h-201zM-143 1130l18 304h164l-76 -304h-106z" />
    <glyph glyph-name="uni038C" unicode="&#x38c;" horiz-adv-x="851" 
d="M-90 1143l18 303h164l-76 -303h-106zM426 -18q-169 0 -269 180t-100 524v62q0 344 100 524t269 180t269 -180t100 -524v-62q0 -344 -100 -524t-269 -180zM426 166q164 0 164 520v62q0 520 -164 520t-164 -520v-62q0 -520 164 -520z" />
    <glyph glyph-name="uni038E" unicode="&#x38e;" horiz-adv-x="763" 
d="M281 0v582l-277 852h211l170 -586l170 586h205l-277 -852v-582h-202zM-213 1130l18 304h164l-75 -304h-107z" />
    <glyph glyph-name="uni038F" unicode="&#x38f;" horiz-adv-x="876" 
d="M440 1452q172 0 270.5 -142.5t98.5 -432.5v-23q0 -334 -176 -664l186 3v-193h-336v182q58 159 89.5 314t31.5 344v12q0 153 -21.5 247.5t-56.5 131.5t-88 37q-54 0 -88.5 -36.5t-55 -130t-20.5 -247.5v-12q0 -189 31.5 -345.5t89.5 -314.5v-182h-336v193l187 -3
q-176 321 -176 664v23q0 289 98.5 432t271.5 143zM-96 1145l18 303h164l-76 -303h-106z" />
    <glyph glyph-name="uni0390" unicode="&#x390;" horiz-adv-x="395" 
d="M303 1188v190h170v-190h-170zM-119 1188v190h168v-190h-168zM86 1188l47 311l168 -37l-104 -274h-111zM78 199v893h194v-842q0 -49 15.5 -67.5t50.5 -18.5q19 0 47 4v-156q-57 -22 -123 -22q-184 0 -184 209z" />
    <glyph glyph-name="uni0391" unicode="&#x391;" horiz-adv-x="823" 
d="M18 0l285 1438h217l285 -1438h-205l-57 319h-271l-57 -319h-197zM303 502h209l-104 575z" />
    <glyph glyph-name="uni0392" unicode="&#x392;" horiz-adv-x="790" 
d="M86 0v1434h205q229 0 346 -117q96 -96 96 -246v-8q0 -242 -225 -330q244 -87 244 -330v-14q0 -183 -127.5 -286t-337.5 -103h-201zM532 1034v4q0 102 -58 155.5t-159 53.5h-30v-436h22q106 0 165.5 58t59.5 165zM549 414q0 104 -64.5 162.5t-173.5 58.5h-26v-449h22
q109 0 175.5 57.5t66.5 159.5v11z" />
    <glyph glyph-name="uni0393" unicode="&#x393;" horiz-adv-x="604" 
d="M86 0v1434h496v-191h-293v-1243h-203z" />
    <glyph glyph-name="uni0394" unicode="&#x394;" horiz-adv-x="827" 
d="M59 0l-20 158l264 1280h221l264 -1280l-20 -158h-709zM238 186h344l-172 922z" />
    <glyph glyph-name="uni0395" unicode="&#x395;" horiz-adv-x="673" 
d="M86 0v1434h530v-191h-327v-426h293v-190h-293v-437h334v-190h-537z" />
    <glyph glyph-name="uni0396" unicode="&#x396;" horiz-adv-x="694" 
d="M51 0v156l373 1089h-356v189h577v-156l-373 -1090h373v-188h-594z" />
    <glyph glyph-name="uni0397" unicode="&#x397;" horiz-adv-x="860" 
d="M86 0v1434h203v-617h284v617h201v-1434h-201v625h-284v-625h-203z" />
    <glyph glyph-name="uni0398" unicode="&#x398;" horiz-adv-x="847" 
d="M424 -18q-167 0 -267 180t-100 524v62q0 344 100 524t267 180t268 -180t101 -524v-62q0 -344 -101 -524t-268 -180zM424 164q76 0 122 112.5t50 354.5h-342q8 -467 170 -467zM424 1270q-159 0 -170 -457h340q-8 457 -170 457z" />
    <glyph glyph-name="uni0399" unicode="&#x399;" horiz-adv-x="389" 
d="M94 0v1434h201v-1434h-201z" />
    <glyph glyph-name="uni039A" unicode="&#x39a;" horiz-adv-x="804" 
d="M86 0v1434h203v-674l264 674h221l-266 -619l283 -815h-220l-206 590l-76 -180v-410h-203z" />
    <glyph glyph-name="uni039B" unicode="&#x39b;" horiz-adv-x="796" 
d="M502 1438l276 -1438h-207l-176 1028l-178 -1028h-199l275 1438h209z" />
    <glyph glyph-name="uni039C" unicode="&#x39c;" horiz-adv-x="991" 
d="M86 0v1434h209l201 -621l200 621h209v-1434h-194v979l-213 -633h-4l-213 633v-979h-195z" />
    <glyph glyph-name="uni039D" unicode="&#x39d;" horiz-adv-x="872" 
d="M86 0v1434h193l313 -881v881h194v-1434h-180l-325 913v-913h-195z" />
    <glyph glyph-name="uni039E" unicode="&#x39e;" horiz-adv-x="661" 
d="M606 1243h-551v191h551v-191zM582 627h-500v190h500v-190zM612 0h-561v190h561v-190z" />
    <glyph glyph-name="uni039F" unicode="&#x39f;" horiz-adv-x="851" 
d="M426 -18q-169 0 -269 180t-100 524v62q0 344 100 524t269 180t269 -180t100 -524v-62q0 -344 -100 -524t-269 -180zM426 166q164 0 164 520v62q0 520 -164 520t-164 -520v-62q0 -520 164 -520z" />
    <glyph glyph-name="uni03A0" unicode="&#x3a0;" horiz-adv-x="860" 
d="M86 0v1434h688v-1434h-201v1243h-284v-1243h-203z" />
    <glyph glyph-name="uni03A1" unicode="&#x3a1;" horiz-adv-x="776" 
d="M86 0v1434h209q207 0 327.5 -120.5t120.5 -352.5v-5q0 -225 -115.5 -348.5t-314.5 -134.5h-24v-473h-203zM289 659h26q104 3 165 77.5t61 213.5v4q0 146 -59 219.5t-163 73.5h-30v-588z" />
    <glyph glyph-name="uni03A3" unicode="&#x3a3;" horiz-adv-x="686" 
d="M506 717l-232 -529h363v-188h-586v156l246 561l-246 563v154h582v-189h-359z" />
    <glyph glyph-name="uni03A4" unicode="&#x3a4;" horiz-adv-x="647" 
d="M223 0v1243h-194v191h589v-191h-194v-1243h-201z" />
    <glyph glyph-name="uni03A5" unicode="&#x3a5;" horiz-adv-x="763" 
d="M281 0v582l-277 852h211l170 -586l170 586h205l-277 -852v-582h-202z" />
    <glyph glyph-name="uni03A6" unicode="&#x3a6;" horiz-adv-x="1179" 
d="M489 -16v153q-199 25 -321.5 178.5t-122.5 399.5v12q0 250 122 401t322 177v149h201v-149q198 -26 320.5 -177.5t122.5 -400.5v-10q0 -248 -122 -401.5t-321 -178.5v-153h-201zM248 713q0 -173 65.5 -276.5t180.5 -125.5v819q-118 -22 -182 -124t-64 -277v-16zM932 731
q0 170 -65.5 272.5t-180.5 126.5v-819q117 22 181.5 125.5t64.5 278.5v16z" />
    <glyph glyph-name="uni03A7" unicode="&#x3a7;" horiz-adv-x="782" 
d="M532 1434h209l-229 -691l246 -743h-215l-154 514l-156 -514h-208l243 739l-231 695h215l139 -476z" />
    <glyph glyph-name="uni03A8" unicode="&#x3a8;" horiz-adv-x="1167" 
d="M1094 1434v-682q0 -115 -29.5 -198t-86 -131.5t-128 -72t-164.5 -26.5v-324h-203v324q-94 2 -166.5 25.5t-128 72t-85 132t-29.5 198.5v682h200v-695q0 -125 52.5 -175.5t158.5 -53.5v924h199v-924q106 3 157.5 52.5t51.5 174.5v697h201z" />
    <glyph glyph-name="uni03A9" unicode="&#x3a9;" horiz-adv-x="876" 
d="M440 1452q172 0 270.5 -142.5t98.5 -432.5v-23q0 -334 -176 -664l186 3v-193h-336v182q58 159 89.5 314t31.5 344v12q0 153 -21.5 247.5t-56.5 131.5t-88 37q-54 0 -88.5 -36.5t-55 -130t-20.5 -247.5v-12q0 -189 31.5 -345.5t89.5 -314.5v-182h-336v193l187 -3
q-176 321 -176 664v23q0 289 98.5 432t271.5 143z" />
    <glyph glyph-name="uni03AA" unicode="&#x3aa;" horiz-adv-x="389" 
d="M94 0v1434h201v-1434h-201zM242 1520v192h184v-192h-184zM-37 1520v192h184v-192h-184z" />
    <glyph glyph-name="uni03AB" unicode="&#x3ab;" horiz-adv-x="763" 
d="M281 0v582l-277 852h211l170 -586l170 586h205l-277 -852v-582h-202zM430 1509v193h184v-193h-184zM152 1509v193h184v-193h-184z" />
    <glyph glyph-name="uni03AC" unicode="&#x3ac;" horiz-adv-x="825" 
d="M815 166v-156q-61 -22 -123 -22q-165 0 -180 166q-39 -81 -87.5 -126.5t-119.5 -45.5q-53 0 -97 29t-78.5 89.5t-53.5 163.5t-19 242v80q0 268 68.5 396t179.5 128q38 0 70.5 -15t56.5 -42t41 -54.5t33 -62.5v156h196v-844q0 -50 15 -69t51 -19q26 0 47 6zM377 166
q59 0 96 91.5t37 254.5v68q0 163 -37 254.5t-96 91.5q-58 0 -91.5 -91.5t-33.5 -256.5v-64q0 -166 33.5 -257t91.5 -91zM344 1184l105 289l167 -82l-147 -207h-125z" />
    <glyph glyph-name="uni03AD" unicode="&#x3ad;" horiz-adv-x="598" 
d="M268 1184l105 289l168 -82l-148 -207h-125zM483 463h-71q-174 0 -174 -158v-4q0 -68 35.5 -104.5t105.5 -36.5q86 0 176 45v-185q-84 -38 -203 -38q-148 0 -225.5 76t-77.5 221v4q0 201 178 270q-76 26 -124 88t-48 164v8q0 130 82.5 212.5t216.5 82.5q100 0 191 -43
v-188q-94 51 -164 51q-64 0 -100.5 -39.5t-36.5 -106.5v-4q0 -145 174 -145h65v-170z" />
    <glyph glyph-name="uni03AE" unicode="&#x3ae;" horiz-adv-x="772" 
d="M328 1184l104 289l168 -82l-147 -207h-125zM274 0h-194v1092h194v-140q75 158 203 158q105 0 163 -81.5t58 -221.5v-1073h-194v1032q0 82 -28.5 126t-80.5 44q-54 0 -87.5 -47t-33.5 -127v-762z" />
    <glyph glyph-name="uni03AF" unicode="&#x3af;" horiz-adv-x="395" 
d="M115 1178l104 288l168 -82l-147 -206h-125zM78 199v893h194v-842q0 -49 15.5 -67.5t50.5 -18.5q19 0 47 4v-156q-57 -22 -123 -22q-184 0 -184 209z" />
    <glyph glyph-name="uni03B0" unicode="&#x3b0;" horiz-adv-x="770" 
d="M512 1178v190h170v-190h-170zM90 1178v190h168v-190h-168zM295 1178l47 311l168 -37l-104 -274h-111zM385 -18q-311 0 -311 366v744h194v-754q0 -178 117 -178q119 0 119 178v754h194v-744q0 -177 -81 -271.5t-232 -94.5z" />
    <glyph glyph-name="uni03B1" unicode="&#x3b1;" horiz-adv-x="825" 
d="M815 166v-156q-61 -22 -123 -22q-165 0 -180 166q-39 -81 -87.5 -126.5t-119.5 -45.5q-53 0 -97 29t-78.5 89.5t-53.5 163.5t-19 242v80q0 268 68.5 396t179.5 128q38 0 70.5 -15t56.5 -42t41 -54.5t33 -62.5v156h196v-844q0 -50 15 -69t51 -19q26 0 47 6zM377 166
q59 0 96 91.5t37 254.5v68q0 163 -37 254.5t-96 91.5q-58 0 -91.5 -91.5t-33.5 -256.5v-64q0 -166 33.5 -257t91.5 -91z" />
    <glyph glyph-name="uni03B2" unicode="&#x3b2;" horiz-adv-x="790" 
d="M492 -18q-143 0 -218 174v-422h-194v1321q0 184 85.5 291.5t246.5 107.5q145 0 231 -101t86 -259v-11q0 -130 -54.5 -224.5t-152.5 -135.5q110 -41 166.5 -121.5t56.5 -224.5v-15q0 -180 -68 -280t-185 -100zM430 166q55 0 88 50t33 157v6q0 134 -50.5 197t-158.5 63h-70
v-162q0 -149 41.5 -230t116.5 -81zM272 1071v-274h74q189 0 189 268v4q0 99 -33.5 156t-95.5 57q-64 0 -99 -53.5t-35 -157.5z" />
    <glyph glyph-name="uni03B3" unicode="&#x3b3;" horiz-adv-x="733" 
d="M465 -266h-197v289l-237 1069h194l144 -758l143 758h190l-237 -1069v-289z" />
    <glyph glyph-name="uni03B4" unicode="&#x3b4;" horiz-adv-x="765" 
d="M141 1292v154h514v-170l-293 2l148 -211q106 -154 152.5 -292.5t46.5 -299.5v-8q0 -233 -91.5 -359t-236.5 -126q-148 0 -238 123t-90 352v8q0 171 54.5 313t179.5 297zM516 465q0 132 -28.5 240t-106.5 231q-135 -219 -135 -471v-8q0 -301 135 -301q63 0 99 76t36 225v8
z" />
    <glyph glyph-name="uni03B5" unicode="&#x3b5;" horiz-adv-x="598" 
d="M483 463h-71q-174 0 -174 -158v-4q0 -68 35.5 -104.5t105.5 -36.5q86 0 176 45v-185q-84 -38 -203 -38q-148 0 -225.5 76t-77.5 221v4q0 201 178 270q-76 26 -124 88t-48 164v8q0 130 82.5 212.5t216.5 82.5q100 0 191 -43v-188q-94 51 -164 51q-64 0 -100.5 -39.5
t-36.5 -106.5v-4q0 -145 174 -145h65v-170z" />
    <glyph glyph-name="uni03B6" unicode="&#x3b6;" horiz-adv-x="665" 
d="M621 117v-322h-175v193l-137 51q-134 47 -199 120t-65 191v8q0 62 23.5 133.5t87.5 210.5l256 574h-303v170h514v-137l-301 -680q-50 -112 -67 -164.5t-17 -89.5v-4q0 -65 37.5 -104t134.5 -74z" />
    <glyph glyph-name="uni03B7" unicode="&#x3b7;" horiz-adv-x="772" 
d="M274 0h-194v1092h194v-140q75 158 203 158q105 0 163 -81.5t58 -221.5v-1073h-194v1032q0 82 -28.5 126t-80.5 44q-54 0 -87.5 -47t-33.5 -127v-762z" />
    <glyph glyph-name="uni03B8" unicode="&#x3b8;" horiz-adv-x="786" 
d="M393 -18q-325 0 -325 702v64q0 702 325 702q328 0 328 -702v-64q0 -702 -328 -702zM393 154q66 0 101 112t38 371h-278q1 -259 36.5 -371t102.5 -112zM393 1276q-45 0 -74 -44t-46 -150.5t-19 -282.5h278q-3 258 -38 367.5t-101 109.5z" />
    <glyph glyph-name="uni03B9" unicode="&#x3b9;" horiz-adv-x="395" 
d="M78 199v893h194v-842q0 -49 15.5 -67.5t50.5 -18.5q19 0 47 4v-156q-57 -22 -123 -22q-184 0 -184 209z" />
    <glyph glyph-name="uni03BA" unicode="&#x3ba;" horiz-adv-x="722" 
d="M274 1092v-517l213 517h213l-213 -469l205 -623h-213l-135 438l-70 -164v-274h-194v1092h194z" />
    <glyph glyph-name="uni03BB" unicode="&#x3bb;" horiz-adv-x="737" 
d="M223 0h-190l239 1102l-16 76q-12 54 -37 75t-72 21q-28 0 -55 -6v170q56 16 109 16q94 0 150.5 -51.5t82.5 -169.5l277 -1233h-195l-147 795z" />
    <glyph glyph-name="uni03BC" unicode="&#x3bc;" horiz-adv-x="827" 
d="M817 168v-156q-55 -22 -119 -22q-109 0 -143 106q-45 -108 -139 -108q-106 0 -158 137h-4q18 -106 18 -250v-141h-192v1358h194v-756q0 -82 32 -127t87 -45q53 0 85 45.5t32 126.5v756h195v-859q1 -40 16.5 -55.5t50.5 -15.5q24 0 45 6z" />
    <glyph glyph-name="uni03BD" unicode="&#x3bd;" horiz-adv-x="733" 
d="M270 -4l-239 1096h194l144 -779l143 779h190l-237 -1096h-195z" />
    <glyph glyph-name="uni03BE" unicode="&#x3be;" horiz-adv-x="645" 
d="M598 1407v-195q-89 54 -162 54q-77 0 -121.5 -53.5t-44.5 -149.5v-4q0 -219 191 -219h63v-174h-63q-221 0 -221 -230v-4q0 -100 45.5 -159.5t169.5 -102.5l147 -53v-322h-174v193l-96 37q-155 59 -220 154t-65 235v8q0 259 205 342q-176 90 -176 311v6q0 162 92 263.5
t248 101.5q106 0 182 -39z" />
    <glyph glyph-name="uni03BF" unicode="&#x3bf;" horiz-adv-x="763" 
d="M383 -18q-145 0 -237.5 141.5t-92.5 394.5v51q0 253 93 396t237 143t237 -143t93 -396v-51q0 -253 -92.5 -394.5t-237.5 -141.5zM383 156q60 0 96.5 94.5t36.5 265.5v57q0 173 -36.5 267t-96.5 94q-62 0 -98.5 -94t-36.5 -267v-57q0 -171 37 -265.5t98 -94.5z" />
    <glyph glyph-name="uni03C0" unicode="&#x3c0;" horiz-adv-x="886" 
d="M545 199v708h-215v-907h-195v907h-115v185h834v-185h-115v-657q0 -49 15.5 -67.5t50.5 -18.5q19 0 47 4v-156q-57 -22 -123 -22q-184 0 -184 209z" />
    <glyph glyph-name="uni03C1" unicode="&#x3c1;" horiz-adv-x="774" 
d="M74 -266v897q0 477 319 477q160 0 243 -135t83 -400v-59q0 -272 -69 -402t-179 -130q-39 0 -71.5 14.5t-57 42t-41 54t-33.5 63.5v-422h-194zM399 166q58 0 90.5 91t32.5 257v59q0 361 -129 361q-127 0 -127 -346v-76q0 -163 37 -254.5t96 -91.5z" />
    <glyph glyph-name="uni03C2" unicode="&#x3c2;" horiz-adv-x="583" 
d="M369 -205v195l-70 47q-125 80 -185.5 205.5t-60.5 320.5v21q0 251 95 386.5t249 135.5q75 0 142 -31v-201q-72 44 -125 44q-75 0 -119.5 -82t-44.5 -252v-11q0 -156 42.5 -240t151.5 -153l97 -59v-326h-172z" />
    <glyph glyph-name="uni03C3" unicode="&#x3c3;" horiz-adv-x="780" 
d="M383 -18q-145 0 -237.5 139.5t-92.5 388.5v51q0 253 94 392t256 139h363v-181l-180 9q127 -164 127 -412v-4q0 -241 -93 -381.5t-237 -140.5zM383 156q60 0 96.5 91.5t36.5 256.5v57q0 171 -36 264t-97 93q-62 0 -98.5 -92t-36.5 -261v-57q0 -168 37 -260t98 -92z" />
    <glyph glyph-name="uni03C4" unicode="&#x3c4;" horiz-adv-x="598" 
d="M573 907h-184v-655q0 -50 20.5 -69t65.5 -19q40 0 76 10v-158q-69 -26 -143 -26q-213 0 -213 215v702h-175v185h553v-185z" />
    <glyph glyph-name="uni03C5" unicode="&#x3c5;" horiz-adv-x="770" 
d="M385 -18q-311 0 -311 366v744h194v-754q0 -178 117 -178q119 0 119 178v754h194v-744q0 -177 -81 -271.5t-232 -94.5z" />
    <glyph glyph-name="uni03C6" unicode="&#x3c6;" horiz-adv-x="1087" 
d="M641 -266h-195v262q-176 21 -284.5 165t-108.5 374v20q0 230 108.5 374.5t284.5 166.5v350h195v-350q176 -21 285.5 -165.5t109.5 -375.5v-20q0 -229 -110 -373.5t-285 -165.5v-262zM844 555q0 158 -55.5 257t-151.5 116v-768q96 17 151.5 115.5t55.5 259.5v20zM246 535
q0 -159 54.5 -257.5t150.5 -117.5v768q-96 -17 -150.5 -115t-54.5 -258v-20z" />
    <glyph glyph-name="uni03C7" unicode="&#x3c7;" horiz-adv-x="727" 
d="M219 1092l146 -457l147 457h197l-234 -646l252 -712h-201l-166 526l-161 -526h-199l250 710l-232 648h201z" />
    <glyph glyph-name="uni03C8" unicode="&#x3c8;" horiz-adv-x="1122" 
d="M659 -266h-194v266q-391 10 -391 399v693h192v-689q0 -121 49.5 -171.5t149.5 -55.5v1270h192v-1270q100 3 149.5 53.5t49.5 173.5v689h195v-693q0 -389 -392 -399v-266z" />
    <glyph glyph-name="uni03C9" unicode="&#x3c9;" horiz-adv-x="1150" 
d="M483 872h185v-374q0 -165 32.5 -247.5t92.5 -82.5q104 0 104 250v4q0 320 -141 670h200q69 -175 102.5 -332.5t33.5 -337.5v-4q0 -207 -69 -321.5t-198 -114.5q-101 0 -160.5 64.5t-91.5 180.5q-64 -245 -247 -245q-129 0 -197 114t-68 322v4q0 182 33 340.5t101 329.5
h198q-137 -336 -137 -670v-4q0 -250 104 -250q123 0 123 330v374z" />
    <glyph glyph-name="uni03CA" unicode="&#x3ca;" horiz-adv-x="395" 
d="M219 1188v196h180v-196h-180zM-47 1188v196h180v-196h-180zM78 199v893h194v-842q0 -49 15.5 -67.5t50.5 -18.5q19 0 47 4v-156q-57 -22 -123 -22q-184 0 -184 209z" />
    <glyph glyph-name="uni03CB" unicode="&#x3cb;" horiz-adv-x="770" 
d="M430 1178v196h180v-196h-180zM164 1178v196h180v-196h-180zM385 -18q-311 0 -311 366v744h194v-754q0 -178 117 -178q119 0 119 178v754h194v-744q0 -177 -81 -271.5t-232 -94.5z" />
    <glyph glyph-name="uni03CC" unicode="&#x3cc;" horiz-adv-x="763" 
d="M322 1184l104 289l168 -82l-148 -207h-124zM383 -18q-145 0 -237.5 141.5t-92.5 394.5v51q0 253 93 396t237 143t237 -143t93 -396v-51q0 -253 -92.5 -394.5t-237.5 -141.5zM383 156q60 0 96.5 94.5t36.5 265.5v57q0 173 -36.5 267t-96.5 94q-62 0 -98.5 -94t-36.5 -267
v-57q0 -171 37 -265.5t98 -94.5z" />
    <glyph glyph-name="uni03CD" unicode="&#x3cd;" horiz-adv-x="770" 
d="M324 1167l104 289l168 -82l-147 -207h-125zM385 -18q-311 0 -311 366v744h194v-754q0 -178 117 -178q119 0 119 178v754h194v-744q0 -177 -81 -271.5t-232 -94.5z" />
    <glyph glyph-name="uni03CE" unicode="&#x3ce;" horiz-adv-x="1150" 
d="M514 1167l104 289l168 -82l-147 -207h-125zM483 872h185v-374q0 -165 32.5 -247.5t92.5 -82.5q104 0 104 250v4q0 320 -141 670h200q69 -175 102.5 -332.5t33.5 -337.5v-4q0 -207 -69 -321.5t-198 -114.5q-101 0 -160.5 64.5t-91.5 180.5q-64 -245 -247 -245
q-129 0 -197 114t-68 322v4q0 182 33 340.5t101 329.5h198q-137 -336 -137 -670v-4q0 -250 104 -250q123 0 123 330v374z" />
    <glyph glyph-name="uni0400" unicode="&#x400;" horiz-adv-x="673" 
d="M440 1509h-145l-191 160l175 86zM86 0v1434h530v-191h-327v-426h293v-190h-293v-437h334v-190h-537z" />
    <glyph glyph-name="uni0401" unicode="&#x401;" horiz-adv-x="673" 
d="M401 1520v192h185v-192h-185zM123 1520v192h184v-192h-184zM86 0v1434h530v-191h-327v-426h293v-190h-293v-437h334v-190h-537z" />
    <glyph glyph-name="uni0402" unicode="&#x402;" horiz-adv-x="917" 
d="M614 1434v-191h-198v-325q59 12 121 12q114 0 188.5 -46t116 -154.5t41.5 -283.5v-6q0 -127 -23 -215t-69 -137t-104.5 -69.5t-137.5 -20.5h-21v178h9q37 0 61 9.5t44 36t29 77t9 127.5v6q0 170 -36 235.5t-132 65.5q-60 0 -96 -10v-723h-203v1243h-182v191h583z" />
    <glyph glyph-name="uni0403" unicode="&#x403;" horiz-adv-x="604" 
d="M244 1509l162 246l174 -86l-191 -160h-145zM86 0v1434h496v-191h-293v-1243h-203z" />
    <glyph glyph-name="uni0404" unicode="&#x404;" horiz-adv-x="704" 
d="M463 -10q-185 0 -295.5 174t-110.5 530v45q0 182 32 319.5t89 220.5t131.5 124t165.5 41q103 0 168 -33v-209q-74 45 -151 45q-51 0 -90.5 -22.5t-71 -72t-49.5 -135t-21 -204.5h307v-182h-307q2 -127 20 -215.5t50 -138t72.5 -70.5t93.5 -21q77 0 151 45v-200
q-72 -41 -184 -41z" />
    <glyph glyph-name="uni0405" unicode="&#x405;" horiz-adv-x="669" 
d="M303 -12q-132 0 -252 65v209q137 -84 230 -84q70 0 112.5 42.5t42.5 119.5q0 58 -31 121t-124 174q-97 114 -144.5 181.5t-72.5 134.5t-25 145v2q0 155 95 251.5t239 96.5q118 0 215 -51v-209q-61 37 -106 53t-93 16q-63 0 -105 -41t-42 -110q0 -57 30.5 -112.5
t126.5 -170.5q142 -169 191 -266t49 -213v-2q0 -157 -96 -254.5t-240 -97.5z" />
    <glyph glyph-name="uni0406" unicode="&#x406;" horiz-adv-x="389" 
d="M94 0v1434h201v-1434h-201z" />
    <glyph glyph-name="uni0407" unicode="&#x407;" horiz-adv-x="389" 
d="M94 0v1434h201v-1434h-201zM242 1520v192h184v-192h-184zM-37 1520v192h184v-192h-184z" />
    <glyph glyph-name="uni0408" unicode="&#x408;" horiz-adv-x="567" 
d="M176 -12q-59 0 -141 20v199q61 -23 115 -23q135 0 135 154v1096h202v-1108q0 -167 -88 -258q-80 -80 -223 -80z" />
    <glyph glyph-name="uni0409" unicode="&#x409;" horiz-adv-x="1193" 
d="M516 0v1235h-8l-318 -1235h-196l391 1434h332v-492h4q203 0 321.5 -120.5t118.5 -342.5v-4q0 -225 -123.5 -350t-335.5 -125h-186zM717 188h24q99 3 158 75.5t59 207.5v4q0 139 -57.5 211t-157.5 72h-26v-570z" />
    <glyph glyph-name="uni040A" unicode="&#x40a;" horiz-adv-x="1236" 
d="M561 0v625h-272v-625h-203v1434h203v-617h272v617h201v-492h4q202 0 321 -120.5t119 -342.5v-4q0 -224 -124 -349.5t-334 -125.5h-187zM762 188h22q100 3 160 75.5t60 207.5v4q0 139 -58.5 211t-159.5 72h-24v-570z" />
    <glyph glyph-name="uni040B" unicode="&#x40b;" horiz-adv-x="950" 
d="M614 1434v-191h-198v-328q80 15 153 15q162 0 238 -85t76 -267v-578h-203v561q0 98 -30.5 135t-117.5 37q-60 0 -116 -12v-721h-203v1243h-182v191h583z" />
    <glyph glyph-name="uni040C" unicode="&#x40c;" horiz-adv-x="806" 
d="M86 0v1434h203v-619h61l201 619h223l-248 -697l265 -737h-220l-221 629h-61v-629h-203zM332 1499l162 246l174 -86l-191 -160h-145z" />
    <glyph glyph-name="uni040D" unicode="&#x40d;" horiz-adv-x="872" 
d="M522 1499h-145l-191 160l174 86zM786 0h-196v944l-307 -944h-197v1434h197v-910l295 910h208v-1434z" />
    <glyph glyph-name="uni040E" unicode="&#x40e;" horiz-adv-x="774" 
d="M383 0h-203l115 426l-283 1008h205l180 -699l170 699h203zM393 1491q-96 0 -157.5 53.5t-65.5 155.5h123q17 -80 100 -80q84 0 101 80h122q-6 -102 -66.5 -155.5t-156.5 -53.5z" />
    <glyph glyph-name="uni040F" unicode="&#x40f;" horiz-adv-x="860" 
d="M338 -229v229h-252v1434h203v-1244h284v1244h201v-1434h-248v-229h-188z" />
    <glyph glyph-name="uni0410" unicode="&#x410;" horiz-adv-x="823" 
d="M18 0l285 1438h217l285 -1438h-205l-57 319h-271l-57 -319h-197zM303 502h209l-104 575z" />
    <glyph glyph-name="uni0411" unicode="&#x411;" horiz-adv-x="784" 
d="M86 0v1434h588v-191h-385v-364h8q205 0 325.5 -110t120.5 -320v-5q0 -212 -123.5 -328t-347.5 -116h-186zM289 186h28q104 3 164 67.5t60 184.5v4q0 124 -58.5 188t-163.5 64h-30v-508z" />
    <glyph glyph-name="uni0412" unicode="&#x412;" horiz-adv-x="790" 
d="M86 0v1434h205q229 0 346 -117q96 -96 96 -246v-8q0 -242 -225 -330q244 -87 244 -330v-14q0 -183 -127.5 -286t-337.5 -103h-201zM532 1034v4q0 102 -58 155.5t-159 53.5h-30v-436h22q106 0 165.5 58t59.5 165zM549 414q0 104 -64.5 162.5t-173.5 58.5h-26v-449h22
q109 0 175.5 57.5t66.5 159.5v11z" />
    <glyph glyph-name="uni0413" unicode="&#x413;" horiz-adv-x="604" 
d="M86 0v1434h496v-191h-293v-1243h-203z" />
    <glyph glyph-name="uni0414" unicode="&#x414;" horiz-adv-x="933" 
d="M18 195h93l241 1243h232l237 -1243h94v-424h-186v229h-524v-229h-187v424zM465 1087l-158 -903h311z" />
    <glyph glyph-name="uni0415" unicode="&#x415;" horiz-adv-x="673" 
d="M86 0v1434h530v-191h-327v-426h293v-190h-293v-437h334v-190h-537z" />
    <glyph glyph-name="uni0416" unicode="&#x416;" horiz-adv-x="1232" 
d="M29 1434h223l209 -621h59l-4 621h201l-4 -621h59l209 621h221l-252 -697l267 -737h-220l-227 631h-57l4 -631h-201l6 631h-61l-228 -631h-219l269 733z" />
    <glyph glyph-name="uni0417" unicode="&#x417;" horiz-adv-x="690" 
d="M72 1200v197q104 49 227 49q158 0 248 -93.5t90 -265.5v-8q0 -251 -213 -348q105 -36 162 -120.5t57 -211.5v-10q0 -186 -100.5 -293.5t-272.5 -107.5q-113 0 -213 49v207q102 -64 199 -64q91 0 139.5 56.5t48.5 166.5v7q0 221 -223 221h-71v182h69q105 0 163 61.5
t58 178.5v4q0 97 -42 148.5t-126 51.5q-92 0 -200 -57z" />
    <glyph glyph-name="uni0418" unicode="&#x418;" horiz-adv-x="872" 
d="M786 0h-196v944l-307 -944h-197v1434h197v-910l295 910h208v-1434z" />
    <glyph glyph-name="uni0419" unicode="&#x419;" horiz-adv-x="872" 
d="M432 1491q-96 0 -157.5 53.5t-65.5 155.5h123q17 -80 100 -80t100 80h123q-6 -102 -66.5 -155.5t-156.5 -53.5zM786 0h-196v944l-307 -944h-197v1434h197v-910l295 910h208v-1434z" />
    <glyph glyph-name="uni041A" unicode="&#x41a;" horiz-adv-x="806" 
d="M86 0v1434h203v-619h61l201 619h223l-248 -697l265 -737h-220l-221 629h-61v-629h-203z" />
    <glyph glyph-name="uni041B" unicode="&#x41b;" horiz-adv-x="796" 
d="M502 1438l276 -1438h-207l-176 1028l-178 -1028h-199l275 1438h209z" />
    <glyph glyph-name="uni041C" unicode="&#x41c;" horiz-adv-x="991" 
d="M86 0v1434h209l201 -621l200 621h209v-1434h-194v979l-213 -633h-4l-213 633v-979h-195z" />
    <glyph glyph-name="uni041D" unicode="&#x41d;" horiz-adv-x="860" 
d="M86 0v1434h203v-617h284v617h201v-1434h-201v625h-284v-625h-203z" />
    <glyph glyph-name="uni041E" unicode="&#x41e;" horiz-adv-x="851" 
d="M426 -18q-169 0 -269 180t-100 524v62q0 344 100 524t269 180t269 -180t100 -524v-62q0 -344 -100 -524t-269 -180zM426 166q164 0 164 520v62q0 520 -164 520t-164 -520v-62q0 -520 164 -520z" />
    <glyph glyph-name="uni041F" unicode="&#x41f;" horiz-adv-x="860" 
d="M86 0v1434h688v-1434h-201v1243h-284v-1243h-203z" />
    <glyph glyph-name="uni0420" unicode="&#x420;" horiz-adv-x="776" 
d="M86 0v1434h209q207 0 327.5 -120.5t120.5 -352.5v-5q0 -225 -115.5 -348.5t-314.5 -134.5h-24v-473h-203zM289 659h26q104 3 165 77.5t61 213.5v4q0 146 -59 219.5t-163 73.5h-30v-588z" />
    <glyph glyph-name="uni0421" unicode="&#x421;" horiz-adv-x="684" 
d="M453 -10q-86 0 -156.5 41.5t-125 124.5t-84.5 220.5t-30 317.5v45q0 145 21 263.5t58.5 199.5t89.5 136t112 80.5t129 25.5q89 0 156 -33v-209q-74 45 -140 45q-49 0 -87.5 -27.5t-69.5 -85t-47.5 -157.5t-16.5 -236v-49q0 -506 223 -506q68 0 142 45v-200
q-72 -41 -174 -41z" />
    <glyph glyph-name="uni0422" unicode="&#x422;" horiz-adv-x="647" 
d="M223 0v1243h-194v191h589v-191h-194v-1243h-201z" />
    <glyph glyph-name="uni0423" unicode="&#x423;" horiz-adv-x="774" 
d="M383 0h-203l115 426l-283 1008h205l180 -699l170 699h203z" />
    <glyph glyph-name="uni0424" unicode="&#x424;" horiz-adv-x="1179" 
d="M489 -16v153q-199 25 -321.5 178.5t-122.5 399.5v12q0 250 122 401t322 177v149h201v-149q198 -26 320.5 -177.5t122.5 -400.5v-10q0 -248 -122 -401.5t-321 -178.5v-153h-201zM248 713q0 -173 65.5 -276.5t180.5 -125.5v819q-118 -22 -182 -124t-64 -277v-16zM932 731
q0 170 -65.5 272.5t-180.5 126.5v-819q117 22 181.5 125.5t64.5 278.5v16z" />
    <glyph glyph-name="uni0425" unicode="&#x425;" horiz-adv-x="782" 
d="M532 1434h209l-229 -691l246 -743h-215l-154 514l-156 -514h-208l243 739l-231 695h215l139 -476z" />
    <glyph glyph-name="uni0426" unicode="&#x426;" horiz-adv-x="913" 
d="M696 -229v229h-610v1434h203v-1244h284v1244h201v-1244h111v-419h-189z" />
    <glyph glyph-name="uni0427" unicode="&#x427;" horiz-adv-x="825" 
d="M535 0v518q-96 -14 -154 -14q-162 0 -237.5 84.5t-75.5 267.5v578h202v-562q0 -98 30.5 -135t117.5 -37q57 0 117 13v721h204v-1434h-204z" />
    <glyph glyph-name="uni0428" unicode="&#x428;" horiz-adv-x="1294" 
d="M86 0v1434h203v-1244h258v1244h203v-1244h258v1244h200v-1434h-1122z" />
    <glyph glyph-name="uni0429" unicode="&#x429;" horiz-adv-x="1347" 
d="M86 0v1434h203v-1244h258v1244h203v-1244h258v1244h200v-1244h111v-419h-189v229h-1044z" />
    <glyph glyph-name="uni042A" unicode="&#x42a;" horiz-adv-x="907" 
d="M215 0v1245h-186v189h389v-492h8q207 0 326.5 -120t119.5 -343v-4q0 -225 -124 -350t-340 -125h-193zM418 188h26q104 3 165 75t61 208v4q0 139 -58.5 211t-162.5 72h-31v-570z" />
    <glyph glyph-name="uni042B" unicode="&#x42b;" horiz-adv-x="1132" 
d="M86 0v1434h203v-492h8q207 0 326.5 -120t119.5 -343v-4q0 -225 -124 -350t-340 -125h-193zM844 0v1434h203v-1434h-203zM289 188h26q104 3 165 75t61 208v4q0 139 -59 211t-163 72h-30v-570z" />
    <glyph glyph-name="uni042C" unicode="&#x42c;" horiz-adv-x="776" 
d="M86 0v1434h203v-492h8q207 0 326.5 -120t119.5 -343v-4q0 -225 -124 -350t-340 -125h-193zM289 188h26q104 3 165 75t61 208v4q0 139 -59 211t-163 72h-30v-570z" />
    <glyph glyph-name="uni042D" unicode="&#x42d;" horiz-adv-x="704" 
d="M137 631v182h307q-3 124 -21 210.5t-50 134.5t-71 68.5t-89 20.5q-76 0 -152 -45v201q84 41 183 41q87 0 159 -41t127.5 -124t86 -220.5t30.5 -319.5v-45q0 -146 -21 -264t-58.5 -199.5t-90.5 -136t-115 -79.5t-133 -25q-105 0 -172 33v208q79 -45 154 -45q225 0 233 445
h-307z" />
    <glyph glyph-name="uni042E" unicode="&#x42e;" horiz-adv-x="1185" 
d="M86 0v1434h203v-617h129q10 311 105.5 473t250.5 162q163 0 258.5 -179.5t95.5 -524.5v-62q0 -345 -95.5 -524.5t-258.5 -179.5q-157 0 -252 163.5t-104 479.5h-129v-625h-203zM774 166q150 0 150 520v62q0 520 -150 520q-151 0 -151 -520v-62q0 -520 151 -520z" />
    <glyph glyph-name="uni042F" unicode="&#x42f;" horiz-adv-x="806" 
d="M721 1434v-1434h-203v522h-55h-27l-196 -522h-220l226 582q-91 55 -142 154.5t-51 232.5v12q0 208 115 330.5t336 122.5h217zM518 1245h-29q-108 0 -171.5 -63t-63.5 -199v-14q0 -133 61.5 -198.5t167.5 -65.5h35v540z" />
    <glyph glyph-name="uni0430" unicode="&#x430;" horiz-adv-x="714" 
d="M256 -18q-97 0 -158 89t-61 236v31q0 170 68 258t188 88q79 0 156 -41v86q0 94 -42.5 143.5t-125.5 49.5q-87 0 -189 -52v187q106 47 215 47q155 0 244 -86q92 -92 92 -275v-743h-197v129q-66 -147 -190 -147zM330 145q51 0 85 44.5t34 113.5v197q-62 28 -107 28
q-56 0 -86.5 -46t-30.5 -134v-24q0 -88 28 -133.5t77 -45.5z" />
    <glyph glyph-name="uni0431" unicode="&#x431;" horiz-adv-x="765" 
d="M385 -18q-119 0 -190 71q-134 137 -134 541v8q0 167 11 286.5t37 217t72.5 159.5t115 101t166.5 55l205 33v-184l-166 -27q-107 -19 -163 -57.5t-86.5 -118t-45.5 -229.5q76 163 231 163q123 0 199 -118t76 -353v-38q0 -240 -89.5 -375t-238.5 -135zM387 152
q63 0 97 85.5t34 243.5v37q0 152 -33.5 237t-93.5 85q-63 0 -100 -84.5t-37 -231.5v-43q0 -160 35 -244.5t98 -84.5z" />
    <glyph glyph-name="uni0432" unicode="&#x432;" horiz-adv-x="720" 
d="M80 0v1092h213q184 0 280.5 -70.5t96.5 -208.5v-6q0 -89 -49 -153.5t-125 -94.5q88 -28 136 -90.5t48 -153.5v-10q0 -147 -104 -226t-285 -79h-211zM270 629h35q174 0 174 155v2q0 142 -170 142h-39v-299zM270 475v-311h35q184 0 184 151v7q0 75 -47.5 114t-136.5 39h-35
z" />
    <glyph glyph-name="uni0433" unicode="&#x433;" horiz-adv-x="546" 
d="M80 0v1092h448v-185h-254v-907h-194z" />
    <glyph glyph-name="uni0434" unicode="&#x434;" horiz-adv-x="839" 
d="M526 1096l215 -920h82v-381h-172v205h-465v-205h-172v381h84l213 920h215zM418 825l-133 -657h264z" />
    <glyph glyph-name="uni0435" unicode="&#x435;" horiz-adv-x="714" 
d="M416 -18q-157 0 -262 141t-105 397v43q0 258 92.5 401.5t229.5 143.5q138 0 219.5 -142.5t81.5 -402.5v-106h-428q7 -148 61 -220.5t135 -72.5q50 0 90 17.5t101 58.5l16 -183q-64 -40 -115.5 -57.5t-115.5 -17.5zM242 612h245q0 153 -30.5 237.5t-85.5 84.5
q-56 0 -90.5 -80.5t-38.5 -241.5z" />
    <glyph glyph-name="uni0436" unicode="&#x436;" horiz-adv-x="1087" 
d="M639 1092l-6 -455h59l164 455h205l-205 -531l211 -561h-209l-166 463h-59l6 -463h-193l5 463h-56l-168 -463h-207l211 551l-206 541h208l160 -455h58l-5 455h193z" />
    <glyph glyph-name="uni0437" unicode="&#x437;" horiz-adv-x="593" 
d="M43 20v189q95 -49 176 -49q67 0 104 38t37 107v4q0 154 -184 154h-61v170h61q180 0 180 153v2q0 140 -127 140q-79 0 -176 -54v185q100 49 207 49q134 0 209.5 -75t75.5 -214v-8q0 -100 -50.5 -165.5t-129.5 -92.5q92 -32 138 -94.5t46 -167.5v-8q0 -140 -83 -220.5
t-228 -80.5q-108 0 -195 38z" />
    <glyph glyph-name="uni0438" unicode="&#x438;" horiz-adv-x="780" 
d="M80 0v1092h192v-656l242 656h186v-1092h-190v662l-246 -662h-184z" />
    <glyph glyph-name="uni0439" unicode="&#x439;" horiz-adv-x="780" 
d="M80 0v1092h192v-656l242 656h186v-1092h-190v662l-246 -662h-184zM391 1161q-94 0 -156 58t-69 172h121q16 -103 104 -103q89 0 105 103h122q-9 -114 -71 -172t-156 -58z" />
    <glyph glyph-name="uni043A" unicode="&#x43a;" horiz-adv-x="729" 
d="M274 1092v-453h60l164 453h209l-205 -531l209 -561h-213l-162 459h-62v-459h-194v1092h194z" />
    <glyph glyph-name="uni043B" unicode="&#x43b;" horiz-adv-x="751" 
d="M479 1096l242 -1096h-195l-151 784l-154 -784h-190l239 1096h209z" />
    <glyph glyph-name="uni043C" unicode="&#x43c;" horiz-adv-x="866" 
d="M80 0v1092h199l153 -449l156 449h198v-1092h-188v707l-162 -451h-6l-162 451v-707h-188z" />
    <glyph glyph-name="uni043D" unicode="&#x43d;" horiz-adv-x="782" 
d="M80 0v1092h194v-449h234v449h194v-1092h-194v459h-234v-459h-194z" />
    <glyph glyph-name="uni043E" unicode="&#x43e;" horiz-adv-x="763" 
d="M383 -18q-145 0 -237.5 141.5t-92.5 394.5v51q0 253 93 396t237 143t237 -143t93 -396v-51q0 -253 -92.5 -394.5t-237.5 -141.5zM383 156q60 0 96.5 94.5t36.5 265.5v57q0 173 -36.5 267t-96.5 94q-62 0 -98.5 -94t-36.5 -267v-57q0 -171 37 -265.5t98 -94.5z" />
    <glyph glyph-name="uni043F" unicode="&#x43f;" horiz-adv-x="782" 
d="M80 0v1092h622v-1092h-194v907h-234v-907h-194z" />
    <glyph glyph-name="uni0440" unicode="&#x440;" horiz-adv-x="782" 
d="M80 -266v1358h194v-158q79 176 203 176q52 0 96 -29t78.5 -89.5t54 -164t19.5 -241.5v-80q0 -267 -69 -395.5t-179 -128.5q-50 0 -91.5 28t-65 62.5t-46.5 83.5v-422h-194zM406 166q58 0 91 91t33 257v64q0 167 -33 257.5t-91 90.5q-59 0 -96.5 -91.5t-37.5 -254.5v-68
q0 -163 37.5 -254.5t96.5 -91.5z" />
    <glyph glyph-name="uni0441" unicode="&#x441;" horiz-adv-x="583" 
d="M389 -18q-152 0 -244 137.5t-92 398.5v51q0 258 96 397.5t244 139.5q85 0 146 -31v-201q-72 44 -125 44q-71 0 -117.5 -85t-46.5 -260v-59q0 -175 47.5 -259.5t122.5 -84.5q53 0 119 49v-194q-73 -43 -150 -43z" />
    <glyph glyph-name="uni0442" unicode="&#x442;" horiz-adv-x="595" 
d="M201 0v907h-178v185h550v-185h-178v-907h-194z" />
    <glyph glyph-name="uni0443" unicode="&#x443;" horiz-adv-x="731" 
d="M362 362l146 730h190l-309 -1358h-188l67 297l-235 1061h192z" />
    <glyph glyph-name="uni0444" unicode="&#x444;" horiz-adv-x="1087" 
d="M641 -266h-195v262q-176 21 -284.5 165t-108.5 374v20q0 230 108.5 374.5t284.5 166.5v350h195v-350q176 -21 285.5 -165.5t109.5 -375.5v-20q0 -229 -110 -373.5t-285 -165.5v-262zM844 555q0 158 -55.5 257t-151.5 116v-768q96 17 151.5 115.5t55.5 259.5v20zM246 535
q0 -159 54.5 -257.5t150.5 -117.5v768q-96 -17 -150.5 -115t-54.5 -258v-20z" />
    <glyph glyph-name="uni0445" unicode="&#x445;" horiz-adv-x="700" 
d="M229 1092l123 -371l121 371h199l-203 -531l213 -561h-207l-127 399l-127 -399h-203l211 561l-202 531h202z" />
    <glyph glyph-name="uni0446" unicode="&#x446;" horiz-adv-x="821" 
d="M625 -205v205h-545v1092h194v-910h234v910h194v-916h93v-381h-170z" />
    <glyph glyph-name="uni0447" unicode="&#x447;" horiz-adv-x="755" 
d="M481 0v381q-68 -10 -121 -10q-143 0 -220 67t-77 224v430h195v-408q0 -72 28 -101.5t97 -29.5q54 0 98 8v531h195v-1092h-195z" />
    <glyph glyph-name="uni0448" unicode="&#x448;" horiz-adv-x="1175" 
d="M80 0v1092h194v-910h218v910h194v-910h215v910h195v-1092h-1016z" />
    <glyph glyph-name="uni0449" unicode="&#x449;" horiz-adv-x="1214" 
d="M80 0v1092h194v-910h218v910h194v-910h215v910h195v-916h92v-381h-170v205h-938z" />
    <glyph glyph-name="uni044A" unicode="&#x44a;" horiz-adv-x="817" 
d="M193 0v918h-170v174h364v-332h12q82 0 150.5 -21.5t122.5 -64.5t84 -116t30 -169v-6q0 -180 -111 -281.5t-304 -101.5h-178zM387 598v-434h23q83 0 132.5 56.5t49.5 156.5v6q0 104 -49 159.5t-133 55.5h-23z" />
    <glyph glyph-name="uni044B" unicode="&#x44b;" horiz-adv-x="1040" 
d="M274 1092v-332h13q82 0 150.5 -21.5t122.5 -64.5t84 -116t30 -169v-6q0 -180 -111.5 -281.5t-304.5 -101.5h-178v1092h194zM274 598v-434h23q83 0 132.5 56.5t49.5 156.5v6q0 104 -49 159.5t-133 55.5h-23zM766 0v1092h195v-1092h-195z" />
    <glyph glyph-name="uni044C" unicode="&#x44c;" horiz-adv-x="704" 
d="M80 0v1092h194v-332h13q82 0 150.5 -21.5t122.5 -64.5t84 -116t30 -169v-6q0 -180 -111.5 -281.5t-304.5 -101.5h-178zM274 164h23q83 0 132.5 56.5t49.5 156.5v6q0 104 -49 159.5t-133 55.5h-23v-434z" />
    <glyph glyph-name="uni044D" unicode="&#x44d;" horiz-adv-x="612" 
d="M102 635l265 -4q-6 153 -57 222t-130 69q-71 0 -133 -39v186q75 37 164 37q158 0 254 -133.5t96 -394.5v-60q0 -263 -100.5 -399.5t-263.5 -136.5q-93 0 -152 30v195q65 -41 137 -41q78 0 129.5 70.5t55.5 226.5l-265 -2v174z" />
    <glyph glyph-name="uni044E" unicode="&#x44e;" horiz-adv-x="1091" 
d="M274 459v-459h-194v1092h194v-449h115q13 220 102 342.5t222 122.5q144 0 234.5 -142.5t90.5 -396.5v-51q0 -254 -90.5 -395t-234.5 -141q-136 0 -225 124.5t-101 352.5h-113zM713 156q61 0 96 94t35 266v57q0 174 -35 267.5t-96 93.5q-60 0 -95.5 -94t-35.5 -267v-57
q0 -171 35.5 -265.5t95.5 -94.5z" />
    <glyph glyph-name="uni044F" unicode="&#x44f;" horiz-adv-x="743" 
d="M231 0h-206l180 436q-70 45 -109 119.5t-39 171.5v4q0 77 22.5 141t68.5 114t123.5 78t179.5 28h213v-1092h-195v375h-39q-33 0 -47 2zM469 928h-29q-188 0 -188 -193v-4q0 -98 46 -145t140 -47h31v389z" />
    <glyph glyph-name="uni0450" unicode="&#x450;" horiz-adv-x="714" 
d="M416 -18q-157 0 -262 141t-105 397v43q0 258 92.5 401.5t229.5 143.5q138 0 219.5 -142.5t81.5 -402.5v-106h-428q7 -148 61 -220.5t135 -72.5q50 0 90 17.5t101 58.5l16 -183q-64 -40 -115.5 -57.5t-115.5 -17.5zM242 612h245q0 153 -30.5 237.5t-85.5 84.5
q-56 0 -90.5 -80.5t-38.5 -241.5zM313 1184l-192 202l162 87l163 -289h-133z" />
    <glyph glyph-name="uni0451" unicode="&#x451;" horiz-adv-x="714" 
d="M412 1194v197h180v-197h-180zM145 1194v197h181v-197h-181zM416 -18q-157 0 -262 141t-105 397v43q0 258 92.5 401.5t229.5 143.5q138 0 219.5 -142.5t81.5 -402.5v-106h-428q7 -148 61 -220.5t135 -72.5q50 0 90 17.5t101 58.5l16 -183q-64 -40 -115.5 -57.5
t-115.5 -17.5zM242 612h245q0 153 -30.5 237.5t-85.5 84.5q-56 0 -90.5 -80.5t-38.5 -241.5z" />
    <glyph glyph-name="uni0452" unicode="&#x452;" horiz-adv-x="757" 
d="M496 1143h-222v-238q68 10 121 10q145 0 222 -66.5t77 -223.5v-627q0 -270 -248 -270q-44 0 -92 10v156q12 -3 41 -3q56 0 79.5 29.5t23.5 95.5v586q0 72 -28 102.5t-97 30.5q-44 0 -99 -10v-725h-194v1143h-137v153h137v150h194v-150h222v-153z" />
    <glyph glyph-name="uni0453" unicode="&#x453;" horiz-adv-x="546" 
d="M221 1178l162 288l162 -86l-191 -202h-133zM80 0v1092h448v-185h-254v-907h-194z" />
    <glyph glyph-name="uni0454" unicode="&#x454;" horiz-adv-x="612" 
d="M510 635v-174l-264 2q4 -154 56.5 -225.5t131.5 -71.5q68 0 133 41v-187q-69 -38 -161 -38q-160 0 -256.5 136t-96.5 400v51q0 260 102 398.5t263 138.5q85 0 147 -29v-194q-64 39 -133 39q-77 0 -128.5 -70.5t-57.5 -220.5z" />
    <glyph glyph-name="uni0455" unicode="&#x455;" horiz-adv-x="579" 
d="M260 -18q-106 0 -221 51v194q128 -69 211 -69q52 0 82 29t30 81q0 43 -28.5 87.5t-108.5 121.5q-101 99 -146.5 176.5t-45.5 169.5v4q0 127 81 203t210 76q98 0 178 -31v-192q-92 47 -170 47q-51 0 -81 -27t-30 -72q0 -41 27.5 -80.5t116.5 -125.5q104 -103 145 -180
t41 -169v-4q0 -131 -83.5 -210.5t-207.5 -79.5z" />
    <glyph glyph-name="uni0456" unicode="&#x456;" horiz-adv-x="364" 
d="M82 1233v213h201v-213h-201zM86 0v1092h195v-1092h-195z" />
    <glyph glyph-name="uni0457" unicode="&#x457;" horiz-adv-x="364" 
d="M227 1188v196h181v-196h-181zM-39 1188v196h180v-196h-180zM86 0v1092h195v-1092h-195z" />
    <glyph glyph-name="uni0458" unicode="&#x458;" horiz-adv-x="364" 
d="M82 1233v213h201v-213h-201zM39 -272q-41 0 -86 10v156q15 -3 31 -3q102 0 102 119v1082h195v-1104q0 -127 -61.5 -193.5t-180.5 -66.5z" />
    <glyph glyph-name="uni0459" unicode="&#x459;" horiz-adv-x="1112" 
d="M494 0v926h-7l-284 -926h-189l342 1092h332v-332h8q172 0 278.5 -93t106.5 -278v-6q0 -180 -110.5 -281.5t-302.5 -101.5h-174zM688 164h17q83 0 132.5 56.5t49.5 156.5v6q0 104 -49 159.5t-133 55.5h-17v-434z" />
    <glyph glyph-name="uni045A" unicode="&#x45a;" horiz-adv-x="1120" 
d="M694 1092v-332h11q172 0 278.5 -93t106.5 -278v-6q0 -180 -111 -281.5t-303 -101.5h-176v459h-226v-459h-194v1092h194v-449h226v449h194zM694 598v-434h17q84 0 134 56.5t50 156.5v6q0 103 -50 159t-132 56h-19z" />
    <glyph glyph-name="uni045B" unicode="&#x45b;" horiz-adv-x="757" 
d="M496 1143h-222v-238q68 10 121 10q145 0 222 -66.5t77 -223.5v-625h-196v602q0 72 -28 102.5t-97 30.5q-44 0 -99 -10v-725h-194v1143h-137v153h137v150h194v-150h222v-153z" />
    <glyph glyph-name="uni045C" unicode="&#x45c;" horiz-adv-x="729" 
d="M274 1092v-453h60l164 453h209l-205 -531l209 -561h-213l-162 459h-62v-459h-194v1092h194zM301 1167l162 289l162 -86l-191 -203h-133z" />
    <glyph glyph-name="uni045D" unicode="&#x45d;" horiz-adv-x="780" 
d="M338 1167l-193 203l162 86l164 -289h-133zM80 0v1092h192v-656l242 656h186v-1092h-190v662l-246 -662h-184z" />
    <glyph glyph-name="uni045E" unicode="&#x45e;" horiz-adv-x="731" 
d="M362 362l146 730h190l-309 -1358h-188l67 297l-235 1061h192zM367 1161q-94 0 -156.5 58t-69.5 172h121q16 -103 105 -103q88 0 104 103h123q-9 -114 -71 -172t-156 -58z" />
    <glyph glyph-name="uni045F" unicode="&#x45f;" horiz-adv-x="782" 
d="M309 -205v205h-229v1092h194v-910h234v910h194v-1092h-223v-205h-170z" />
    <glyph glyph-name="uni0462" unicode="&#x462;" horiz-adv-x="897" 
d="M416 1454v-190h219v-174h-219v-230h8q201 0 321.5 -109t120.5 -311v-6q0 -203 -126 -318.5t-341 -115.5h-186v1087h-184v177h184v190h203zM416 186h35q96 3 154.5 67t58.5 177v8q0 112 -58 176t-155 64h-35v-492z" />
    <glyph glyph-name="uni0463" unicode="&#x463;" horiz-adv-x="817" 
d="M637 930h-250v-189h10q173 0 281 -91t108 -271v-8q0 -174 -111.5 -272.5t-305.5 -98.5h-176v930h-170v162h170v354h194v-354h250v-162zM387 582v-422h21q85 0 134.5 54t49.5 153v4q0 104 -49.5 157.5t-134.5 53.5h-21z" />
    <glyph glyph-name="uni0472" unicode="&#x472;" horiz-adv-x="845" 
d="M424 -18q-167 0 -267 180t-100 524v62q0 344 100 524t267 180q166 0 265 -180t99 -524v-62q0 -344 -99 -524t-265 -180zM424 164q75 0 120.5 112.5t49.5 354.5h-342q4 -242 50 -354.5t122 -112.5zM424 1270q-75 0 -120.5 -110.5t-51.5 -346.5h340q-4 237 -48.5 347
t-119.5 110z" />
    <glyph glyph-name="uni0473" unicode="&#x473;" horiz-adv-x="759" 
d="M379 -18q-144 0 -235 142t-91 396v49q0 252 92 395.5t236 143.5t235 -143t91 -396v-49q0 -254 -92 -396t-236 -142zM379 147q61 0 100 83.5t43 242.5h-284q4 -160 42 -243t99 -83zM379 942q-59 0 -97 -79.5t-44 -233.5h282q-6 154 -43.5 233.5t-97.5 79.5z" />
    <glyph glyph-name="uni0474" unicode="&#x474;" horiz-adv-x="837" 
d="M283 -6l-265 1440h207l166 -1037l109 666q24 147 65 229.5t99 114t151 31.5h8v-185h-4q-35 0 -55 -15t-40 -66t-40 -154l-192 -1024h-209z" />
    <glyph glyph-name="uni0475" unicode="&#x475;" horiz-adv-x="755" 
d="M266 -4l-235 1096h194l140 -779l84 459q18 100 43.5 164.5t61 99t76 47.5t97.5 13h16v-166h-2q-31 0 -49.5 -11.5t-36 -52t-34.5 -121.5l-160 -749h-195z" />
    <glyph glyph-name="uni0490" unicode="&#x490;" horiz-adv-x="604" 
d="M86 0v1434h311v217h185v-408h-293v-1243h-203z" />
    <glyph glyph-name="uni0491" unicode="&#x491;" horiz-adv-x="546" 
d="M80 0v1092h276v186h172v-371h-254v-907h-194z" />
    <glyph glyph-name="uni0492" unicode="&#x492;" horiz-adv-x="620" 
d="M100 0v623h-84v147h84v664h496v-191h-293v-473h150v-147h-150v-623h-203z" />
    <glyph glyph-name="uni0493" unicode="&#x493;" horiz-adv-x="573" 
d="M104 0v451h-81v131h81v510h449v-185h-254v-325h127v-131h-127v-451h-195z" />
    <glyph glyph-name="uni0496" unicode="&#x496;" horiz-adv-x="1282" 
d="M1202 1434l-252 -697l197 -547h119v-419h-189v229h-80l-227 631h-57l4 -631h-201l6 631h-61l-228 -631h-219l269 733l-254 701h223l209 -621h59l-4 621h201l-4 -621h59l209 621h221z" />
    <glyph glyph-name="uni0497" unicode="&#x497;" horiz-adv-x="1122" 
d="M639 1092l-6 -455h59l164 455h205l-205 -531l143 -385h107v-381h-170v205h-78l-166 463h-59l6 -463h-193l5 463h-56l-168 -463h-207l211 551l-206 541h208l160 -455h58l-5 455h193z" />
    <glyph glyph-name="uni0498" unicode="&#x498;" horiz-adv-x="690" 
d="M215 -229l4 219q-83 8 -162 47v207q102 -64 199 -64q91 0 139.5 56.5t48.5 166.5v7q0 221 -223 221h-71v182h69q105 0 163 61.5t58 178.5v4q0 97 -42 148.5t-126 51.5q-92 0 -200 -57v197q104 49 227 49q158 0 248 -93.5t90 -265.5v-8q0 -251 -213 -348
q105 -36 162 -120.5t57 -211.5v-10q0 -149 -65 -249.5t-183 -135.5l8 -233h-188z" />
    <glyph glyph-name="uni0499" unicode="&#x499;" horiz-adv-x="593" 
d="M43 20v189q95 -49 176 -49q67 0 104 38t37 107v4q0 154 -184 154h-61v170h61q180 0 180 153v2q0 140 -127 140q-79 0 -176 -54v185q100 49 207 49q134 0 209.5 -75t75.5 -214v-8q0 -100 -50.5 -165.5t-129.5 -92.5q92 -32 138 -94.5t46 -167.5v-8q0 -110 -52.5 -184.5
t-148.5 -102.5l8 -201h-178l6 191q-74 6 -141 34z" />
    <glyph glyph-name="uni049A" unicode="&#x49a;" horiz-adv-x="860" 
d="M774 1434l-248 -697l195 -547h123v-419h-189v229h-84l-221 629h-61v-629h-203v1434h203v-619h61l201 619h223z" />
    <glyph glyph-name="uni049B" unicode="&#x49b;" horiz-adv-x="765" 
d="M274 1092v-453h60l164 453h209l-205 -531l143 -385h105v-381h-170v205h-82l-162 459h-62v-459h-194v1092h194z" />
    <glyph glyph-name="uni049C" unicode="&#x49c;" horiz-adv-x="892" 
d="M475 1227l-6 -389l186 596h205l-235 -686l254 -748h-203l-207 616l6 -380h-100v397h-90v-633h-199v1434h199v-623h90v416h100z" />
    <glyph glyph-name="uni049D" unicode="&#x49d;" horiz-adv-x="819" 
d="M799 0h-201l-154 463l2 -313h-92l2 317h-82v-467h-194v1092h194v-459h82l-2 332h92l-2 -330l152 457h199l-199 -533z" />
    <glyph glyph-name="uni04A0" unicode="&#x4a0;" horiz-adv-x="937" 
d="M29 1245v189h389v-619h61l201 619h223l-248 -697l265 -737h-220l-221 629h-61v-629h-203v1245h-186z" />
    <glyph glyph-name="uni04A1" unicode="&#x4a1;" horiz-adv-x="841" 
d="M23 918v174h364v-453h59l164 453h209l-205 -531l209 -561h-213l-161 459h-62v-459h-194v918h-170z" />
    <glyph glyph-name="uni04A2" unicode="&#x4a2;" horiz-adv-x="913" 
d="M696 -229v229h-123v625h-284v-625h-203v1434h203v-617h284v617h201v-1244h111v-419h-189z" />
    <glyph glyph-name="uni04A3" unicode="&#x4a3;" horiz-adv-x="821" 
d="M625 -205v205h-117v459h-234v-459h-194v1092h194v-449h234v449h194v-916h93v-381h-170z" />
    <glyph glyph-name="uni04A4" unicode="&#x4a4;" horiz-adv-x="1044" 
d="M561 0v625h-272v-625h-203v1434h203v-617h272v617h459v-191h-258v-1243h-201z" />
    <glyph glyph-name="uni04A5" unicode="&#x4a5;" horiz-adv-x="952" 
d="M274 1092v-449h226v449h434v-185h-240v-907h-194v459h-226v-459h-194v1092h194z" />
    <glyph glyph-name="uni04AA" unicode="&#x4aa;" horiz-adv-x="684" 
d="M322 -229l6 243q-126 53 -198.5 223.5t-72.5 456.5v45q0 145 21 263.5t58.5 199.5t89.5 136t112 80.5t129 25.5q89 0 156 -33v-209q-74 45 -140 45q-49 0 -87.5 -27.5t-69.5 -85t-47.5 -157.5t-16.5 -236v-49q0 -506 223 -506q68 0 142 45v-200q-50 -29 -125 -39l8 -221
h-188z" />
    <glyph glyph-name="uni04AB" unicode="&#x4ab;" horiz-adv-x="583" 
d="M260 -205l8 213q-100 47 -157.5 176.5t-57.5 333.5v51q0 258 96 397.5t244 139.5q85 0 146 -31v-201q-72 44 -125 44q-71 0 -117.5 -85t-46.5 -260v-59q0 -175 47.5 -259.5t122.5 -84.5q53 0 119 49v-194q-54 -33 -109 -39l8 -191h-178z" />
    <glyph glyph-name="uni04AE" unicode="&#x4ae;" horiz-adv-x="763" 
d="M281 0v582l-277 852h211l170 -586l170 586h205l-277 -852v-582h-202z" />
    <glyph glyph-name="uni04AF" unicode="&#x4af;" horiz-adv-x="733" 
d="M465 -266h-197v289l-237 1069h194l144 -758l143 758h190l-237 -1069v-289z" />
    <glyph glyph-name="uni04B0" unicode="&#x4b0;" horiz-adv-x="763" 
d="M281 0v453h-170v145h163l-270 836h211l170 -586l170 586h205l-273 -836h166v-145h-170v-453h-202z" />
    <glyph glyph-name="uni04B1" unicode="&#x4b1;" horiz-adv-x="733" 
d="M369 334l143 758h190l-213 -961h140v-131h-164v-266h-197v266h-164v131h140l-213 961h194z" />
    <glyph glyph-name="uni04B2" unicode="&#x4b2;" horiz-adv-x="825" 
d="M543 0l-154 514l-156 -514h-208l243 739l-231 695h215l139 -476l141 476h209l-229 -691l182 -553h115v-419h-188v229h-78z" />
    <glyph glyph-name="uni04B3" unicode="&#x4b3;" horiz-adv-x="733" 
d="M229 1092l123 -371l121 371h199l-203 -531l145 -385h103v-381h-170v205h-72l-127 399l-127 -399h-203l211 561l-202 531h202z" />
    <glyph glyph-name="uni04B6" unicode="&#x4b6;" horiz-adv-x="876" 
d="M535 0v518q-96 -14 -154 -14q-162 0 -237.5 84.5t-75.5 267.5v578h202v-562q0 -98 30.5 -135t117.5 -37q57 0 117 13v721h204v-1244h109v-419h-189v229h-124z" />
    <glyph glyph-name="uni04B7" unicode="&#x4b7;" horiz-adv-x="792" 
d="M481 0v381q-68 -10 -121 -10q-143 0 -220 67t-77 224v430h195v-408q0 -72 28 -101.5t97 -29.5q54 0 98 8v531h195v-916h92v-381h-170v205h-117z" />
    <glyph glyph-name="uni04B8" unicode="&#x4b8;" horiz-adv-x="847" 
d="M561 0v518q-73 -12 -100 -14l4 -316h-100l2 316q-158 7 -228.5 91.5t-70.5 262.5v576h200v-564q0 -83 20.5 -119.5t78.5 -45.5l-2 407h100l-4 -412q50 3 100 15v719h201v-1434h-201z" />
    <glyph glyph-name="uni04B9" unicode="&#x4b9;" horiz-adv-x="788" 
d="M434 139h-94l2 232q-150 4 -214.5 74t-64.5 223v424h195v-412q0 -63 16.5 -90.5t67.5 -34.5l-2 340h94l-2 -342q29 0 84 10v529h193v-1092h-193v383q-69 -9 -84 -10z" />
    <glyph glyph-name="uni04BA" unicode="&#x4ba;" horiz-adv-x="825" 
d="M289 1434v-519q82 15 153 15q162 0 238 -85t76 -267v-578h-201v561q0 98 -31 135t-116 37q-72 0 -119 -12v-721h-203v1434h203z" />
    <glyph glyph-name="uni04BB" unicode="&#x4bb;" horiz-adv-x="772" 
d="M80 0v1446h194v-494q75 158 203 158q105 0 163 -81.5t58 -221.5v-807h-194v766q0 82 -28.5 126t-80.5 44q-54 0 -87.5 -47t-33.5 -127v-762h-194z" />
    <glyph glyph-name="uni04C0" unicode="&#x4c0;" horiz-adv-x="389" 
d="M94 0v1434h201v-1434h-201z" />
    <glyph glyph-name="uni04C1" unicode="&#x4c1;" horiz-adv-x="1232" 
d="M29 1434h223l209 -621h59l-4 621h201l-4 -621h59l209 621h221l-252 -697l267 -737h-220l-227 631h-57l4 -631h-201l6 631h-61l-228 -631h-219l269 733zM614 1501q-96 0 -157.5 53.5t-65.5 155.5h123q17 -80 100 -80q84 0 101 80h123q-6 -102 -67 -155.5t-157 -53.5z" />
    <glyph glyph-name="uni04C2" unicode="&#x4c2;" horiz-adv-x="1087" 
d="M639 1092l-6 -455h59l164 455h205l-205 -531l211 -561h-209l-166 463h-59l6 -463h-193l5 463h-56l-168 -463h-207l211 551l-206 541h208l160 -455h58l-5 455h193zM543 1171q-94 0 -156.5 58t-69.5 172h121q16 -103 105 -103q88 0 104 103h123q-9 -114 -71 -172t-156 -58z
" />
    <glyph glyph-name="uni04CF" unicode="&#x4cf;" horiz-adv-x="364" 
d="M86 0v1446h195v-1446h-195z" />
    <glyph glyph-name="uni04D0" unicode="&#x4d0;" horiz-adv-x="823" 
d="M18 0l285 1438h217l285 -1438h-205l-57 319h-271l-57 -319h-197zM303 502h209l-104 575zM412 1511q-96 0 -158 53.5t-66 155.5h123q17 -80 101 -80q83 0 100 80h123q-6 -102 -66.5 -155.5t-156.5 -53.5z" />
    <glyph glyph-name="uni04D1" unicode="&#x4d1;" horiz-adv-x="714" 
d="M256 -18q-97 0 -158 89t-61 236v31q0 170 68 258t188 88q79 0 156 -41v86q0 94 -42.5 143.5t-125.5 49.5q-87 0 -189 -52v187q106 47 215 47q155 0 244 -86q92 -92 92 -275v-743h-197v129q-66 -147 -190 -147zM330 145q51 0 85 44.5t34 113.5v197q-62 28 -107 28
q-56 0 -86.5 -46t-30.5 -134v-24q0 -88 28 -133.5t77 -45.5zM352 1178q-94 0 -156 57.5t-69 171.5h121q16 -102 104 -102q89 0 105 102h123q-9 -114 -71.5 -171.5t-156.5 -57.5z" />
    <glyph glyph-name="uni04D2" unicode="&#x4d2;" horiz-adv-x="823" 
d="M18 0l285 1438h217l285 -1438h-205l-57 319h-271l-57 -319h-197zM303 502h209l-104 575zM459 1530v192h184v-192h-184zM180 1530v192h185v-192h-185z" />
    <glyph glyph-name="uni04D3" unicode="&#x4d3;" horiz-adv-x="714" 
d="M256 -18q-97 0 -158 89t-61 236v31q0 170 68 258t188 88q79 0 156 -41v86q0 94 -42.5 143.5t-125.5 49.5q-87 0 -189 -52v187q106 47 215 47q155 0 244 -86q92 -92 92 -275v-743h-197v129q-66 -147 -190 -147zM330 145q51 0 85 44.5t34 113.5v197q-62 28 -107 28
q-56 0 -86.5 -46t-30.5 -134v-24q0 -88 28 -133.5t77 -45.5zM395 1194v197h180v-197h-180zM129 1194v197h180v-197h-180z" />
    <glyph glyph-name="uni04D4" unicode="&#x4d4;" horiz-adv-x="1103" 
d="M-6 0l385 1434h668v-191h-328v-426h293v-190h-293v-437h334v-190h-537v319h-246l-80 -319h-196zM313 502h203v727h-18z" />
    <glyph glyph-name="uni04D5" unicode="&#x4d5;" horiz-adv-x="1107" 
d="M279 -18q-112 0 -177 88t-65 237v31q0 170 68 258t188 88q79 0 156 -41v86q0 94 -43 143.5t-125 49.5q-80 0 -189 -52v187q106 47 221 47q175 0 246 -139q35 69 87.5 106t115.5 37q139 0 221 -142t82 -403v-106h-430q9 -148 63 -220.5t133 -72.5q51 0 92 17.5t99 58.5
l16 -183q-65 -40 -115.5 -57.5t-115.5 -17.5q-95 0 -170 55.5t-119 161.5q-29 -96 -91.5 -156.5t-147.5 -60.5zM635 612h246q0 153 -31 237.5t-88 84.5q-56 0 -90 -81t-37 -241zM338 145q46 0 85.5 49.5t59.5 131.5q-16 85 -16 170q-66 32 -125 32q-56 0 -86.5 -46
t-30.5 -134v-24q0 -87 29.5 -133t83.5 -46z" />
    <glyph glyph-name="uni04D6" unicode="&#x4d6;" horiz-adv-x="673" 
d="M354 1501q-96 0 -157.5 53.5t-65.5 155.5h123q17 -80 100 -80q84 0 101 80h123q-6 -102 -67 -155.5t-157 -53.5zM86 0v1434h530v-191h-327v-426h293v-190h-293v-437h334v-190h-537z" />
    <glyph glyph-name="uni04D7" unicode="&#x4d7;" horiz-adv-x="714" 
d="M416 -18q-157 0 -262 141t-105 397v43q0 258 92.5 401.5t229.5 143.5q138 0 219.5 -142.5t81.5 -402.5v-106h-428q7 -148 61 -220.5t135 -72.5q50 0 90 17.5t101 58.5l16 -183q-64 -40 -115.5 -57.5t-115.5 -17.5zM242 612h245q0 153 -30.5 237.5t-85.5 84.5
q-56 0 -90.5 -80.5t-38.5 -241.5zM369 1178q-94 0 -156.5 58t-69.5 171h121q16 -102 105 -102q88 0 104 102h123q-9 -114 -71 -171.5t-156 -57.5z" />
    <glyph glyph-name="uni04D8" unicode="&#x4d8;" horiz-adv-x="811" 
d="M98 1374q124 78 244 78q191 0 301.5 -180t110.5 -522v-56q0 -350 -98 -531t-261 -181q-332 0 -332 714v125h486q-14 439 -223 439q-91 0 -211 -78zM399 166q69 0 109 118.5t43 362.5h-291q-3 -481 139 -481z" />
    <glyph glyph-name="uni04D9" unicode="&#x4d9;" horiz-adv-x="714" 
d="M301 1106q156 0 261.5 -141.5t105.5 -395.5v-43q0 -258 -92 -401t-230 -143q-139 0 -221 141.5t-82 400.5v109h430q-9 147 -63.5 219t-133.5 72q-51 0 -92 -17t-98 -57l-16 180q64 41 115 58.5t116 17.5zM473 477h-246q0 -154 31 -237.5t88 -83.5q56 0 90 80t37 241z" />
    <glyph glyph-name="uni04DC" unicode="&#x4dc;" horiz-adv-x="1232" 
d="M29 1434h223l209 -621h59l-4 621h201l-4 -621h59l209 621h221l-252 -697l267 -737h-220l-227 631h-57l4 -631h-201l6 631h-61l-228 -631h-219l269 733zM383 1520v192h184v-192h-184zM662 1520v192h184v-192h-184z" />
    <glyph glyph-name="uni04DD" unicode="&#x4dd;" horiz-adv-x="1087" 
d="M639 1092l-6 -455h59l164 455h205l-205 -531l211 -561h-209l-166 463h-59l6 -463h-193l5 463h-56l-168 -463h-207l211 551l-206 541h208l160 -455h58l-5 455h193zM319 1188v196h181v-196h-181zM586 1188v196h180v-196h-180z" />
    <glyph glyph-name="uni04DE" unicode="&#x4de;" horiz-adv-x="690" 
d="M385 1530v192h184v-192h-184zM106 1530v192h185v-192h-185zM72 1200v197q104 49 227 49q158 0 248 -93.5t90 -265.5v-8q0 -251 -213 -348q105 -36 162 -120.5t57 -211.5v-10q0 -186 -100.5 -293.5t-272.5 -107.5q-113 0 -213 49v207q102 -64 199 -64q91 0 139.5 56.5
t48.5 166.5v7q0 221 -223 221h-71v182h69q105 0 163 61.5t58 178.5v4q0 97 -42 148.5t-126 51.5q-92 0 -200 -57z" />
    <glyph glyph-name="uni04DF" unicode="&#x4df;" horiz-adv-x="593" 
d="M334 1194v197h180v-197h-180zM68 1194v197h180v-197h-180zM43 20v189q95 -49 176 -49q67 0 104 38t37 107v4q0 154 -184 154h-61v170h61q180 0 180 153v2q0 140 -127 140q-79 0 -176 -54v185q100 49 207 49q134 0 209.5 -75t75.5 -214v-8q0 -100 -50.5 -165.5
t-129.5 -92.5q92 -32 138 -94.5t46 -167.5v-8q0 -140 -83 -220.5t-228 -80.5q-108 0 -195 38z" />
    <glyph glyph-name="uni04E2" unicode="&#x4e2;" horiz-adv-x="872" 
d="M205 1509v140h465v-140h-465zM786 0h-196v944l-307 -944h-197v1434h197v-910l295 910h208v-1434z" />
    <glyph glyph-name="uni04E3" unicode="&#x4e3;" horiz-adv-x="780" 
d="M172 1180v135h442v-135h-442zM80 0v1092h192v-656l242 656h186v-1092h-190v662l-246 -662h-184z" />
    <glyph glyph-name="uni04E4" unicode="&#x4e4;" horiz-adv-x="872" 
d="M483 1509v193h185v-193h-185zM205 1509v193h184v-193h-184zM786 0h-196v944l-307 -944h-197v1434h197v-910l295 910h208v-1434z" />
    <glyph glyph-name="uni04E5" unicode="&#x4e5;" horiz-adv-x="780" 
d="M436 1178v196h180v-196h-180zM170 1178v196h180v-196h-180zM80 0v1092h192v-656l242 656h186v-1092h-190v662l-246 -662h-184z" />
    <glyph glyph-name="uni04E6" unicode="&#x4e6;" horiz-adv-x="851" 
d="M473 1530v192h184v-192h-184zM195 1530v192h184v-192h-184zM426 -18q-169 0 -269 180t-100 524v62q0 344 100 524t269 180t269 -180t100 -524v-62q0 -344 -100 -524t-269 -180zM426 166q164 0 164 520v62q0 520 -164 520t-164 -520v-62q0 -520 164 -520z" />
    <glyph glyph-name="uni04E7" unicode="&#x4e7;" horiz-adv-x="763" 
d="M426 1194v197h180v-197h-180zM160 1194v197h180v-197h-180zM383 -18q-145 0 -237.5 141.5t-92.5 394.5v51q0 253 93 396t237 143t237 -143t93 -396v-51q0 -253 -92.5 -394.5t-237.5 -141.5zM383 156q60 0 96.5 94.5t36.5 265.5v57q0 173 -36.5 267t-96.5 94
q-62 0 -98.5 -94t-36.5 -267v-57q0 -171 37 -265.5t98 -94.5z" />
    <glyph glyph-name="uni04E8" unicode="&#x4e8;" horiz-adv-x="845" 
d="M424 -18q-167 0 -267 180t-100 524v62q0 344 100 524t267 180q166 0 265 -180t99 -524v-62q0 -344 -99 -524t-265 -180zM424 164q75 0 120.5 112.5t49.5 354.5h-342q4 -242 50 -354.5t122 -112.5zM424 1270q-75 0 -120.5 -110.5t-51.5 -346.5h340q-4 237 -48.5 347
t-119.5 110z" />
    <glyph glyph-name="uni04E9" unicode="&#x4e9;" horiz-adv-x="759" 
d="M379 -18q-144 0 -235 142t-91 396v49q0 252 92 395.5t236 143.5t235 -143t91 -396v-49q0 -254 -92 -396t-236 -142zM379 147q61 0 100 83.5t43 242.5h-284q4 -160 42 -243t99 -83zM379 942q-59 0 -97 -79.5t-44 -233.5h282q-6 154 -43.5 233.5t-97.5 79.5z" />
    <glyph glyph-name="uni04EE" unicode="&#x4ee;" horiz-adv-x="774" 
d="M383 0h-203l115 426l-283 1008h205l180 -699l170 699h203zM162 1509v140h465v-140h-465z" />
    <glyph glyph-name="uni04EF" unicode="&#x4ef;" horiz-adv-x="731" 
d="M362 362l146 730h190l-309 -1358h-188l67 297l-235 1061h192zM145 1180v135h443v-135h-443z" />
    <glyph glyph-name="uni04F0" unicode="&#x4f0;" horiz-adv-x="774" 
d="M383 0h-203l115 426l-283 1008h205l180 -699l170 699h203zM162 1509v193h184v-193h-184zM440 1509v193h185v-193h-185z" />
    <glyph glyph-name="uni04F1" unicode="&#x4f1;" horiz-adv-x="731" 
d="M362 362l146 730h190l-309 -1358h-188l67 297l-235 1061h192zM143 1178v196h181v-196h-181zM410 1178v196h180v-196h-180z" />
    <glyph glyph-name="uni04F2" unicode="&#x4f2;" horiz-adv-x="774" 
d="M383 0h-203l115 426l-283 1008h205l180 -699l170 699h203zM426 1499l162 246l157 -86l-182 -160h-137zM201 1499l161 246l158 -86l-182 -160h-137z" />
    <glyph glyph-name="uni04F3" unicode="&#x4f3;" horiz-adv-x="731" 
d="M362 362l146 730h190l-309 -1358h-188l67 297l-235 1061h192zM178 1167l164 289l147 -84l-184 -205h-127zM395 1167l164 289l148 -84l-185 -205h-127z" />
    <glyph glyph-name="uni04F4" unicode="&#x4f4;" horiz-adv-x="825" 
d="M535 0v518q-96 -14 -154 -14q-162 0 -237.5 84.5t-75.5 267.5v578h202v-562q0 -98 30.5 -135t117.5 -37q57 0 117 13v721h204v-1434h-204zM451 1509v193h184v-193h-184zM172 1509v193h184v-193h-184z" />
    <glyph glyph-name="uni04F5" unicode="&#x4f5;" horiz-adv-x="755" 
d="M414 1178v196h180v-196h-180zM147 1178v196h181v-196h-181zM481 0v381q-68 -10 -121 -10q-143 0 -220 67t-77 224v430h195v-408q0 -72 28 -101.5t97 -29.5q54 0 98 8v531h195v-1092h-195z" />
    <glyph glyph-name="uni04F8" unicode="&#x4f8;" horiz-adv-x="1132" 
d="M86 0v1434h203v-492h8q207 0 326.5 -120t119.5 -343v-4q0 -225 -124 -350t-340 -125h-193zM844 0v1434h203v-1434h-203zM289 188h26q104 3 165 75t61 208v4q0 139 -59 211t-163 72h-30v-570zM612 1518v192h185v-192h-185zM334 1518v192h184v-192h-184z" />
    <glyph glyph-name="uni04F9" unicode="&#x4f9;" horiz-adv-x="1040" 
d="M563 1186v196h180v-196h-180zM297 1186v196h180v-196h-180zM274 1092v-332h13q82 0 150.5 -21.5t122.5 -64.5t84 -116t30 -169v-6q0 -180 -111.5 -281.5t-304.5 -101.5h-178v1092h194zM274 598v-434h23q83 0 132.5 56.5t49.5 156.5v6q0 104 -49 159.5t-133 55.5h-23z
M766 0v1092h195v-1092h-195z" />
    <glyph glyph-name="baht" unicode="&#xe3f;" horiz-adv-x="790" 
d="M414 1616h135l-27 -227q96 -42 151.5 -122t55.5 -196v-8q0 -243 -227 -330q243 -87 243 -330v-14q0 -162 -102 -262.5t-276 -122.5l-29 -254h-135l28 250h-145v1434h201q53 0 102 -9zM285 186h16q109 0 175.5 57.5t66.5 159.5v11q0 104 -64.5 162.5t-173.5 58.5h-20v-449
zM285 811h16q108 0 168.5 58t60.5 165v4q0 102 -59 155.5t-160 53.5h-26v-436z" />
    <glyph glyph-name="Wgrave" unicode="&#x1e80;" horiz-adv-x="1224" 
d="M694 1509h-145l-191 160l174 86zM250 -6l-227 1440h208l131 -992l158 992h187l155 -992l133 992h203l-225 -1440h-209l-154 971l-151 -971h-209z" />
    <glyph glyph-name="wgrave" unicode="&#x1e81;" horiz-adv-x="1081" 
d="M233 -4l-198 1096h198l111 -723l121 723h156l120 -723l113 723h193l-199 -1096h-182l-125 702l-123 -702h-185zM487 1178l-192 202l162 86l164 -288h-134z" />
    <glyph glyph-name="Wacute" unicode="&#x1e82;" horiz-adv-x="1224" 
d="M526 1509l162 246l174 -86l-190 -160h-146zM250 -6l-227 1440h208l131 -992l158 992h187l155 -992l133 992h203l-225 -1440h-209l-154 971l-151 -971h-209z" />
    <glyph glyph-name="wacute" unicode="&#x1e83;" horiz-adv-x="1081" 
d="M461 1178l162 288l161 -86l-190 -202h-133zM233 -4l-198 1096h198l111 -723l121 723h156l120 -723l113 723h193l-199 -1096h-182l-125 702l-123 -702h-185z" />
    <glyph glyph-name="Wdieresis" unicode="&#x1e84;" horiz-adv-x="1224" 
d="M657 1520v192h185v-192h-185zM379 1520v192h184v-192h-184zM250 -6l-227 1440h208l131 -992l158 992h187l155 -992l133 992h203l-225 -1440h-209l-154 971l-151 -971h-209z" />
    <glyph glyph-name="wdieresis" unicode="&#x1e85;" horiz-adv-x="1081" 
d="M582 1188v196h180v-196h-180zM315 1188v196h181v-196h-181zM233 -4l-198 1096h198l111 -723l121 723h156l120 -723l113 723h193l-199 -1096h-182l-125 702l-123 -702h-185z" />
    <glyph glyph-name="Ygrave" unicode="&#x1ef2;" horiz-adv-x="763" 
d="M281 0v582l-277 852h211l170 -586l170 586h205l-277 -852v-582h-202zM467 1499h-145l-191 160l174 86z" />
    <glyph glyph-name="ygrave" unicode="&#x1ef3;" horiz-adv-x="731" 
d="M362 362l146 730h190l-309 -1358h-188l67 297l-235 1061h192zM311 1167l-192 203l162 86l163 -289h-133z" />
    <glyph glyph-name="enspace" unicode="&#x2002;" horiz-adv-x="1024" 
 />
    <glyph glyph-name="emspace" unicode="&#x2003;" horiz-adv-x="2048" 
 />
    <glyph glyph-name="threeperemspace" unicode="&#x2004;" horiz-adv-x="681" 
 />
    <glyph glyph-name="fourperemspace" unicode="&#x2005;" horiz-adv-x="512" 
 />
    <glyph glyph-name="figurespace" unicode="&#x2007;" horiz-adv-x="737" 
 />
    <glyph glyph-name="thinspace" unicode="&#x2009;" horiz-adv-x="251" 
 />
    <glyph glyph-name="hairspace" unicode="&#x200a;" horiz-adv-x="139" 
 />
    <glyph glyph-name="endash" unicode="&#x2013;" horiz-adv-x="899" 
d="M80 530v193h737v-193h-737z" />
    <glyph glyph-name="emdash" unicode="&#x2014;" horiz-adv-x="1320" 
d="M80 530v193h1161v-193h-1161z" />
    <glyph glyph-name="quoteleft" unicode="&#x2018;" horiz-adv-x="415" 
d="M84 891v209q0 289 260 338l21 -84q-61 -17 -98 -51.5t-47.5 -73.5t-6.5 -86h106v-252h-235z" />
    <glyph glyph-name="quoteright" unicode="&#x2019;" horiz-adv-x="415" 
d="M72 889l-23 86q91 23 125.5 79.5t26.5 129.5h-105v250h236v-207q0 -286 -260 -338z" />
    <glyph glyph-name="quotesinglbase" unicode="&#x201a;" horiz-adv-x="405" 
d="M59 -295l-20 84q166 45 151 211h-106v250h235v-207q0 -286 -260 -338z" />
    <glyph glyph-name="quotedblleft" unicode="&#x201c;" horiz-adv-x="768" 
d="M436 891v209q0 289 260 338l21 -84q-61 -17 -98 -51.5t-47.5 -73.5t-6.5 -86h107v-252h-236zM84 891v209q0 289 260 338l21 -84q-61 -17 -98 -51.5t-47.5 -73.5t-6.5 -86h106v-252h-235z" />
    <glyph glyph-name="quotedblright" unicode="&#x201d;" horiz-adv-x="768" 
d="M424 889l-23 86q91 23 125.5 79.5t26.5 129.5h-104v250h235v-207q0 -286 -260 -338zM72 889l-23 86q91 23 125.5 79.5t26.5 129.5h-105v250h236v-207q0 -286 -260 -338z" />
    <glyph glyph-name="quotedblbase" unicode="&#x201e;" horiz-adv-x="757" 
d="M412 -295l-21 84q61 17 98 51.5t47.5 73.5t6.5 86h-107v250h236v-207q0 -286 -260 -338zM59 -295l-20 84q166 45 151 211h-106v250h235v-207q0 -286 -260 -338z" />
    <glyph glyph-name="dagger" unicode="&#x2020;" horiz-adv-x="483" 
d="M172 487l23 568l-158 -21v142l158 -23l-29 281h151l-26 -281l155 23v-142l-157 21l22 -568h-139z" />
    <glyph glyph-name="daggerdbl" unicode="&#x2021;" horiz-adv-x="503" 
d="M176 0l29 279l-158 -21v141l158 -22l-27 340l27 338l-158 -21v142l158 -23l-29 281h152l-27 -281l156 23v-142l-158 21l27 -338l-27 -340l158 22v-141l-156 21l27 -279h-152z" />
    <glyph glyph-name="bullet" unicode="&#x2022;" horiz-adv-x="694" 
d="M346 440q-94 0 -151.5 69.5t-57.5 199.5v32q0 130 57.5 199.5t151.5 69.5t151.5 -69.5t57.5 -199.5v-32q0 -130 -57.5 -199.5t-151.5 -69.5z" />
    <glyph glyph-name="ellipsis" unicode="&#x2026;" horiz-adv-x="1341" 
d="M1006 0v252h237v-252h-237zM553 0v252h238v-252h-238zM98 0v252h238v-252h-238z" />
    <glyph glyph-name="perthousand" unicode="&#x2030;" horiz-adv-x="1650" 
d="M276 844q84 0 84 215v33q0 215 -84 215q-83 0 -83 -215v-33q0 -215 83 -215zM276 705q-100 0 -161.5 95t-61.5 257v37q0 162 61.5 257t161.5 95t162 -95t62 -257v-37q0 -162 -62 -257t-162 -95zM956 1434l-344 -742l-317 -692h-125l344 741l317 693h125zM848 127
q84 0 84 215v33q0 215 -84 215t-84 -215v-33q0 -215 84 -215zM848 -12q-100 0 -161.5 95t-61.5 257v37q0 162 61.5 257t161.5 95t161.5 -95t61.5 -257v-37q0 -162 -61.5 -257t-161.5 -95zM1374 127q84 0 84 215v33q0 215 -84 215q-82 0 -82 -215v-33q0 -215 82 -215z
M1374 -12q-100 0 -161.5 95t-61.5 257v37q0 162 61.5 257t161.5 95t162.5 -95t62.5 -257v-37q0 -162 -62.5 -257t-162.5 -95z" />
    <glyph glyph-name="guilsinglleft" unicode="&#x2039;" horiz-adv-x="522" 
d="M334 88l-281 444v17l281 444l135 -78l-205 -372l209 -373z" />
    <glyph glyph-name="guilsinglright" unicode="&#x203a;" horiz-adv-x="522" 
d="M188 88l-135 78l205 373l-209 372l139 82l281 -444v-17z" />
    <glyph glyph-name="fraction" unicode="&#x2044;" horiz-adv-x="122" 
d="M-283 0l303 741l275 693h111l-304 -742l-274 -692h-111z" />
    <glyph glyph-name="zero.sup" unicode="&#x2070;" 
d="M246 936q-103 0 -152 86t-49 268v27q0 181 49 267.5t152 86.5t151.5 -85.5t48.5 -268.5v-27q0 -183 -48.5 -268.5t-151.5 -85.5zM246 1550q-38 0 -56 -52.5t-18 -184.5v-19q0 -132 18 -184.5t56 -52.5t55.5 52.5t17.5 184.5v19q0 131 -17.5 184t-55.5 53z" />
    <glyph glyph-name="four.sup" unicode="&#x2074;" 
d="M403 1081v-135h-116v135h-252v111l198 473h170v-471h60v-113h-60zM291 1194v317h-12l-134 -317h146z" />
    <glyph glyph-name="five.sup" unicode="&#x2075;" 
d="M215 936q-93 0 -156 49v127q62 -55 142 -55q52 0 81 32t29 87q0 52 -27 78t-71 26q-42 0 -80 -20l-76 34l27 367h328v-121h-224l-12 -151q40 8 66 8q88 0 145 -54.5t57 -162.5q0 -112 -65.5 -178t-163.5 -66z" />
    <glyph glyph-name="six.sup" unicode="&#x2076;" 
d="M250 936q-77 0 -123 49q-78 72 -78 279v26q0 201 65 291t175 90q60 0 112 -31l-6 -127q-53 39 -98 39q-52 0 -82.5 -43.5t-34.5 -128.5q52 33 103 33q70 0 118 -54t48 -173q0 -115 -56.5 -182.5t-142.5 -67.5zM252 1053q34 0 54 32t20 95q0 123 -78 123q-39 0 -70 -31
v-58q0 -89 19 -125t55 -36z" />
    <glyph glyph-name="seven.sup" unicode="&#x2077;" 
d="M227 946h-135l205 590h-244v125h381v-94z" />
    <glyph glyph-name="eight.sup" unicode="&#x2078;" 
d="M246 936q-95 0 -152 56t-57 151q0 63 26.5 109t69.5 69q-38 24 -60 65.5t-22 92.5q0 89 55 140.5t140 51.5t139.5 -51.5t54.5 -140.5q0 -51 -22 -92.5t-60 -65.5q43 -23 70 -69t27 -109q0 -95 -57 -151t-152 -56zM246 1571q-35 0 -54.5 -25t-19.5 -71q0 -47 19.5 -74
t54.5 -27t54 26.5t19 74.5q0 46 -19 71t-54 25zM246 1266q-38 0 -60 -30t-22 -87q0 -54 22 -83.5t60 -29.5t60 29.5t22 83.5q0 57 -22 87t-60 30z" />
    <glyph glyph-name="nine.sup" unicode="&#x2079;" 
d="M244 1671q77 0 123 -49q77 -74 77 -279v-28q0 -200 -64.5 -289.5t-174.5 -89.5q-61 0 -123 35v127q60 -43 115 -43q107 0 116 164q-52 -33 -102 -33q-70 0 -118 55t-48 176q0 117 56.5 185.5t142.5 68.5zM246 1298q41 0 69 31v62q0 89 -18.5 126t-54.5 37
q-34 0 -54 -33.5t-20 -99.5q0 -123 78 -123z" />
    <glyph glyph-name="zero.inf" unicode="&#x2080;" 
d="M246 -281q-103 0 -152 86t-49 269v26q0 181 49 268t152 87t151.5 -86t48.5 -269v-26q0 -183 -48.5 -269t-151.5 -86zM246 334q-38 0 -56 -53t-18 -185v-18q0 -132 18 -185t56 -53t55.5 53t17.5 185v18q0 131 -17.5 184.5t-55.5 53.5z" />
    <glyph glyph-name="one.inf" unicode="&#x2081;" horiz-adv-x="399" 
d="M291 -270h-135v575l-117 -57v129l151 72h101v-719z" />
    <glyph glyph-name="two.inf" unicode="&#x2082;" 
d="M55 -270v104l178 264q38 60 53 91t15 61q0 37 -23 58.5t-59 21.5q-69 0 -147 -84v137q76 72 170 72q86 0 140 -50.5t54 -138.5q0 -86 -78 -200l-141 -211h217v-125h-379z" />
    <glyph glyph-name="three.inf" unicode="&#x2083;" 
d="M215 -281q-88 0 -154 52v127q24 -24 63 -41t77 -17q49 0 79.5 26t30.5 77q0 99 -172 102h-4v90l144 189h-216v120h375v-96l-166 -205q77 -16 123.5 -64.5t46.5 -133.5q0 -103 -63.5 -164.5t-163.5 -61.5z" />
    <glyph glyph-name="four.inf" unicode="&#x2084;" 
d="M403 -135v-135h-116v135h-252v110l198 474h170v-472h60v-112h-60zM291 -23v318h-12l-134 -318h146z" />
    <glyph glyph-name="five.inf" unicode="&#x2085;" 
d="M215 -281q-92 0 -156 50v127q63 -56 142 -56q52 0 81 32t29 87q0 52 -27 78t-71 26q-42 0 -80 -20l-76 35l27 366h328v-120h-224l-12 -152q40 8 66 8q88 0 145 -54.5t57 -162.5q0 -112 -65.5 -178t-163.5 -66z" />
    <glyph glyph-name="six.inf" unicode="&#x2086;" 
d="M250 -281q-76 0 -123 50q-78 72 -78 278v27q0 201 65 291t175 90q60 0 112 -31l-6 -127q-53 39 -98 39q-52 0 -82.5 -43.5t-34.5 -128.5q52 33 103 33q70 0 118 -54.5t48 -173.5q0 -115 -56.5 -182.5t-142.5 -67.5zM252 -164q34 0 54 32t20 95q0 123 -78 123
q-39 0 -70 -31v-57q0 -89 19 -125.5t55 -36.5z" />
    <glyph glyph-name="seven.inf" unicode="&#x2087;" 
d="M227 -270h-135l205 589h-244v125h381v-94z" />
    <glyph glyph-name="eight.inf" unicode="&#x2088;" 
d="M246 -281q-95 0 -152 56t-57 151q0 63 26.5 109t69.5 69q-38 24 -60 65.5t-22 92.5q0 89 55 141t140 52t139.5 -52t54.5 -141q0 -51 -22 -92.5t-60 -65.5q43 -23 70 -69t27 -109q0 -95 -57 -151t-152 -56zM246 354q-35 0 -54.5 -25t-19.5 -71q0 -47 19.5 -73.5
t54.5 -26.5t54 26t19 74q0 46 -19 71t-54 25zM246 49q-38 0 -60 -30t-22 -87q0 -54 21.5 -83t60.5 -29t60.5 29t21.5 83q0 57 -22 87t-60 30z" />
    <glyph glyph-name="nine.inf" unicode="&#x2089;" 
d="M244 455q77 0 123 -49q77 -74 77 -279v-29q0 -200 -64.5 -289.5t-174.5 -89.5q-61 0 -123 35v127q60 -43 115 -43q107 0 116 164q-52 -33 -102 -33q-70 0 -118 55.5t-48 176.5q0 117 56.5 185.5t142.5 68.5zM246 82q41 0 69 31v61q0 89 -18.5 126.5t-54.5 37.5
q-34 0 -54 -33.5t-20 -99.5q0 -123 78 -123z" />
    <glyph glyph-name="colonmonetary" unicode="&#x20a1;" horiz-adv-x="700" 
d="M539 1595h73l-16 -170q8 -3 17 -6.5t20 -8t18 -7.5v-211q-88 55 -151 55q-230 0 -230 -506v-49q0 -141 17 -241.5t49.5 -157t73.5 -82t94 -25.5q68 0 151 56v-201q-82 -51 -186 -51q-17 0 -25 2l-26 -234h-74l29 244q-60 18 -107 57l-33 -301h-73l41 371
q-135 182 -135 565v45q0 276 72 444t198 228l18 184h74l-16 -159q33 8 73 8q27 0 37 -2z" />
    <glyph glyph-name="naira" unicode="&#x20a6;" horiz-adv-x="1056" 
d="M1030 424h-151v-424h-195l-145 440h-2l-162 492v-932h-197v424h-151v170h151v254h-151v170h151v416h207l131 -398h2l164 -504v902h197v-416h151v-170h-151v-252h151v-172z" />
    <glyph glyph-name="rupee" unicode="&#x20a8;" horiz-adv-x="1259" 
d="M72 0v1434h215q179 0 285 -113.5t106 -335.5v-14q0 -266 -172 -385l194 -586h-204l-172 524h-64v-524h-188zM963 -18q-112 0 -213 49v182q122 -61 204 -61q47 0 78 31t31 81v4q0 47 -26.5 93t-104.5 124q-98 97 -141 171.5t-43 166.5v4q0 128 76.5 203.5t201.5 75.5
q94 0 174 -27v-184q-84 41 -166 41q-47 0 -76.5 -28t-29.5 -74v-5q0 -43 26 -86t109 -127q101 -101 139.5 -174.5t38.5 -165.5v-4q0 -131 -78.5 -210.5t-199.5 -79.5zM260 696h31q91 0 144.5 69.5t53.5 207.5v12q0 270 -208 270h-21v-559z" />
    <glyph glyph-name="won" unicode="&#x20a9;" horiz-adv-x="1361" 
d="M1253 1434l-61 -416h164v-170h-189l-34 -252h223v-172h-248l-61 -428h-216l-73 485l-76 510h-2l-78 -510l-72 -485h-217l-61 428h-246v170h221l-37 254h-184v170h160l-60 416h207l52 -443l65 -573h2l88 579l66 437h196l64 -441h2l84 -575h2l67 577l52 439h200z" />
    <glyph glyph-name="sheqel" unicode="&#x20aa;" horiz-adv-x="894" 
d="M322 285l-35 391h108l31 -301q9 -92 39 -134t90 -42h119v882h141v-1081h-264q-203 0 -229 285zM481 705q0 178 -112 178h-148v-883h-141v1081h315q89 0 143 -71t54 -201v-397h-111v293z" />
    <glyph glyph-name="Euro" unicode="&#x20ac;" horiz-adv-x="763" 
d="M705 1417v-211q-77 47 -140 47q-76 0 -130.5 -70.5t-76.5 -219.5h242v-150h-254q-2 -23 -2 -70v-51v-61h256v-152h-244q39 -299 213 -299q69 0 142 47v-200q-69 -43 -179 -43q-146 0 -247.5 124t-132.5 371h-123v152h110v61v49q0 47 2 72h-112v150h125q34 243 140.5 365
t254.5 122q91 0 156 -33z" />
    <glyph glyph-name="peso" unicode="&#x20b1;" horiz-adv-x="978" 
d="M158 0v860h-152v172h152v402h204q189 0 307 -102.5t136 -299.5h156v-172h-158q-24 -181 -136 -281.5t-288 -109.5h-19v-469h-202zM381 655q104 3 165.5 79.5t61.5 215.5v4q0 145 -59.5 219t-163.5 74h-25v-592h21z" />
    <glyph glyph-name="hryvnia" unicode="&#x20b4;" horiz-adv-x="731" 
d="M55 858l11 90l292 -49q51 74 71 123.5t20 95.5v2q0 66 -37.5 101.5t-100.5 35.5q-86 0 -194 -63v199q116 53 225 53q145 0 228 -82.5t83 -228.5v-2q0 -124 -84 -267l138 -22l-9 -88l-178 28l-12 -18l-72 -104l248 -39l-10 -88l-293 47q-61 -91 -84 -147t-23 -111v-2
q0 -70 39 -108t107 -38q90 0 219 72v-203q-114 -57 -240 -57q-158 0 -243.5 87t-85.5 236v2q0 139 98 303l-135 23l8 88l178 -29l4 4l80 115z" />
    <glyph glyph-name="numero" unicode="&#x2116;" horiz-adv-x="1308" 
d="M86 0v1434h182l246 -848v848h182v-1434h-174l-254 881v-881h-182zM1028 578q-102 0 -164.5 107t-62.5 304v41q0 197 63 305.5t164 108.5q100 0 162.5 -108.5t62.5 -305.5v-41q0 -196 -62.5 -303.5t-162.5 -107.5zM1028 711q80 0 80 278v43q0 277 -80 277q-82 0 -82 -277
v-43q0 -278 82 -278zM805 338v131h444v-131h-444z" />
    <glyph glyph-name="published" unicode="&#x2117;" horiz-adv-x="1069" 
d="M535 -20q-217 0 -351.5 194.5t-134.5 507.5v70q0 315 134.5 508.5t351.5 193.5q218 0 351.5 -193.5t133.5 -508.5v-70q0 -314 -133.5 -508t-351.5 -194zM535 47q192 0 303.5 175t111.5 458v74q0 186 -49 329t-143.5 224.5t-222.5 81.5t-223 -81.5t-144 -224.5t-49 -329
v-74q0 -283 112 -458t304 -175zM387 336v788h121q112 0 179 -65.5t67 -194.5v-4q0 -125 -64.5 -193t-171.5 -73h-14v-258h-117zM504 702h16q115 7 115 154v2q0 156 -115 156h-16v-312z" />
    <glyph glyph-name="servicemark" unicode="&#x2120;" horiz-adv-x="886" 
d="M410 788v646h118l82 -246l82 246h119v-646h-106v433l-93 -279h-4l-90 279v-433h-108zM172 784q-69 0 -125 29v115q67 -41 115 -41q27 0 43 16t16 43q0 25 -13 49t-50 64q-68 71 -92.5 112t-24.5 101q0 74 46.5 120t115.5 46q66 0 108 -23v-115q-58 33 -98 33
q-25 0 -41 -15.5t-16 -41.5q0 -24 12 -44.5t51 -62.5q67 -72 92 -116.5t25 -102.5q0 -73 -47.5 -119.5t-116.5 -46.5z" />
    <glyph glyph-name="trademark" unicode="&#x2122;" horiz-adv-x="856" 
d="M379 788v646h121l80 -246l82 246h118v-646h-106v433l-92 -279h-4l-91 279v-433h-108zM111 788v539h-86v107h284v-107h-88v-539h-110z" />
    <glyph glyph-name="Omega" unicode="&#x2126;" horiz-adv-x="876" 
d="M440 1452q172 0 270.5 -142.5t98.5 -432.5v-23q0 -334 -176 -664l186 3v-193h-336v182q58 159 89.5 314t31.5 344v12q0 153 -21.5 247.5t-56.5 131.5t-88 37q-54 0 -88.5 -36.5t-55 -130t-20.5 -247.5v-12q0 -189 31.5 -345.5t89.5 -314.5v-182h-336v193l187 -3
q-176 321 -176 664v23q0 289 98.5 432t271.5 143z" />
    <glyph glyph-name="onethird" unicode="&#x2153;" horiz-adv-x="1013" 
d="M752 -10q-90 0 -154 51v127q24 -24 62.5 -40.5t76.5 -16.5q50 0 80.5 26t30.5 76q0 99 -172 102h-4v91l143 188h-215v121h375v-97l-166 -204q77 -16 123.5 -65t46.5 -134q0 -103 -63.5 -164t-163.5 -61zM295 719h-135v575l-117 -57v131l152 70h100v-719zM102 0l304 741
l274 693h111l-304 -742l-274 -692h-111z" />
    <glyph glyph-name="twothirds" unicode="&#x2154;" horiz-adv-x="1105" 
d="M858 -10q-89 0 -153 51v127q24 -24 62.5 -40.5t76.5 -16.5q50 0 80 26t30 76q0 99 -172 102h-4v91l144 188h-215v121h374v-97l-166 -204q77 -16 123.5 -65t46.5 -134q0 -103 -63.5 -164t-163.5 -61zM47 719v106l178 262q28 46 38.5 63.5t20 43t9.5 45.5q0 37 -23 58.5
t-59 21.5q-70 0 -148 -84v137q76 72 170 72q86 0 140.5 -50.5t54.5 -138.5q0 -86 -78 -200l-141 -211h217v-125h-379zM209 0l303 741l274 693h111l-303 -742l-275 -692h-110z" />
    <glyph glyph-name="onefifth" unicode="&#x2155;" horiz-adv-x="1013" 
d="M731 -10q-93 0 -156 49v127q62 -55 142 -55q52 0 81 31.5t29 86.5q0 52 -27 78.5t-71 26.5q-40 0 -80 -21l-76 35l27 367h328v-121h-223l-13 -152q45 9 66 9q88 0 145.5 -55t57.5 -163q0 -112 -65.5 -177.5t-164.5 -65.5zM96 0l303 741l275 693h110l-303 -742l-274 -692
h-111zM297 719h-135v575l-117 -57v131l152 70h100v-719z" />
    <glyph glyph-name="twofifths" unicode="&#x2156;" horiz-adv-x="1105" 
d="M854 -10q-93 0 -156 49v127q62 -55 142 -55q52 0 81 31.5t29 86.5q0 52 -27 78.5t-71 26.5q-40 0 -80 -21l-76 35l27 367h328v-121h-224l-12 -152q45 9 66 9q88 0 145 -55t57 -163q0 -112 -65 -177.5t-164 -65.5zM47 719v106l178 262q28 46 38.5 63.5t20 43t9.5 45.5
q0 37 -23 58.5t-59 21.5q-70 0 -148 -84v137q76 72 170 72q86 0 140.5 -50.5t54.5 -138.5q0 -86 -78 -200l-141 -211h217v-125h-379zM219 0l303 741l275 693h110l-303 -742l-274 -692h-111z" />
    <glyph glyph-name="threefifths" unicode="&#x2157;" horiz-adv-x="1105" 
d="M854 -10q-93 0 -156 49v127q62 -55 142 -55q52 0 81 31.5t29 86.5q0 52 -27 78.5t-71 26.5q-40 0 -80 -21l-76 35l27 367h328v-121h-224l-12 -152q45 9 66 9q88 0 145 -55t57 -163q0 -112 -65 -177.5t-164 -65.5zM217 711q-92 0 -154 49v127q24 -24 63 -41t77 -17
q49 0 79.5 27t30.5 76q0 99 -172 102h-4v90l144 189h-215v121h374v-97l-166 -204q170 -36 170 -197q0 -104 -63.5 -164.5t-163.5 -60.5zM203 0l303 741l274 693h111l-303 -742l-275 -692h-110z" />
    <glyph glyph-name="fourfifths" unicode="&#x2158;" horiz-adv-x="1105" 
d="M385 856v-137h-117v137h-252v109l199 473h170v-471h59v-111h-59zM854 -10q-93 0 -156 49v127q62 -55 142 -55q52 0 81 31.5t29 86.5q0 52 -27 78.5t-71 26.5q-40 0 -80 -21l-76 35l27 367h328v-121h-224l-12 -152q45 9 66 9q88 0 145 -55t57 -163q0 -112 -65 -177.5
t-164 -65.5zM207 0l303 741l274 693h111l-303 -742l-275 -692h-110zM272 967v317h-12l-133 -317h145z" />
    <glyph glyph-name="onesixth" unicode="&#x2159;" horiz-adv-x="1013" 
d="M748 -10q-77 0 -123 49q-78 72 -78 278v27q0 202 64.5 291.5t174.5 89.5q61 0 113 -31l-6 -127q-53 39 -98 39q-52 0 -82.5 -43.5t-34.5 -128.5q52 33 102 33q70 0 118 -54t48 -173q0 -115 -56 -182.5t-142 -67.5zM750 106q34 0 53.5 31.5t19.5 95.5q0 123 -78 123
q-39 0 -69 -30v-58q0 -89 19 -125.5t55 -36.5zM297 719h-135v575l-117 -57v131l152 70h100v-719zM111 0l303 741l274 693h111l-303 -742l-275 -692h-110z" />
    <glyph glyph-name="fivesixths" unicode="&#x215a;" horiz-adv-x="1105" 
d="M860 -10q-77 0 -123 49q-78 72 -78 278v27q0 201 65 291t175 90q61 0 113 -31l-6 -127q-53 39 -99 39q-107 0 -116 -172q52 33 102 33q70 0 118 -54t48 -173q0 -115 -56.5 -182.5t-142.5 -67.5zM217 711q-96 0 -156 47v127q63 -56 142 -56q52 0 81 32t29 87
q0 52 -27 78.5t-71 26.5q-36 0 -80 -19l-76 33l27 367h328v-119h-224l-12 -154q27 8 66 8q88 0 145 -54.5t57 -162.5q0 -112 -65 -176.5t-164 -64.5zM203 0l303 741l274 693h111l-303 -742l-275 -692h-110zM862 106q34 0 54 32t20 95q0 123 -78 123q-40 0 -70 -30v-58
q0 -89 19 -125.5t55 -36.5z" />
    <glyph glyph-name="oneeighth" unicode="&#x215b;" horiz-adv-x="1013" 
d="M745 -10q-95 0 -151.5 56t-56.5 151q0 63 26.5 109t69.5 69q-82 52 -82 157q0 89 54.5 141t139.5 52t140 -52t55 -141q0 -105 -82 -157q43 -23 69.5 -69t26.5 -109q0 -95 -57 -151t-152 -56zM745 625q-35 0 -54 -25.5t-19 -71.5q0 -48 19 -74t54 -26t54.5 26.5t19.5 73.5
q0 46 -19.5 71.5t-54.5 25.5zM745 319q-38 0 -59.5 -29.5t-21.5 -86.5q0 -54 21.5 -83.5t59.5 -29.5t60 29.5t22 83.5q0 57 -22 86.5t-60 29.5zM297 719h-135v575l-117 -57v131l152 70h100v-719zM100 0l303 741l275 693h110l-303 -742l-274 -692h-111z" />
    <glyph glyph-name="threeeighths" unicode="&#x215c;" horiz-adv-x="1105" 
d="M866 -10q-95 0 -152 56t-57 151q0 63 27 109t70 69q-82 52 -82 157q0 89 54.5 141t139.5 52t140 -52t55 -141q0 -105 -82 -157q43 -23 69.5 -69t26.5 -109q0 -95 -57 -151t-152 -56zM866 625q-35 0 -54 -25.5t-19 -71.5q0 -48 19 -74t54 -26t54.5 26.5t19.5 73.5
q0 46 -19.5 71.5t-54.5 25.5zM866 319q-38 0 -60 -29.5t-22 -86.5q0 -54 22 -83.5t60 -29.5t60 29.5t22 83.5q0 57 -22 86.5t-60 29.5zM203 0l303 741l274 693h111l-303 -742l-275 -692h-110zM221 711q-91 0 -153 49v127q25 -25 63 -41.5t76 -16.5q49 0 79.5 27t30.5 76
q0 99 -172 102h-4v90l144 189h-215v121h374v-97l-165 -204q170 -36 170 -197q0 -104 -64 -164.5t-164 -60.5z" />
    <glyph glyph-name="fiveeighths" unicode="&#x215d;" horiz-adv-x="1105" 
d="M866 -10q-95 0 -152 56t-57 151q0 63 27 109t70 69q-82 52 -82 157q0 89 54.5 141t139.5 52t140 -52t55 -141q0 -105 -82 -157q43 -23 69.5 -69t26.5 -109q0 -95 -57 -151t-152 -56zM219 711q-96 0 -156 47v127q63 -56 142 -56q52 0 81 32t29 87q0 52 -27 78.5t-71 26.5
q-36 0 -80 -19l-76 33l27 367h328v-119h-223l-13 -154q27 8 66 8q88 0 145.5 -54.5t57.5 -162.5q0 -112 -65.5 -176.5t-164.5 -64.5zM203 0l303 741l274 693h111l-303 -742l-275 -692h-110zM866 319q-38 0 -60 -29.5t-22 -86.5q0 -54 22 -83.5t60 -29.5t60 29.5t22 83.5
q0 57 -22 86.5t-60 29.5zM866 625q-35 0 -54 -25.5t-19 -71.5q0 -48 19 -74t54 -26t54.5 26.5t19.5 73.5q0 46 -19.5 71.5t-54.5 25.5z" />
    <glyph glyph-name="seveneighths" unicode="&#x215e;" horiz-adv-x="1105" 
d="M813 -10q-95 0 -152 56t-57 151q0 63 26.5 109t69.5 69q-82 52 -82 157q0 89 55 141t140 52t140 -52t55 -141q0 -105 -82 -157q43 -23 69.5 -69t26.5 -109q0 -95 -57 -151t-152 -56zM813 625q-35 0 -54.5 -25.5t-19.5 -71.5q0 -47 19.5 -73.5t54.5 -26.5t54.5 26.5
t19.5 73.5q0 46 -19.5 71.5t-54.5 25.5zM813 319q-38 0 -60 -29.5t-22 -86.5q0 -54 22 -83.5t60 -29.5t60 29.5t22 83.5q0 57 -22 86.5t-60 29.5zM246 719h-135l204 590h-243v125h381v-95zM131 0l303 741l275 693h110l-303 -742l-274 -692h-111z" />
    <glyph glyph-name="Delta" unicode="&#x2206;" horiz-adv-x="827" 
d="M59 0l-20 158l264 1280h221l264 -1280l-20 -158h-709zM238 186h344l-172 922z" />
    <glyph glyph-name="minus" unicode="&#x2212;" horiz-adv-x="753" 
d="M702 621h-649v200h649v-200z" />
    <glyph glyph-name="Q.alt" horiz-adv-x="851" 
d="M627 -176l-115 172q-38 -14 -86 -14q-169 0 -269 180t-100 524v62q0 344 100 524t269 180t269 -180t100 -524v-62q0 -393 -133 -575l178 -287h-213zM426 166q164 0 164 520v62q0 520 -164 520t-164 -520v-62q0 -520 164 -520z" />
    <glyph glyph-name="a.alt" horiz-adv-x="782" 
d="M305 -18q-53 0 -97 29t-78.5 89.5t-53.5 163.5t-19 242v80q0 268 68.5 396t179.5 128q38 0 70.5 -15t56.5 -42t41 -54.5t33 -62.5v156h196v-1092h-196v158q-79 -176 -201 -176zM377 166q59 0 96 91.5t37 254.5v68q0 163 -37 254.5t-96 91.5q-58 0 -91.5 -91.5
t-33.5 -256.5v-64q0 -166 33.5 -257t91.5 -91z" />
    <glyph glyph-name="uni039E.alt" horiz-adv-x="788" 
d="M739 190v-190h-688v190h248v437h-217v190h217v426h-244v191h678v-191h-241v-426h215v-190h-215v-437h247z" />
    <glyph glyph-name="uni0424.bgr" horiz-adv-x="1206" 
d="M500 -186v180q-209 34 -327 218t-118 499v12q0 313 119 497t326 220v180h205v-180q207 -33 326.5 -218t119.5 -499v-12q0 -314 -120 -499t-326 -218v-180h-205zM946 727q0 227 -64.5 361t-181.5 169v-1081q117 35 181.5 169t64.5 364v18zM260 707q0 -228 64.5 -362
t181.5 -169v1081q-117 -35 -181.5 -169.5t-64.5 -362.5v-18z" />
    <glyph glyph-name="uni0432.bgr" horiz-adv-x="780" 
d="M397 -18q-327 0 -327 413v660q0 184 85 291.5t246 107.5q145 0 231.5 -101t86.5 -259v-11q0 -130 -54.5 -224.5t-152.5 -135.5q109 -41 166 -122.5t57 -223.5v-8q0 -174 -90 -280.5t-248 -106.5zM397 152q68 0 106 60t38 167v4q0 130 -50.5 193t-158.5 63h-70v-238
q0 -132 33.5 -190.5t101.5 -58.5zM262 1071v-274h74q188 0 188 268v4q0 99 -33.5 156t-95.5 57q-64 0 -98.5 -53.5t-34.5 -157.5z" />
    <glyph glyph-name="uni0433.bgr" horiz-adv-x="600" 
d="M319 -18q-139 0 -215.5 74.5t-76.5 203.5v4q0 91 45.5 171t152.5 183q94 93 124 134t30 84q0 45 -29 69.5t-82 24.5q-83 0 -180 -51v192q87 35 197 35q134 0 209 -69.5t75 -190.5v-4q0 -95 -47 -172.5t-157 -184.5q-84 -81 -116 -127.5t-32 -93.5v-2q0 -50 30 -77t85 -27
q86 0 213 65v-192q-117 -49 -226 -49z" />
    <glyph glyph-name="uni0434.bgr" horiz-adv-x="782" 
d="M338 -270q-114 0 -236 37v182q122 -47 215 -47q189 0 189 186v152q-78 -177 -203 -177q-52 0 -95.5 29.5t-78 89.5t-53.5 161.5t-19 236.5v14q0 135 19 236.5t53.5 161.5t78 89t95.5 29q126 0 203 -174v156h196v-1016q0 -166 -90 -256t-274 -90zM377 248q57 0 95 88
t38 246v10q0 157 -38 245.5t-95 88.5q-56 0 -90.5 -87.5t-34.5 -248.5v-6q0 -162 34.5 -249t90.5 -87z" />
    <glyph glyph-name="uni0436.bgr" horiz-adv-x="1087" 
d="M639 1446l-6 -809h59l164 455h205l-205 -531l211 -561h-209l-166 463h-59l6 -463h-193l5 463h-56l-168 -463h-207l211 551l-206 541h208l160 -455h58l-5 809h193z" />
    <glyph glyph-name="uni0438.bgr" horiz-adv-x="772" 
d="M295 -18q-104 0 -162.5 81.5t-58.5 219.5v809h194v-766q0 -82 28.5 -126t80.5 -44q54 0 87.5 47t33.5 127v762h194v-1092h-194v139q-75 -157 -203 -157z" />
    <glyph glyph-name="uni0439.bgr" horiz-adv-x="772" 
d="M295 -18q-104 0 -162.5 81.5t-58.5 219.5v809h194v-766q0 -82 28.5 -126t80.5 -44q54 0 87.5 47t33.5 127v762h194v-1092h-194v139q-75 -157 -203 -157zM383 1161q-94 0 -156 58t-69 172h121q16 -103 104 -103t104 103h123q-9 -114 -71 -172t-156 -58z" />
    <glyph glyph-name="uni043A.bgr" horiz-adv-x="729" 
d="M711 0h-213l-162 459h-62v-459h-194v1446h194v-807h60l164 453h209l-205 -531z" />
    <glyph glyph-name="uni043F.bgr" horiz-adv-x="772" 
d="M80 0v1092h194v-140q75 158 203 158q105 0 163 -81.5t58 -221.5v-807h-194v766q0 82 -28.5 126t-80.5 44q-54 0 -87.5 -47t-33.5 -127v-762h-194z" />
    <glyph glyph-name="uni0442.bgr" horiz-adv-x="1183" 
d="M80 0v1092h194v-138q78 156 201 156q127 0 193 -143q90 143 209 143q100 0 166.5 -80t66.5 -223v-807h-195v766q0 83 -27.5 126.5t-78.5 43.5q-52 0 -84.5 -47t-32.5 -127v-762h-194v766q0 83 -28 126.5t-79 43.5q-52 0 -84.5 -47t-32.5 -127v-762h-194z" />
    <glyph glyph-name="uni0446.bgr" horiz-adv-x="811" 
d="M614 -205v205h-116v139q-75 -157 -203 -157q-104 0 -162.5 81.5t-58.5 219.5v809h194v-766q0 -82 28.5 -126t80.5 -44q54 0 87.5 47t33.5 127v762h194v-916h92v-381h-170z" />
    <glyph glyph-name="uni0448.bgr" horiz-adv-x="1183" 
d="M1104 1092v-1092h-197v137q-37 -75 -84 -115t-116 -40q-123 0 -193 143q-86 -143 -209 -143q-99 0 -165 79.5t-66 223.5v807h194v-766q0 -82 27.5 -126t77.5 -44q52 0 85.5 47t33.5 127v762h194v-766q0 -82 27.5 -126t77.5 -44q52 0 84 46.5t32 127.5v762h197z" />
    <glyph glyph-name="uni0449.bgr" horiz-adv-x="1220" 
d="M1024 -205v205h-117v137q-37 -75 -84 -115t-116 -40q-123 0 -193 143q-86 -143 -209 -143q-99 0 -165 79.5t-66 223.5v807h194v-766q0 -82 27.5 -126t77.5 -44q52 0 85.5 47t33.5 127v762h194v-766q0 -82 27.5 -126t77.5 -44q52 0 84 46.5t32 127.5v762h197v-916h90v-381
h-170z" />
    <glyph glyph-name="uni044E.bgr" horiz-adv-x="1091" 
d="M274 459v-459h-194v1446h194v-803h115q13 220 102 342.5t222 122.5q144 0 234.5 -142.5t90.5 -396.5v-51q0 -254 -90.5 -395t-234.5 -141q-136 0 -225 124.5t-101 352.5h-113zM713 156q61 0 96 94t35 266v57q0 174 -35 267.5t-96 93.5q-60 0 -95.5 -94t-35.5 -267v-57
q0 -171 35.5 -265.5t95.5 -94.5z" />
    <glyph glyph-name="aacute.alt" horiz-adv-x="782" 
d="M328 1184l161 289l162 -87l-190 -202h-133zM305 -18q-53 0 -97 29t-78.5 89.5t-53.5 163.5t-19 242v80q0 268 68.5 396t179.5 128q38 0 70.5 -15t56.5 -42t41 -54.5t33 -62.5v156h196v-1092h-196v158q-79 -176 -201 -176zM377 166q59 0 96 91.5t37 254.5v68
q0 163 -37 254.5t-96 91.5q-58 0 -91.5 -91.5t-33.5 -256.5v-64q0 -166 33.5 -257t91.5 -91z" />
    <glyph glyph-name="abreve.alt" horiz-adv-x="782" 
d="M305 -18q-53 0 -97 29t-78.5 89.5t-53.5 163.5t-19 242v80q0 268 68.5 396t179.5 128q38 0 70.5 -15t56.5 -42t41 -54.5t33 -62.5v156h196v-1092h-196v158q-79 -176 -201 -176zM377 166q59 0 96 91.5t37 254.5v68q0 163 -37 254.5t-96 91.5q-58 0 -91.5 -91.5
t-33.5 -256.5v-64q0 -166 33.5 -257t91.5 -91zM406 1178q-94 0 -156.5 58t-69.5 171h121q16 -102 105 -102q88 0 104 102h123q-9 -114 -71 -171.5t-156 -57.5z" />
    <glyph glyph-name="acircumflex.alt" horiz-adv-x="782" 
d="M178 1188l154 274h147l154 -274h-133l-97 135l-96 -135h-129zM305 -18q-53 0 -97 29t-78.5 89.5t-53.5 163.5t-19 242v80q0 268 68.5 396t179.5 128q38 0 70.5 -15t56.5 -42t41 -54.5t33 -62.5v156h196v-1092h-196v158q-79 -176 -201 -176zM377 166q59 0 96 91.5
t37 254.5v68q0 163 -37 254.5t-96 91.5q-58 0 -91.5 -91.5t-33.5 -256.5v-64q0 -166 33.5 -257t91.5 -91z" />
    <glyph glyph-name="adieresis.alt" horiz-adv-x="782" 
d="M449 1194v197h180v-197h-180zM182 1194v197h180v-197h-180zM305 -18q-53 0 -97 29t-78.5 89.5t-53.5 163.5t-19 242v80q0 268 68.5 396t179.5 128q38 0 70.5 -15t56.5 -42t41 -54.5t33 -62.5v156h196v-1092h-196v158q-79 -176 -201 -176zM377 166q59 0 96 91.5t37 254.5
v68q0 163 -37 254.5t-96 91.5q-58 0 -91.5 -91.5t-33.5 -256.5v-64q0 -166 33.5 -257t91.5 -91z" />
    <glyph glyph-name="agrave.alt" horiz-adv-x="782" 
d="M305 -18q-53 0 -97 29t-78.5 89.5t-53.5 163.5t-19 242v80q0 268 68.5 396t179.5 128q38 0 70.5 -15t56.5 -42t41 -54.5t33 -62.5v156h196v-1092h-196v158q-79 -176 -201 -176zM377 166q59 0 96 91.5t37 254.5v68q0 163 -37 254.5t-96 91.5q-58 0 -91.5 -91.5
t-33.5 -256.5v-64q0 -166 33.5 -257t91.5 -91zM352 1184l-192 202l162 87l163 -289h-133z" />
    <glyph glyph-name="amacron.alt" horiz-adv-x="782" 
d="M305 -18q-53 0 -97 29t-78.5 89.5t-53.5 163.5t-19 242v80q0 268 68.5 396t179.5 128q38 0 70.5 -15t56.5 -42t41 -54.5t33 -62.5v156h196v-1092h-196v158q-79 -176 -201 -176zM377 166q59 0 96 91.5t37 254.5v68q0 163 -37 254.5t-96 91.5q-58 0 -91.5 -91.5
t-33.5 -256.5v-64q0 -166 33.5 -257t91.5 -91zM184 1196v135h443v-135h-443z" />
    <glyph glyph-name="aogonek.alt" horiz-adv-x="782" 
d="M711 -166v-119q-43 -6 -70 -6q-87 0 -132.5 34t-45.5 97q0 78 76 160h-33v158q-79 -176 -201 -176q-53 0 -97 29t-78.5 89.5t-53.5 163.5t-19 242v80q0 268 68.5 396t179.5 128q38 0 70.5 -15t56.5 -42t41 -54.5t33 -62.5v156h196v-1092h-26q-49 -66 -49 -111
q0 -33 20.5 -45.5t63.5 -9.5zM377 166q59 0 96 91.5t37 254.5v68q0 163 -37 254.5t-96 91.5q-58 0 -91.5 -91.5t-33.5 -256.5v-64q0 -166 33.5 -257t91.5 -91z" />
    <glyph glyph-name="aring.alt" horiz-adv-x="782" 
d="M406 1176q-73 0 -124 51t-51 127t51 127t124 51t123.5 -51t50.5 -127q0 -75 -51 -126.5t-123 -51.5zM406 1257q37 0 61.5 28t24.5 69t-24.5 69.5t-61.5 28.5t-62 -28.5t-25 -69.5t25 -69t62 -28zM305 -18q-53 0 -97 29t-78.5 89.5t-53.5 163.5t-19 242v80q0 268 68.5 396
t179.5 128q38 0 70.5 -15t56.5 -42t41 -54.5t33 -62.5v156h196v-1092h-196v158q-79 -176 -201 -176zM377 166q59 0 96 91.5t37 254.5v68q0 163 -37 254.5t-96 91.5q-58 0 -91.5 -91.5t-33.5 -256.5v-64q0 -166 33.5 -257t91.5 -91z" />
    <glyph glyph-name="aring.alt2" horiz-adv-x="714" 
d="M258 -18q-98 0 -159.5 89.5t-61.5 235.5v31q0 170 68 258t188 88q79 0 156 -41v86q0 94 -43 143.5t-125 49.5q-80 0 -189 -52v187q79 31 123 39q-35 41 -35 106q0 75 51 126.5t123 51.5t122 -51t50 -127q0 -75 -57 -129q46 -19 82 -55q92 -92 92 -275v-743h-197v129
q-66 -147 -188 -147zM330 145q51 0 85 44.5t34 113.5v197q-62 28 -107 28q-56 0 -86.5 -46t-30.5 -134v-24q0 -88 28 -133.5t77 -45.5zM266 1202q0 -41 24.5 -69.5t61.5 -28.5q38 0 63 28t25 70q0 41 -25 68.5t-63 27.5q-37 0 -61.5 -27.5t-24.5 -68.5z" />
    <glyph glyph-name="aringacute.alt" horiz-adv-x="782" 
d="M330 1579l151 221l160 -76l-170 -145h-141zM406 1176q-73 0 -124 51t-51 127t51 127t124 51t123.5 -51t50.5 -127q0 -75 -51 -126.5t-123 -51.5zM406 1257q37 0 61.5 28t24.5 69t-24.5 69.5t-61.5 28.5t-62 -28.5t-25 -69.5t25 -69t62 -28zM305 -18q-53 0 -97 29
t-78.5 89.5t-53.5 163.5t-19 242v80q0 268 68.5 396t179.5 128q38 0 70.5 -15t56.5 -42t41 -54.5t33 -62.5v156h196v-1092h-196v158q-79 -176 -201 -176zM377 166q59 0 96 91.5t37 254.5v68q0 163 -37 254.5t-96 91.5q-58 0 -91.5 -91.5t-33.5 -256.5v-64q0 -166 33.5 -257
t91.5 -91z" />
    <glyph glyph-name="aringacute.alt2" horiz-adv-x="714" 
d="M279 1423l149 222l160 -78l-170 -144h-139zM258 -18q-98 0 -159.5 89.5t-61.5 235.5v31q0 170 68 258t188 88q79 0 156 -41v86q0 94 -43 143.5t-125 49.5q-80 0 -189 -52v187q79 31 123 39q-35 41 -35 106q0 75 51 126.5t123 51.5t122 -51t50 -127q0 -75 -57 -129
q46 -19 82 -55q92 -92 92 -275v-743h-197v129q-66 -147 -188 -147zM330 145q51 0 85 44.5t34 113.5v197q-62 28 -107 28q-56 0 -86.5 -46t-30.5 -134v-24q0 -88 28 -133.5t77 -45.5zM266 1202q0 -41 24.5 -69.5t61.5 -28.5q38 0 63 28t25 70q0 41 -25 68.5t-63 27.5
q-37 0 -61.5 -27.5t-24.5 -68.5z" />
    <glyph glyph-name="atilde.alt" horiz-adv-x="782" 
d="M305 -18q-53 0 -97 29t-78.5 89.5t-53.5 163.5t-19 242v80q0 268 68.5 396t179.5 128q38 0 70.5 -15t56.5 -42t41 -54.5t33 -62.5v156h196v-1092h-196v158q-79 -176 -201 -176zM377 166q59 0 96 91.5t37 254.5v68q0 163 -37 254.5t-96 91.5q-58 0 -91.5 -91.5
t-33.5 -256.5v-64q0 -166 33.5 -257t91.5 -91zM526 1184q-40 0 -120 45q-53 35 -80 35q-21 0 -33.5 -18t-24.5 -64l-112 26q20 107 51.5 153t85.5 46q47 0 121 -45q53 -35 80 -35q22 0 33 17.5t24 66.5l113 -29q-20 -106 -52 -152t-86 -46z" />
    <glyph glyph-name="i.dot" horiz-adv-x="364" 
d="M82 1233v213h201v-213h-201zM86 0v1092h195v-1092h-195z" />
    <glyph glyph-name="uni0386.calt" horiz-adv-x="823" 
d="M18 0l285 1438h217l285 -1438h-205l-57 319h-271l-57 -319h-197zM303 502h209l-104 575z" />
    <glyph glyph-name="uni0388.calt" horiz-adv-x="673" 
d="M86 0v1434h530v-191h-327v-426h293v-190h-293v-437h334v-190h-537z" />
    <glyph glyph-name="uni0389.calt" horiz-adv-x="860" 
d="M86 0v1434h203v-617h284v617h201v-1434h-201v625h-284v-625h-203z" />
    <glyph glyph-name="uni038A.calt" horiz-adv-x="389" 
d="M94 0v1434h201v-1434h-201z" />
    <glyph glyph-name="uni038C.calt" horiz-adv-x="851" 
d="M426 -18q-169 0 -269 180t-100 524v62q0 344 100 524t269 180t269 -180t100 -524v-62q0 -344 -100 -524t-269 -180zM426 166q164 0 164 520v62q0 520 -164 520t-164 -520v-62q0 -520 164 -520z" />
    <glyph glyph-name="uni038E.calt" horiz-adv-x="763" 
d="M281 0v582l-277 852h211l170 -586l170 586h205l-277 -852v-582h-202z" />
    <glyph glyph-name="uni038F.calt" horiz-adv-x="876" 
d="M440 1452q172 0 270.5 -142.5t98.5 -432.5v-23q0 -334 -176 -664l186 3v-193h-336v182q58 159 89.5 314t31.5 344v12q0 153 -21.5 247.5t-56.5 131.5t-88 37q-54 0 -88.5 -36.5t-55 -130t-20.5 -247.5v-12q0 -189 31.5 -345.5t89.5 -314.5v-182h-336v193l187 -3
q-176 321 -176 664v23q0 289 98.5 432t271.5 143z" />
    <glyph glyph-name="uni0399.calt" horiz-adv-x="389" 
d="M94 0v1434h201v-1434h-201zM242 1520v192h184v-192h-184zM-37 1520v192h184v-192h-184z" />
    <glyph glyph-name="uni03A5.calt" horiz-adv-x="763" 
d="M281 0v582l-277 852h211l170 -586l170 586h205l-277 -852v-582h-202zM430 1509v193h184v-193h-184zM152 1509v193h184v-193h-184z" />
    <glyph glyph-name="uni0431.srb" horiz-adv-x="755" 
d="M377 -18q-145 0 -234.5 131.5t-89.5 367.5v21q0 128 28 232t93 178.5t162 91.5l-123 135q-29 31 -43.5 49.5t-27.5 48.5t-13 61q0 68 47 108t139 40h320v-178l-268 2q-43 0 -43 -33q0 -12 11 -26.5t48 -53.5l104 -110q119 -122 167 -248t48 -291v-21q0 -236 -89 -370.5
t-236 -134.5zM377 152q63 0 98 86.5t35 248.5v31q0 156 -35.5 244t-97.5 88q-63 0 -97 -86.5t-34 -247.5v-31q0 -159 35 -246t96 -87z" />
    <glyph glyph-name="three.alt" horiz-adv-x="661" 
d="M238 -18q-119 0 -205 36v193q86 -39 170 -39q100 0 158.5 65t58.5 175v6q0 115 -69 175.5t-201 65.5v168q118 9 191 77.5t73 174.5v4q0 83 -47 132t-129 49t-185 -54v187q112 55 221 55q151 0 243.5 -91.5t92.5 -254.5v-8q0 -125 -61 -211.5t-156 -128.5
q103 -38 164 -125t61 -225v-9q0 -192 -106 -304.5t-274 -112.5z" />
    <glyph glyph-name="registered.alt" horiz-adv-x="1069" 
d="M535 -20q-217 0 -351.5 194.5t-134.5 507.5v70q0 315 134.5 508.5t351.5 193.5q218 0 351.5 -193.5t133.5 -508.5v-70q0 -314 -133.5 -508t-351.5 -194zM535 47q192 0 303.5 175t111.5 458v74q0 186 -49 329t-143.5 224.5t-222.5 81.5t-223 -81.5t-144 -224.5t-49 -329
v-74q0 -283 112 -458t304 -175zM360 336v788h138q111 0 172 -61q65 -65 65 -186v-9q0 -145 -102 -209l117 -323h-125l-101 285h-47v-285h-117zM477 727h23q116 0 116 141v6q0 140 -120 140h-19v-287z" />
    <glyph glyph-name="one.sup_alt" 
d="M455 946h-383v115h135v467l-133 -60v129l164 70h100v-606h117v-115z" />
    <glyph glyph-name="one.inf_alt" 
d="M455 -270h-383v114h135v467l-133 -59v129l164 70h100v-607h117v-114z" />
    <glyph glyph-name="zero.num" 
d="M246 711q-103 0 -152 85t-49 267v27q0 182 49 268t152 86t151.5 -85.5t48.5 -268.5v-27q0 -181 -48.5 -266.5t-151.5 -85.5zM246 1325q-38 0 -56 -54t-18 -186v-18q0 -131 18 -184.5t56 -53.5t55.5 53t17.5 185v18q0 133 -17.5 186.5t-55.5 53.5z" />
    <glyph glyph-name="one.num" horiz-adv-x="399" 
d="M291 719h-135v575l-117 -57v131l151 70h101v-719z" />
    <glyph glyph-name="one.num_alt" 
d="M455 719h-383v115h135v466l-133 -59v129l164 70h100v-606h117v-115z" />
    <glyph glyph-name="two.num" 
d="M55 719v106l178 262q28 46 38.5 63.5t20 43t9.5 45.5q0 37 -23 58.5t-59 21.5q-69 0 -147 -84v137q76 72 170 72q86 0 140 -50.5t54 -138.5q0 -86 -78 -200l-141 -211h217v-125h-379z" />
    <glyph glyph-name="three.num" 
d="M215 711q-92 0 -154 49v127q24 -24 63 -41t77 -17q49 0 79.5 27t30.5 76q0 99 -172 102h-4v90l144 189h-216v121h375v-97l-166 -204q170 -36 170 -197q0 -104 -63.5 -164.5t-163.5 -60.5z" />
    <glyph glyph-name="four.num" 
d="M403 856v-137h-116v137h-252v109l198 473h170v-471h60v-111h-60zM291 967v317h-12l-134 -317h146z" />
    <glyph glyph-name="five.num" 
d="M215 711q-96 0 -156 47v127q63 -56 142 -56q52 0 81 32t29 87q0 52 -27 78.5t-71 26.5q-36 0 -80 -19l-76 33l27 367h328v-119h-224l-12 -154q27 8 66 8q88 0 145 -54.5t57 -162.5q0 -112 -65 -176.5t-164 -64.5z" />
    <glyph glyph-name="six.num" 
d="M250 711q-76 0 -123 47q-78 75 -78 278v29q0 200 65 289.5t175 89.5q56 0 112 -29l-6 -129q-53 39 -98 39q-52 0 -82.5 -43.5t-34.5 -128.5q55 35 103 35q70 0 118 -55.5t48 -174.5q0 -115 -56.5 -181t-142.5 -66zM252 825q34 0 54 32t20 95q0 123 -78 123q-39 0 -70 -31
v-57q0 -162 74 -162z" />
    <glyph glyph-name="seven.num" 
d="M227 719h-135l205 590h-244v125h381v-95z" />
    <glyph glyph-name="eight.num" 
d="M246 711q-95 0 -152 55t-57 149q0 64 26.5 110t69.5 69q-82 52 -82 159q0 89 54.5 140t140.5 51q85 0 139.5 -51t54.5 -140q0 -107 -82 -159q43 -23 70 -69t27 -110q0 -94 -57 -149t-152 -55zM246 1346q-35 0 -54.5 -26t-19.5 -73t19.5 -73.5t54.5 -26.5t54 26t19 74
q0 47 -19 73t-54 26zM246 1040q-38 0 -60 -30t-22 -86q0 -55 21.5 -85t60.5 -30t60.5 30t21.5 85q0 56 -22 86t-60 30z" />
    <glyph glyph-name="nine.num" 
d="M244 1444q77 0 123 -49q77 -71 77 -279v-26q0 -200 -64.5 -289.5t-174.5 -89.5q-57 0 -123 32v127q60 -43 115 -43q107 0 116 166q-55 -35 -102 -35q-70 0 -118 55.5t-48 176.5q0 117 56.5 185.5t142.5 68.5zM246 1071q41 0 69 31v61q0 89 -18.5 126.5t-54.5 37.5
q-34 0 -54 -33t-20 -98q0 -125 78 -125z" />
    <glyph glyph-name="zero.den" 
d="M246 -10q-103 0 -152 86t-49 268v27q0 181 49 267.5t152 86.5t151.5 -85.5t48.5 -268.5v-27q0 -183 -48.5 -268.5t-151.5 -85.5zM246 604q-38 0 -56 -52.5t-18 -184.5v-19q0 -132 18 -184.5t56 -52.5t55.5 52.5t17.5 184.5v19q0 131 -17.5 184t-55.5 53z" />
    <glyph glyph-name="one.den" horiz-adv-x="399" 
d="M291 0h-135v575l-117 -57v129l151 72h101v-719z" />
    <glyph glyph-name="one.den_alt" 
d="M455 0h-383v115h135v467l-133 -60v129l164 70h100v-606h117v-115z" />
    <glyph glyph-name="two.den" 
d="M55 0v104l178 265q38 60 53 91t15 60q0 37 -23 58.5t-59 21.5q-69 0 -147 -84v137q76 72 170 72q86 0 140 -50t54 -138q0 -87 -78 -201l-141 -211h217v-125h-379z" />
    <glyph glyph-name="three.den" 
d="M215 -10q-90 0 -154 51v127q24 -24 63 -40.5t77 -16.5q50 0 80 26t30 76q0 99 -172 102h-4v91l144 188h-216v121h375v-97l-166 -204q77 -16 123.5 -65t46.5 -134q0 -103 -63.5 -164t-163.5 -61z" />
    <glyph glyph-name="four.den" 
d="M403 135v-135h-116v135h-252v111l198 473h170v-471h60v-113h-60zM291 248v317h-12l-134 -317h146z" />
    <glyph glyph-name="five.den" 
d="M215 -10q-93 0 -156 49v127q62 -55 142 -55q52 0 81 31.5t29 86.5q0 52 -27 78.5t-71 26.5q-40 0 -80 -21l-76 35l27 367h328v-121h-224l-12 -152q45 9 66 9q88 0 145 -55t57 -163q0 -112 -65 -177.5t-164 -65.5z" />
    <glyph glyph-name="six.den" 
d="M250 -10q-77 0 -123 49q-78 72 -78 278v27q0 201 65 291t175 90q60 0 112 -31l-6 -127q-53 39 -98 39q-52 0 -82.5 -43.5t-34.5 -128.5q52 33 103 33q70 0 118 -54t48 -173q0 -115 -56.5 -182.5t-142.5 -67.5zM252 106q34 0 54 32t20 95q0 123 -78 123q-40 0 -70 -30v-58
q0 -89 19 -125.5t55 -36.5z" />
    <glyph glyph-name="seven.den" 
d="M227 0h-135l205 590h-244v125h381v-94z" />
    <glyph glyph-name="eight.den" 
d="M246 -10q-95 0 -152 56t-57 151q0 63 26.5 109t69.5 69q-82 52 -82 157q0 89 55 141t140 52t139.5 -52t54.5 -141q0 -105 -82 -157q43 -23 70 -69t27 -109q0 -95 -57 -151t-152 -56zM246 625q-35 0 -54.5 -25.5t-19.5 -71.5q0 -47 19.5 -73.5t54.5 -26.5t54 26t19 74
q0 46 -19 71.5t-54 25.5zM246 319q-38 0 -60 -29.5t-22 -86.5q0 -54 22 -83.5t60 -29.5t60 29.5t22 83.5q0 57 -22 86.5t-60 29.5z" />
    <glyph glyph-name="nine.den" 
d="M244 725q77 0 123 -49q77 -74 77 -279v-28q0 -200 -64.5 -289.5t-174.5 -89.5q-61 0 -123 35v127q60 -43 115 -43q107 0 116 163q-50 -32 -102 -32q-70 0 -118 55t-48 176q0 117 56.5 185.5t142.5 68.5zM246 352q41 0 69 31v61q0 89 -18.5 126.5t-54.5 37.5
q-34 0 -54 -33.5t-20 -99.5q0 -123 78 -123z" />
    <glyph glyph-name="onehalf.alt" horiz-adv-x="1105" 
d="M436 719h-383v115h135v466l-133 -59v129l164 70h100v-606h117v-115zM680 0v104l178 265q38 60 53 91t15 60q0 37 -23 58.5t-59 21.5q-70 0 -148 -84v137q76 72 170 72q86 0 140.5 -50t54.5 -138q0 -87 -78 -201l-141 -211h217v-125h-379zM223 0l303 741l275 693h110
l-303 -742l-274 -692h-111z" />
    <glyph glyph-name="onethird.alt" horiz-adv-x="1105" 
d="M436 719h-383v115h135v466l-133 -59v129l164 70h100v-606h117v-115zM844 -10q-90 0 -154 51v127q24 -24 62.5 -40.5t76.5 -16.5q50 0 80.5 26t30.5 76q0 99 -172 102h-4v91l143 188h-215v121h375v-97l-166 -204q77 -16 123.5 -65t46.5 -134q0 -103 -63.5 -164t-163.5 -61
zM213 0l303 741l275 693h110l-303 -742l-274 -692h-111z" />
    <glyph glyph-name="onequarter.alt" horiz-adv-x="1105" 
d="M446 719h-383v115h136v466l-133 -59v129l163 70h101v-606h116v-115zM244 0l303 741l274 693h111l-303 -742l-275 -692h-110zM1004 135v-135h-117v135h-252v111l199 473h170v-471h59v-113h-59zM891 248v317h-12l-134 -317h146z" />
    <glyph glyph-name="onefifth.alt" horiz-adv-x="1105" 
d="M844 -10q-93 0 -156 49v127q62 -55 141 -55q52 0 81.5 32t29.5 86q0 52 -27 78.5t-71 26.5q-40 0 -80 -21l-76 35l27 367h327v-121h-223l-12 -152q45 9 65 9q88 0 145.5 -55t57.5 -163q0 -112 -65 -177.5t-164 -65.5zM223 0l303 741l275 693h110l-303 -742l-274 -692
h-111zM436 719h-383v115h135v466l-133 -59v129l164 70h100v-606h117v-115z" />
    <glyph glyph-name="onesixth.alt" horiz-adv-x="1105" 
d="M436 719h-383v115h135v466l-133 -59v129l164 70h100v-606h117v-115zM879 -10q-77 0 -123 49q-78 72 -78 278v27q0 201 65 291t175 90q60 0 112 -31l-6 -127q-53 39 -98 39q-52 0 -82.5 -43.5t-34.5 -128.5q52 33 102 33q70 0 118 -54t48 -173q0 -115 -56 -182.5
t-142 -67.5zM881 106q34 0 53.5 31.5t19.5 95.5q0 123 -77 123q-40 0 -70 -30v-58q0 -89 19 -125.5t55 -36.5zM233 0l304 741l274 693h111l-304 -742l-274 -692h-111z" />
    <glyph glyph-name="oneeighth.alt" horiz-adv-x="1105" 
d="M430 719h-383v115h135v466l-133 -59v129l164 70h100v-606h117v-115zM874 -10q-95 0 -151.5 56t-56.5 151q0 63 26.5 109t69.5 69q-82 52 -82 157q0 89 54.5 141t139.5 52t140 -52t55 -141q0 -105 -82 -157q43 -23 69.5 -69t26.5 -109q0 -95 -57 -151t-152 -56zM874 625
q-35 0 -54 -25.5t-19 -71.5q0 -48 19 -74t54 -26t54.5 26.5t19.5 73.5q0 46 -19.5 71.5t-54.5 25.5zM874 319q-38 0 -59.5 -29.5t-21.5 -86.5q0 -54 21.5 -83.5t59.5 -29.5t60 29.5t22 83.5q0 57 -22 86.5t-60 29.5zM227 0l303 741l275 693h110l-303 -742l-274 -692h-111z
" />
    <glyph glyph-name="zero.tab" horiz-adv-x="737" 
d="M369 -18q-168 0 -247 166t-79 536v64q0 372 79 538t247 166q167 0 246 -166t79 -536v-64q0 -371 -79.5 -537.5t-245.5 -166.5zM369 1266q-47 0 -74.5 -44t-42 -158t-14.5 -316v-60q0 -202 15 -317t42.5 -159t73.5 -44t73.5 43.5t42.5 158.5t15 316v59q0 202 -15 317.5
t-42.5 159.5t-73.5 44z" />
    <glyph glyph-name="one.tab" horiz-adv-x="737" 
d="M709 0h-631v178h233v1039l-227 -123v204l281 144h147v-1264h197v-178z" />
    <glyph glyph-name="two.tab" horiz-adv-x="737" 
d="M678 0h-619v168l301 584q109 218 109 338q0 81 -41.5 123t-108.5 42q-103 0 -235 -122v204q112 115 272 115q138 0 226 -89t88 -241v-8q0 -91 -29 -183.5t-106 -244.5l-246 -485h389v-201z" />
    <glyph glyph-name="three.tab" horiz-adv-x="737" 
d="M287 -18q-147 0 -234 69v193q100 -72 207 -72q99 0 157 64t58 178v16q0 121 -75.5 180t-217.5 68h-6l-2 135l270 422h-381v199h605v-174l-289 -437q299 -74 299 -381v-18q0 -204 -109 -323t-282 -119z" />
    <glyph glyph-name="three.tab_alt" horiz-adv-x="737" 
d="M287 -18q-145 0 -232 65v193q97 -68 207 -68q98 0 155.5 63.5t57.5 180.5q0 232 -289 241h-6v170h8q130 9 205.5 77t75.5 175q0 88 -48.5 136.5t-129.5 48.5q-107 0 -215 -84v188q100 84 254 84q151 0 244.5 -92t93.5 -256q0 -131 -63.5 -217.5t-164.5 -128.5
q236 -89 236 -355q0 -193 -108.5 -307t-280.5 -114z" />
    <glyph glyph-name="four.tab" horiz-adv-x="737" 
d="M430 0v285h-393l-4 157l342 998h235v-979h99v-176h-99v-285h-180zM430 461v639h-16l-219 -639h235z" />
    <glyph glyph-name="five.tab" horiz-adv-x="737" 
d="M291 -18q-60 0 -118 18t-93 47v197q94 -70 196 -70t152.5 75t50.5 210v8q0 125 -46 182.5t-122 57.5q-74 0 -133 -50l-106 70l39 707h514v-195h-361l-18 -373q54 27 119 27t120 -23t99.5 -71t70 -131.5t25.5 -194.5v-12q0 -221 -106.5 -350t-282.5 -129z" />
    <glyph glyph-name="six.tab" horiz-adv-x="737" 
d="M428 922q55 0 101 -23t84 -71t59.5 -133t21.5 -199v-29q0 -219 -86 -352t-227 -133q-115 0 -182 67q-138 141 -138 592v47q0 172 18 303.5t50.5 218t81.5 141.5t107 78t131 23q83 0 159 -37v-192q-77 45 -145 45q-198 0 -205 -420q78 74 170 74zM383 162q60 0 90.5 77.5
t30.5 219.5v30q0 133 -34 198t-93 65q-38 0 -64 -16.5t-57 -51.5v-154q0 -368 127 -368z" />
    <glyph glyph-name="seven.tab" horiz-adv-x="737" 
d="M465 1229h-408v205h609v-150l-338 -1284h-201z" />
    <glyph glyph-name="eight.tab" horiz-adv-x="737" 
d="M369 -18q-148 0 -235 109t-87 296v14q0 130 46 222.5t120 134.5q-143 91 -143 317v10q0 169 83 268t216 99t217 -99t84 -268v-10q0 -224 -146 -317q75 -42 121.5 -135t46.5 -222v-14q0 -187 -87.5 -296t-235.5 -109zM369 823q55 0 86.5 63t31.5 171v12q0 221 -118 221
q-56 0 -87.5 -54.5t-31.5 -166.5v-12q0 -108 32 -171t87 -63zM369 145q63 0 99 63t36 189v13q0 123 -37 188.5t-98 65.5t-98.5 -65.5t-37.5 -188.5v-13q0 -125 36 -188.5t100 -63.5z" />
    <glyph glyph-name="nine.tab" horiz-adv-x="737" 
d="M313 496q-55 0 -101.5 24t-85 73.5t-60 136.5t-21.5 202v26q0 221 87 357.5t228 136.5q112 0 183 -68q137 -140 137 -589v-50q0 -214 -27 -365t-79.5 -236.5t-121 -123.5t-159.5 -38q-95 0 -182 43v194q95 -53 168 -53q192 0 202 401q-74 -71 -168 -71zM358 1272
q-60 0 -90 -80t-30 -225v-31q0 -136 33.5 -203t93.5 -67q38 0 63.5 16.5t54.5 50.5v168q0 371 -125 371z" />
    <glyph glyph-name="dollar.tab" horiz-adv-x="737" 
d="M498 1589l-13 -151q85 -14 152 -52v-210q-121 75 -217 75q-69 0 -116.5 -44.5t-47.5 -114.5v-2q0 -28 8 -53.5t16.5 -43.5t36.5 -48.5t45 -48t64 -62.5q151 -141 208.5 -236.5t57.5 -222.5v-4q0 -155 -85.5 -256.5t-223.5 -120.5l-14 -217h-136l17 219q-89 10 -184 67
v209q134 -90 249 -90q82 0 128 49.5t46 130.5v5q0 64 -35 121t-130 145q-77 71 -118 113.5t-80.5 97.5t-55 110t-15.5 123v4q0 147 82 244t213 115l12 149h136z" />
    <glyph glyph-name="sterling.tab" horiz-adv-x="737" 
d="M160 784v263q0 213 102 315q91 88 236 88q89 0 161 -35l-2 -194q-70 32 -127 32q-71 0 -114 -43q-49 -49 -49 -166v-260h233v-182h-233v-418h338v-184h-648v131l103 45v426h-103v182h103z" />
    <glyph glyph-name="Euro.tab" horiz-adv-x="737" 
d="M27 813v150h114q32 242 137 364.5t252 122.5q85 0 152 -37v-209q-71 49 -135 49q-74 0 -126 -71t-73 -219h227v-150h-241v-70v-51q0 -8 -0.5 -21t-0.5 -22.5t1 -17.5h241v-152h-229q40 -299 205 -299q64 0 135 49v-196q-73 -49 -168 -49q-145 0 -246.5 124.5
t-132.5 370.5h-112v152h100v61v47v74h-100z" />
    <glyph glyph-name="yen.tab" horiz-adv-x="737" 
d="M92 379h180v149h-180v152h146l-226 754h205l154 -629l155 629h199l-227 -754h147v-152h-180v-149h180v-154h-180v-225h-193v225h-180v154z" />
    <glyph glyph-name="cent.tab" horiz-adv-x="737" 
d="M485 1442v-162q93 -8 168 -61v-201q-49 36 -91.5 56t-90.5 20q-199 0 -199 -346v-58q0 -342 199 -342q87 0 184 78v-190q-74 -66 -170 -76v-172h-135v180q-133 34 -204.5 167.5t-71.5 358.5v49q0 221 73 355t203 170v174h135z" />
    <glyph glyph-name="numbersign.tab" horiz-adv-x="737" 
d="M27 524h116l29 394h-106v180h118l25 336h131l-25 -336h160l25 336h131l-25 -336h107v-180h-119l-29 -394h111v-180h-123l-25 -344h-131l25 344h-162l-22 -344h-132l25 344h-104v180zM301 918l-29 -394h162l29 394h-162z" />
    <glyph glyph-name="paragraph.tab" horiz-adv-x="737" 
d="M434 0v481h-4q-170 11 -281.5 133.5t-111.5 341.5v5q0 120 34.5 212t96.5 148t143.5 84.5t180.5 28.5h147v-1434h-205z" />
    <glyph glyph-name="section.tab" horiz-adv-x="737" 
d="M332 -18q-101 0 -182 41v188q90 -53 167 -53q52 0 81.5 26.5t29.5 69.5v2q0 48 -41 85.5t-133 94.5q-58 36 -94 64t-68.5 64t-47.5 77t-15 92v4q0 78 46 145.5t132 104.5q-82 88 -82 189v4q0 126 77.5 199t203.5 73q101 0 182 -41v-186q-92 51 -168 51q-52 0 -81.5 -26.5
t-29.5 -69.5v-2q0 -47 42 -86t132 -95q118 -74 172 -137.5t54 -159.5v-4q0 -78 -46.5 -145.5t-132.5 -104.5q82 -88 82 -188v-4q0 -126 -77 -199t-203 -73zM301 903q-52 -29 -76 -67t-24 -74v-4q0 -45 39 -90t145 -109q3 -1 26 -15t25 -14q53 28 77 66.5t24 75.5v4
q0 45 -39 89.5t-146 108.5q-3 1 -26 15t-25 14z" />
    <glyph glyph-name="degree.tab" horiz-adv-x="737" 
d="M369 633q-121 0 -197 108.5t-76 286.5v25q0 177 76 286t197 109t196.5 -109t75.5 -286v-25q0 -179 -75.5 -287t-196.5 -108zM369 778q60 0 94.5 65.5t34.5 184.5v25q0 119 -34.5 184.5t-94.5 65.5t-94.5 -65.5t-34.5 -184.5v-25q0 -119 34.5 -184.5t94.5 -65.5z" />
    <glyph glyph-name="percent.tab" horiz-adv-x="737" 
d="M217 1446q98 0 147.5 -89.5t49.5 -256.5v-56q0 -83 -17 -163l203 553h109l-301 -734h-13l-20 -53q53 88 145 88q98 0 147.5 -89t49.5 -257v-53q0 -168 -49.5 -258t-147.5 -90t-147 89.5t-49 256.5v55q0 85 16 160l-203 -549h-108l301 731h12l20 60q-52 -93 -145 -93
q-98 0 -147.5 89.5t-49.5 256.5v54q0 168 49.5 258t147.5 90zM518 612q-38 0 -55 -52.5t-17 -170.5v-55q0 -117 17 -170t55 -53t55 53t17 170v55q0 118 -17 170.5t-55 52.5zM219 1323q-38 0 -55 -53t-17 -170v-56q0 -117 17 -170t55 -53t55 53t17 170v56q0 117 -17 170
t-55 53z" />
    <glyph glyph-name="quotedbl.tab" horiz-adv-x="737" 
d="M444 827l15 607h207l-2 -19l-144 -588h-76zM121 827l14 607h207v-19l-143 -588h-78z" />
    <glyph glyph-name="quotesingle.tab" horiz-adv-x="368" 
d="M102 827l17 607h205v-19l-142 -588h-80z" />
    <glyph glyph-name="period.tab" horiz-adv-x="368" 
d="M76 0v270h217v-270h-217z" />
    <glyph glyph-name="comma.tab" horiz-adv-x="368" 
d="M51 -289l-22 84q82 20 115 76t26 129h-94v270h217v-227q0 -145 -59 -226t-183 -106z" />
    <glyph glyph-name="colon.tab" horiz-adv-x="368" 
d="M76 819v271h217v-271h-217zM76 0v270h217v-270h-217z" />
    <glyph glyph-name="semicolon.tab" horiz-adv-x="368" 
d="M76 819v271h217v-271h-217zM51 -289l-22 84q82 20 115 76t26 129h-94v270h217v-227q0 -145 -59 -226t-183 -106z" />
    <glyph glyph-name="twodotleader.tab" horiz-adv-x="737" 
d="M446 0v262h216v-262h-216zM78 0v262h215v-262h-215z" />
    <glyph glyph-name="periodcentered.tab" horiz-adv-x="368" 
d="M76 492v270h217v-270h-217z" />
    <glyph glyph-name="slash.tab" horiz-adv-x="737" 
d="M705 1575l-525 -1778h-168l525 1778h168z" />
    <glyph glyph-name="bar.tab" horiz-adv-x="368" 
d="M106 -203v1778h156v-1778h-156z" />
    <glyph glyph-name="underscore.tab" horiz-adv-x="737" 
d="M-4 -313v153h745v-153h-745z" />
    <glyph glyph-name="plus.tab" horiz-adv-x="737" 
d="M690 631h-235v-248h-172v248h-236v180h236v248h172v-248h235v-180z" />
    <glyph glyph-name="minus.tab" horiz-adv-x="737" 
d="M688 623h-637v196h637v-196z" />
    <glyph glyph-name="divide.tab" horiz-adv-x="737" 
d="M274 932v205h189v-205h-189zM688 631h-637v180h637v-180zM274 305v205h189v-205h-189z" />
    <glyph glyph-name="equal.tab" horiz-adv-x="737" 
d="M682 805h-627v192h627v-192zM682 444h-627v193h627v-193z" />
    <glyph glyph-name="multiply.tab" horiz-adv-x="737" 
d="M551 379l-182 209l-185 -209l-135 115l203 227l-203 227l137 115l183 -209l184 209l137 -115l-205 -227l205 -227z" />
    <glyph glyph-name="less.tab" horiz-adv-x="737" 
d="M659 264l-593 371v172l593 371v-228l-387 -227l387 -229v-230z" />
    <glyph glyph-name="greater.tab" horiz-adv-x="737" 
d="M670 635l-594 -371v228l387 227l-387 229v230l594 -371v-172z" />
    <glyph glyph-name="plusminus.tab" horiz-adv-x="737" 
d="M690 639h-235v-250h-172v250h-236v178h236v250h172v-250h235v-178zM688 57h-637v174h637v-174z" />
    <glyph glyph-name="R_p" horiz-adv-x="1421" 
d="M72 0v1434h215q179 0 285 -113.5t106 -335.5v-14q0 -266 -172 -385l194 -586h-204l-172 524h-64v-524h-188zM778 -266v1360h183v-154q16 35 30.5 60.5t37.5 53.5t53.5 43t66.5 15q103 0 165 -127.5t62 -398.5v-80q0 -137 -17.5 -240t-49 -164t-71.5 -90.5t-89 -29.5
q-68 0 -111 46.5t-77 121.5v-416h-183zM1075 158q109 0 109 350v76q0 170 -27.5 261t-81.5 91q-53 0 -85 -92t-32 -258v-80q0 -165 32 -256.5t85 -91.5zM260 696h31q91 0 144.5 69.5t53.5 207.5v12q0 270 -208 270h-21v-559z" />
    <glyph glyph-name="hcoslug" horiz-adv-x="1421" 
d="M559 37h-53q0 -25 20 -25q16 0 19 15h14q-7 -29 -37 -29q-20 0 -31.5 11t-11.5 30t12 31t29 12q42 0 39 -45zM520 72q-14 0 -14 -25h29q0 25 -15 25zM399 160q17 0 17 33q0 30 -17 30q-16 0 -16 -30q0 -33 16 -33zM430 8q16 0 16 33q0 31 -16 31t-16 -31q0 -33 16 -33z
M430 -2q-19 0 -31 11.5t-12 31.5q0 19 12 30t31 11t31 -11t12 -30t-12 -31t-31 -12zM1118 8q17 0 17 33q0 31 -17 31q-16 0 -16 -31q0 -33 16 -33zM1118 -2q-19 0 -31 11.5t-12 31.5q0 19 12 30t31 11t31 -11t12 -30t-12 -31t-31 -12zM256 152v14h14v84h-14v14h104v-41h-16
q-3 17 -7 22t-15 5h-25v-37h8q7 0 8.5 2.5t3.5 13.5h15v-47h-15q-7 16 -12 17h-8v-33h20v-14h-61zM399 150q-19 0 -31 11.5t-12 31.5q0 18 12 29t31 11t31 -11t12 -29q0 -19 -12 -31t-31 -12zM1319 -205v1639h-1217v-1639h1217zM1020 -2q-28 0 -43.5 15.5t-15.5 41.5
q0 27 16.5 44.5t38.5 17.5q18 0 33 -15l2 13h16v-45h-16q-6 19 -12.5 25.5t-18.5 6.5q-29 0 -29 -45t33 -45q25 0 29 33h16q-3 -47 -49 -47zM762 164q14 0 14 26q0 27 -14 27q-17 0 -17 -27q0 -26 17 -26zM565 0v14h13v52h-15v14h15v2q0 19 11 29t27 10q11 0 19 -4l20 4
v-107h13v-14h-47v14h10v52h-29v-52h10v-14h-47zM754 0v14h12v52h-12v14h37v-21q9 23 24 23q16 0 16 -16q0 -15 -14 -15q-12 0 -12 12v3q-6 0 -14 -19v-33h16v-14h-53zM721 150v106h-12v14h36v-55q6 18 27 18q14 0 22.5 -11t8.5 -29q0 -16 -8 -29.5t-25 -13.5q-19 0 -29 16
l-8 -16h-12zM819 154q10 0 12.5 -8t-2.5 -13q14 0 17 17l-33 67h-10v14h51v-14h-12l18 -41l17 41h-11v14h35v-14h-10l-27 -63q-13 -33 -37 -33q-22 0 -22 18q0 15 14 15zM506 877q0 26 15 42.5t40 16.5q26 0 43 -21.5t17 -56.5q0 -46 -37 -102q-30 29 -42.5 42.5t-24 35
t-11.5 43.5zM618 152v28h15q12 -18 24 -18q11 0 11 8q0 6 -25 13t-25 26q0 10 8 17t21 7q16 0 23 -10l4 10h12v-26h-14q-10 14 -21 14q-10 0 -10 -8q0 -6 24.5 -12t24.5 -25q0 -11 -7.5 -18.5t-20.5 -7.5q-12 0 -27 10l-2 -8h-15zM535 449q-46 0 -76.5 31.5t-30.5 78.5
q0 49 33 82q72 -68 151 -168q-31 -24 -77 -24zM561 250l25 4v-23h26v-14h-26v-41q0 -10 8 -10q7 0 10 14l10 -4q-6 -26 -28 -26q-25 0 -25 26v41h-14v14h14v19zM877 627q-53 -31 -95 -86q39 -45 68 -64.5t59 -19.5q54 0 88 59l15 -4q-3 -87 -49.5 -140t-114.5 -53
q-46 0 -84.5 20.5t-89.5 72.5q-84 -93 -213 -93q-93 0 -158 55t-65 136q0 129 168 186q-34 35 -49 67t-15 75q0 69 62 121.5t161 52.5q90 0 142.5 -46.5t52.5 -105.5q0 -37 -19 -69q43 2 70.5 -17t30.5 -59q53 78 123 78q43 0 72.5 -30t29.5 -77t-29.5 -79t-72.5 -32
q-58 0 -88 52zM449 152v14h12v51h-12v14h34v-20q9 22 29 22q25 0 25 -28v-39h12v-14h-45v14h8v37q0 14 -12 14q-15 0 -15 -20v-31h9v-14h-45zM913 68h37v-15h-10q-6 -12 -18 -28q7 -11 12 -11t8 11l10 -2q-7 -25 -26 -25q-15 0 -25 12q-12 -12 -31 -12q-36 0 -36 29
q0 23 26 30q-12 12 -12 25q0 11 10.5 20t24.5 9q13 0 20.5 -7.5t7.5 -17.5q0 -16 -22 -25q5 -5 12.5 -13.5t11.5 -12.5q11 11 13 18h-13v15zM879 12q7 0 16 6q-20 24 -29 33q-8 -8 -8 -18q0 -9 6 -15t15 -6zM602 86v-6h29v10q-13 0 -13 12l3 7q-3 2 -7 2q-12 0 -12 -25z
M870 88q0 -7 13 -20q10 7 10 18q0 12 -12 12q-11 0 -11 -10zM639 700q61 42 86 70q23 -23 29 -49t-2 -52.5t-29 -62.5q-68 78 -84 94zM750 37h-54q0 -25 21 -25q15 0 18 15h15q-7 -29 -37 -29q-20 0 -31.5 11t-11.5 30t12 31t29 12q42 0 39 -45zM711 72q-15 0 -15 -25h29
q0 25 -14 25zM254 0v14h16v84h-16v15h59v-15h-16v-32h45v32h-16v15h59v-15h-16v-84h16v-14h-59v14h16v37h-45v-37h16v-14h-59zM1180 27q14 0 14 -15q0 -14 -14 -14q-15 0 -15 14q0 6 4.5 10.5t10.5 4.5z" />
    <glyph glyph-name="space.tab" horiz-adv-x="368" 
 />
    <glyph glyph-name="NUL" horiz-adv-x="0" 
 />
    <glyph glyph-name="caron.alt" horiz-adv-x="1024" 
d="M373 1147l18 299h137v-4l-69 -295h-86z" />
    <glyph glyph-name="descendercyrillic" horiz-adv-x="1024" 
d="M422 -205l12 311h154l12 -311h-178z" />
    <glyph glyph-name="descendercyrillic.cap" horiz-adv-x="1024" 
d="M418 -229l8 335h170l10 -335h-188z" />
    <glyph glyph-name="straightdescendercyrillic" horiz-adv-x="1024" 
d="M426 -205v205h-18v176h188v-381h-170z" />
    <glyph glyph-name="straightdescendercyrillic.cap" horiz-adv-x="1024" 
d="M418 -229v229h-23v190h211v-419h-188z" />
    <glyph glyph-name="acute.cap" horiz-adv-x="1024" 
d="M340 1509l162 246l174 -86l-191 -160h-145z" />
    </font>
</defs>
</svg>
